<?xml version="1.0" encoding="utf-8"?>
<!-- Generator: Adobe Illustrator 18.1.1, SVG Export Plug-In . SVG Version: 6.00 Build 0)  -->
<svg version="1.1" id="Layer_2" xmlns="http://www.w3.org/2000/svg" xmlns:xlink="http://www.w3.org/1999/xlink" x="0px" y="0px"
	 viewBox="-64.7 169 741.4 447" enable-background="new -64.7 169 741.4 447" xml:space="preserve">
<g>
	<path fill="#1ABC9C" d="M320.6,481.2h109.8c1.7-12.7,5.7-24.6,11.3-35.6H294.9C305.7,455.6,314.5,467.8,320.6,481.2z"/>
	<path fill="#1ABC9C" d="M260.6,407.5c14.9-80.4,79.8-132.2,99.3-146.2l1-0.7h145.6v102c7.6-1.8,15.3-3,23.3-3.5V238.4H345.5
		c-10,7.2-93.6,70.4-106.8,178.2c7.6,1.5,14.9,3.7,21.8,6.7L260.6,407.5z"/>
	<path fill="#1ABC9C" d="M529.7,212.2c0-17.7-16.4-18.3-18.4-18.4H299.7c-1.8,0-18.4,0.6-18.4,18.4c0,17.7,16.4,18.3,18.4,18.4h230
		L529.7,212.2L529.7,212.2z"/>
	<path fill="#1ABC9C" d="M539.2,394.4c-56.2,0-101.8,45.7-101.8,101.8S483,598.1,539.2,598.1S641,552.4,641,496.3
		S595.3,394.4,539.2,394.4z M539.2,539.3c-23.6,0-42.9-19.2-42.9-42.9c0-23.6,19.2-43,42.9-43s42.9,19.2,42.9,43
		S562.9,539.3,539.2,539.3z"/>
	<path fill="#1ABC9C" d="M429.7,489H324.1c4.9,12.9,7.4,26.7,7.4,40.7v27.9h116.7c-11.8-17.5-18.8-38.6-18.8-61.4
		C429.4,493.8,429.5,491.4,429.7,489z"/>
	<path fill="#1ABC9C" d="M539.2,461.2c-19.4,0-35.1,15.7-35.1,35.1s15.7,35.1,35.1,35.1s35.1-15.7,35.1-35.1
		S558.6,461.2,539.2,461.2z"/>
	<path fill="#1ABC9C" d="M539.2,366.5c-1.8,0-3.5,0-5.4,0.1c-10.4,0.4-20.5,2.1-30.3,4.9c-19.9,5.6-38.3,16.1-53.4,30.2l14.3,14.3
		c19.6-18.3,45.9-29.5,74.8-29.5c59.2,0,107.6,47.1,109.6,105.9h20C666.9,422.6,609.5,366.5,539.2,366.5z"/>
	<path fill="#1ABC9C" d="M287.1,449.1c-1.6-1.3-3.3-2.8-5.2-4.4c-6.1-4.6-12.5-8.6-19.1-11.8c-9.1-4.4-18.9-7.6-29.1-9.3
		c-5.7-1-11.6-1.5-17.5-1.5c-13,0-25.6,2.3-37.6,6.8c-16.4,6.1-31.3,16.3-43,29.6c-0.5,0.6-1.1,1.2-1.6,1.8l24.6,19.2
		c14-16.1,34.6-26.3,57.6-26.3c42.1,0,76.4,34.2,76.4,76.4c0,9.9-1.9,19.2-5.4,27.9h36.4v-27.9c0-15-3-29.5-9-43.1
		C308.3,472.4,298.8,459.5,287.1,449.1z"/>
	<path fill="#1ABC9C" d="M216.1,507c-12.5,0-22.8,10.2-22.8,22.8s10.2,22.8,22.8,22.8c12.5,0,22.8-10.2,22.8-22.8
		C238.9,517.2,228.7,507,216.1,507z"/>
	<path fill="#1ABC9C" d="M216.1,461.2c-37.8,0-68.5,30.7-68.5,68.5s30.7,68.5,68.5,68.5s68.5-30.7,68.5-68.5
		S253.9,461.2,216.1,461.2z M216.1,560.3c-16.9,0-30.6-13.8-30.6-30.6c0-16.9,13.8-30.6,30.6-30.6c16.9,0,30.6,13.8,30.6,30.6
		C246.7,546.6,233.1,560.3,216.1,560.3z"/>
	<path fill="#1ABC9C" d="M498.5,364.8v-96.4H363.4c-20,14.5-80.9,64.1-95,140.1v18.3c6,3,11.7,6.6,17.2,10.7h160.8
		c3.7-5.7,7.8-11.2,12.4-16.1l-19.9-19.9l2.8-2.8C457.7,383.1,477.3,371.4,498.5,364.8z M336.2,353.1c0,0,4.3-26.4,41.1-63.3h96.8
		v63.3H336.2z"/>
	<g>
		<path fill="#1ABC9C" d="M170.9,324.4c0.7-1.3,1.7-1.7,3.2-1.3c12.7,2.8,23.6-0.4,33.3-8.9c10-8.9,15.5-20.2,18.5-32.9
			c1.2-5.2,1.9-10.5,2.9-15.8v-10.6c-2.2-5.4-5.7-8.6-11.9-8.6c-11.6,0.1-22.8,1.9-33.5,6.1c-10.8,4.1-20.1,10.6-26.9,20.7
			c-6.6-9.7-15.5-16.1-25.9-20.2c-10.4-4.1-21.1-6-32-6.3c-4.6-0.1-8.9,0.4-12.2,4.4c-3.2-4-7.4-4.9-11.9-4.4
			c-6.6,0.7-13.4,1.2-19.9,2.6c-12.4,2.7-23.8,7.8-32.8,17.2c-1.9,2.1-3.7,4.4-5.5,6.5c-2.2-2.6-4.3-5.2-6.7-7.6
			c-16-14.7-35.4-19-56.4-18.5c-5.2,0.1-9.4,5.2-9.3,10.7c0.1,5.1,0.4,10.2,1.1,15.2c2.1,13.9,6.5,26.9,16.1,37.6
			c9.9,11,22,16.2,36.9,13c2.1-0.4,2.9,0.1,3.7,1.7c3.3,6.6,3,13.6,3.3,20.8H1.5c-15.3,0-30.7,0-46,0c-7.2,0-11.9,4.6-11.9,11.8
			c0,21.8,0,43.7,0,65.5c0,9.5,9.3,14.9,17.2,9.7c5.2-3.4,9.9-7.8,14.4-12.2c3.5-3.3,4.5-3.4,7.9-0.1c4.4,4.3,8.8,8.6,13.9,11.9
			c11.6,7.6,23.8,7.7,35.4,0.2c5-3.2,9.4-7.6,13.8-11.7c4-4,4.8-3.9,8.9,0.1c4.3,4.3,8.8,8.5,13.8,11.7c11.3,7.3,23.3,7.3,34.7,0.1
			c5.1-3.3,9.7-7.8,14.1-12.1c3.7-3.5,4.8-3.7,8.3-0.1c4.4,4.3,8.8,8.6,13.9,11.9c1.5,1,2.8,1.7,4.3,2.4
			c9.3-7.1,19.5-12.8,30.5-16.8c13.2-5,27.2-7.4,41.5-7.4c3.9,0,7.9,0.2,11.8,0.6c0.2-1.8,0.5-3.8,0.9-5.6v-51.2
			c-2.3-6.7-7.1-9-14-8.9c-14.6,0.2-29.4,0.1-44,0.1h-3.3c0.1-6.6,0-12.9,2.2-18.9C169.9,326.1,170.4,325.2,170.9,324.4z
			 M180.5,279.1c7.1-5.8,15.6-8.3,25-9.9c-0.4,1.9-0.5,3.5-0.9,5c-2.1,8.9-5.2,17.2-12.3,23.4c-3.7,3.2-7.7,4.6-12.5,4
			c-3.7-0.5-5.5-2.3-6.3-6C171.8,288.4,175.3,283.3,180.5,279.1z M-1.2,296.5c-0.7,2.7-2.3,4.5-5.1,5c-3.9,0.7-7.6,0.6-11-1.7
			c-10.5-7.3-13.8-18.3-16-30.5c2.6,0.5,4.5,0.9,6.5,1.2c8.6,2.2,16.8,5.5,22.8,12.5C-0.7,287.1,0.1,291.5-1.2,296.5z M113.4,270.5
			c8.4,2.1,16.2,5.2,22.2,11.8c3.3,3.7,4.5,7.8,3.9,12.5c-0.6,4.3-2.8,6.3-7.1,6.8c-4.8,0.6-8.8-1.1-12.2-4.3
			c-8.3-7.4-11.1-17.4-13-28.3C109.4,269.7,111.5,270,113.4,270.5z M36.8,282.5c7.6-8.3,17.5-11.2,28-13c0.4,0.2,0.6,0.4,1,0.6
			c-1.9,5.7-3.3,11.7-5.8,16.9c-2.2,4.3-5.6,7.9-9,11.5c-3,3.3-7.3,3.9-11.6,3.2c-3.2-0.5-5.2-2.1-6.1-5.4
			C32,291.1,33.1,286.5,36.8,282.5z M28.8,328.6c0.1-1.2,0.9-2.4,1.5-3.5c0.9-1.7,1.8-2.3,4-1.8c11,2.4,21,0.2,30-6.6
			c9.1-6.9,15.1-16.2,18.9-26.9c1.1-3.2,2.1-6.5,3.3-10.2c0.4,1.3,0.6,2.1,0.7,2.9c2.2,8.3,5.4,16.2,10.5,23.1
			c9.9,13.3,22.4,21.2,39.7,17.9c3.2-0.6,4.4,0.5,5.4,2.9c2.4,6.2,2.6,12.7,2.4,19.4H26.8C27.4,339.9,28,334.2,28.8,328.6z
			 M206.4,368.4v30.8c-0.2,0-0.5,0.1-0.6,0c-10.5-5.8-25.1-3.8-34,7.7c-2.2,2.8-5.2,5-8.2,7.1c-3.9,2.9-8.2,2.9-12.2,0
			c-3-2.2-5.8-4.9-8.6-7.4c-1.9-1.7-3.5-3.9-5.6-5.4c-10.8-7.9-25.5-6.3-34.6,3.4c-3.2,3.4-6.6,6.5-10.2,9.4c-3.9,3-8.2,3-12.2,0
			c-3.2-2.4-6.1-5.2-9-7.8c-1.8-1.7-3.4-3.7-5.5-5.1c-10.5-7.7-25-6.2-34,3.3c-3.2,3.3-6.6,6.6-10.2,9.5c-4.1,3.4-8.9,3.3-13,0
			c-3.5-2.7-6.7-5.8-9.7-9c-5.2-5.6-11.7-8.8-19.2-8.4c-4.4,0.2-8.8,1.6-13.2,2.4v-30.3H5c0,0.9,0.1,1.6,0.1,2.3c0,2.1,0,4.1,0,6.1
			c0.1,6.5,4.6,11.3,10.8,11.5c6.1,0.1,11.1-4.5,11.5-11c0.1-2.9,0-5.8,0-8.9h117.8c0,3-0.1,6,0,8.9c0.4,6.5,5.2,11.1,11.3,11
			c6.2-0.1,10.7-5,10.8-11.5c0-2.8,0-5.5,0-8.4h39V368.4z"/>
		<path fill="#1ABC9C" d="M11.9,480.8c-6.2-13.3-15-24.7-24.6-35.7c-4.1-4.8-11.6-4.9-15.7-0.2c-10.4,11.7-19.9,23.9-25.9,38.4
			c-1.1,2.7-1.7,5.5-2.7,8.2v8.4c0.4,1.6,0.9,3.2,1.2,4.8c4.9,17.5,21.9,28.7,40.2,26.3c17.3-2.3,30.8-17.5,31.1-35.1
			C15.6,490.5,14.1,485.5,11.9,480.8z M-15.6,508c-5.6,2.1-10.6,1-14.9-3.2c-4.1-4-5.2-9.3-2.6-14.5c3.5-6.8,7.7-13.3,11.6-19.9
			c0.5,0,1.1,0,1.6,0c4,6.9,8.2,13.9,12.1,20.8c0.7,1.2,1,2.8,1.1,4.3C-6.7,500.8-10.5,506.1-15.6,508z"/>
	</g>
</g>
</svg>
