<?xml version="1.0" encoding="utf-8"?>
<!-- Generator: Adobe Illustrator 18.1.1, SVG Export Plug-In . SVG Version: 6.00 Build 0)  -->
<svg version="1.1" id="Layer_1" xmlns="http://www.w3.org/2000/svg" xmlns:xlink="http://www.w3.org/1999/xlink" x="0px" y="0px"
	 viewBox="0 0 612 792" enable-background="new 0 0 612 792" xml:space="preserve">
<g id="siembra" display="none">
	<g display="inline">
		<path fill="#1ABC9C" d="M13.9,639.2c0-79.4,0-158.7,0-238.1c0.7-0.4,1.2-0.8,1.9-1.2c27.9-21.7,57.3-20.6,83.3,3.1
			c1.7,1.6,3.4,3,5.2,4.5c21.2,16.2,53.6,16.5,77.4-5.8c25.2-23.7,58.8-22.8,83.8,0.7c4.9,4.6,10.2,8.5,16.3,11.5
			c7,3.3,7.3,3,7.3-4.4c0-44.6,0-89.2,0-133.9c0-7.9-0.6-8.2-8.2-9c-24.1-2.5-47-8.7-67.2-22.1c-45.4-30.3-61.4-75.2-61.8-127.5
			c0-3.6,2.1-4.4,5.2-4.5c10.7-0.3,21.4,0.8,31.9,2.5c60.2,9.6,101.2,48.1,114.1,107.6c1.5,6.5,2.4,13.2,3.6,19.8
			c1.2-3.5,1.7-6.9,2.2-10.2c4.7-29.4,15.3-56.3,36.8-77.8c30.6-30.6,68.6-41.8,110.8-41.9c4,0,5.2,1.8,5.3,5.6
			c0.3,14.4-1.5,28.5-4.8,42.5c-10,40.6-31.6,72.4-69.9,91.2c-17.5,8.5-36.1,13.3-55.4,14.9c-5.2,0.4-7.2,2.4-7.2,7.8
			c0.2,45.4,0.1,90.8,0.1,136.2c0,5.8,0.6,6.2,5.7,3.9c7.6-3.3,13.9-8.5,20-14c14.6-13.4,31.9-18,51.4-14.6
			c13.2,2.2,23.5,9.3,33,18.1c14.6,13.5,32,17.9,51.5,14.2c12-2.2,21.7-8.7,30.6-16.9c15.1-14.2,33-19,53.4-15.2
			c11.5,2.1,20.7,8.3,29.7,15.3c0,79.4,0,158.7,0,238.1c-2.7,0.1-5.3,0.4-8,0.4c-190,0-380,0-570,0
			C19.2,639.6,16.5,639.3,13.9,639.2z M233.9,515.3c0.1,26.9,14,49.8,38.6,60.4c21.4,9.2,43.4,9.7,65.2,1.3
			c23.3-8.9,36.6-26.2,41-50.8c3.6-20-2-37.7-12.7-54.2c-10.2-15.8-23.3-29.2-37.3-41.5c-2.6-2.2-5.5-4.2-5.3-8.3
			c0.1-2.4-1.3-3.5-3.7-2.9c-8.7,1.9-17.4,1.9-26.1,0c-2.1-0.4-3.6,0.6-3.5,2.6c0.3,4.4-2.7,6.4-5.4,8.8c-14,12.1-27,25.3-37,41
			C239.7,484.5,233.6,497.9,233.9,515.3z"/>
		<path fill="#1ABC9C" d="M306.4,549.6c-4-0.4-8.7-0.4-13.2-1.3c-24.7-5.4-30.8-31.7-23.8-47.4c3.6-8.1,8.5-15.3,14.3-22
			c6.1-7.2,12.5-13.9,19.4-20.1c2.7-2.4,4.6-2.5,7.3-0.1c10.8,9.8,20.7,20.2,28.7,32.5c8.8,13.4,10.9,27.3,3,41.6
			C334.5,546.2,321.2,549.3,306.4,549.6z"/>
	</g>
	<path display="inline" fill="none" d="M1467.6,472.7c-1-0.6-1.3-1.9-0.7-2.9l2.5-3.9c0.6-1,1.9-1.2,2.9-0.7l66,39.2
		c1,0.6,1.3,1.9,0.7,2.9l-2.5,3.9c-0.7,1-1.9,1.3-2.9,0.7L1467.6,472.7z"/>
	<path display="inline" fill="none" d="M1547.1,398.5c-1-0.7-1.3-2-0.8-3.1l2.6-4.3c0.7-1,2-1.3,3.1-0.8l69,42.1
		c1,0.7,1.3,2,0.8,3.1l-2.6,4.3c-0.7,1-2,1.3-3.1,0.8L1547.1,398.5z"/>
	<path display="inline" fill="none" d="M1634.6,433V642h-620.4l137.1-111.6l246.5-43.5l30.5-36.9l23.6,13.8l-2,3.3
		c-0.6,1-0.3,2.2,0.7,2.9l87.4,52c1,0.6,2.4,0.3,2.9-0.7l10.3-16.5c0.6-1,0.3-2.2-0.7-2.9l-87.4-52c-1-0.6-2.4-0.3-2.9,0.7l-6.1,9.8
		l-23.2-13.5l63.3-76.8l36.4,19l-2.1,3.5c-0.7,1-0.3,2.5,0.8,3.1l91.5,55.9c1,0.7,2.5,0.3,3-0.8L1634.6,433z"/>
	<polygon display="inline" fill="none" points="1417.5,443.8 1391.8,474.2 1158,519.1 1234.5,456.9 1337.9,456.9 1352,405.5 	"/>
	<polygon display="inline" fill="none" points="1484.6,365 1420.4,440.6 1353.1,401.3 1378.5,309.7 	"/>
	<polygon display="inline" fill="none" points="1549.2,178.1 1511.6,333.2 1487.6,361.6 1379.8,305.2 1395.5,248.6 	"/>
	<path display="inline" fill="none" d="M1634.6,143.7v286.6c-0.2-0.2-0.3-0.4-0.7-0.6l-91.5-55.9c-1-0.7-2.5-0.3-3,0.8l-6.4,10.5
		l-35.9-18.7l24.3-29.4l41.9-167.1L1634.6,143.7z"/>
	<path display="inline" fill="none" d="M1621.9,435.6l-2.6,4.3c-0.7,1-2,1.3-3.1,0.8l-69-42.1c-1-0.7-1.3-2-0.8-3.1l2.6-4.3
		c0.7-1,2-1.3,3.1-0.8l69,42.1C1622.2,433.3,1622.6,434.6,1621.9,435.6z"/>
	<path display="inline" fill="none" d="M1539,507.3l-2.5,3.9c-0.7,1-1.9,1.3-2.9,0.7l-66-39.2c-1-0.6-1.3-1.9-0.7-2.9l2.5-3.9
		c0.6-1,1.9-1.2,2.9-0.7l66,39.2C1539.3,505,1539.6,506.3,1539,507.3z M1538.3,504.4l-66-39.2c-1-0.6-2.4-0.3-2.9,0.7l-2.5,3.9
		c-0.7,1-0.3,2.2,0.7,2.9l66,39.2c1,0.6,2.4,0.3,2.9-0.7l2.5-3.9C1539.6,506.3,1539.3,505,1538.3,504.4z"/>
</g>
<g id="talud" display="none">
	<path display="inline" fill="#1ABC9C" d="M589.1,184.3L363.3,291l-9.2,33c-0.3-0.2-0.8-0.3-1.1-0.3l-8.1-1.6
		c-2.5-0.4-4.9,1.1-5.4,3.6l-1.8,9.1l-3.5-1.7c-0.3-0.1-0.6-0.2-0.9-0.2c-0.8,0-1.5,0.4-1.8,1.1c-0.4,1-0.1,2.1,0.9,2.7l4.5,2.1
		l-3.1,16.1c-0.4,2.5,1.1,4.9,3.6,5.4l6.3,1.2l-12.4,44.1l-5.8-1.5c-2.5-0.7-4.9,0.9-5.6,3.4l-3,12l-5.7-2.7
		c-0.3-0.1-0.6-0.2-0.9-0.2c-0.8,0-1.5,0.4-1.8,1.1c-0.4,1,0,2.1,0.9,2.7l6.4,3l-3.4,12.9c-0.7,2.5,0.9,4.9,3.4,5.6l4.9,1.2
		l-6.9,24.5h-91.2L13.9,644.3v10.5h584.4V184.3H589.1z M378,297.1L506.9,244l-34.6,125.2l-15.5,24.2l-92.2-47.5L378,297.1z
		 M521.9,555.2l-75.3-41l5.4-11.8l-58.6-33.5l-24.8,35.2L183,532.4l45.1-41.8l99.2-4.8l11.6-48.6l54.4,31.7l4.8-5.6l-57-32.3
		l21.8-78.2l89.5,46.6l-54.3,63.7l58.3,31.9l6-8.4l74.7,45L521.9,555.2z M569.5,476.3L501,439.6l4.8-10.6l-53.4-30.1l4.4-5.1
		l53.1,28.5l5.4-7.5l68,40.2L569.5,476.3z"/>
	<path display="inline" fill="#1ABC9C" d="M572.7,459l-54.7-32.9c-0.9-0.6-2.1-0.2-2.7,0.7l-2.2,3.8c-0.6,0.9-0.2,2.1,0.7,2.7
		l54.7,32.9c0.9,0.6,2.1,0.2,2.7-0.7l2.2-3.7C573.9,460.8,573.6,459.6,572.7,459z"/>
	<path display="inline" fill="#1ABC9C" d="M525.8,540.1l-2.1,3.5c-0.6,0.9-1.7,1.1-2.6,0.6L463,509.6c-0.9-0.6-1.1-1.7-0.6-2.6
		l2.1-3.5c0.6-0.9,1.7-1.1,2.6-0.6l58.1,34.6C526,538.1,526.4,539.2,525.8,540.1z"/>
</g>
<g id="alianza" display="none">
	<g display="inline">
		<path fill="#1ABC9C" d="M252,544.9c-5.1-0.3-10.1,1.5-14.2,5.2c-3.9,3.6-5.7,2.4-7.2-2c-1.2-3.7-3.6-6.9-6.5-9.4
			c-11.6-10.3-27.1-9.2-36.6,3c-4.7,6-8.9,12.3-13.2,18.5c-2.2,3.3-4,3.4-6.5,0.2c-12.3-15.4-24.5-30.8-36.9-46
			c-2.8-3.4-1.2-6,0.4-8.9c16-27.6,31.9-55.3,47.9-82.9c4.4-7.6,8.9-15.2,13.2-22.9c1.9-3.4,3.8-4.6,7.9-3.1
			c17.6,6.5,35.4,12.7,53.2,19c4.5,1.6,5.1,3.4,1.5,6.6c-7.2,6.7-14.2,13.6-21.2,20.5c-2,1.9-3.5,3.8-3.6,6.9
			c-0.8,17.8-1.9,35.5-2.4,53.3c-0.3,14.2,8.7,20.8,22.5,17.5c12.5-2.9,21.9-9.8,27.9-21.1c3.8-7.2,7.4-14.6,11-21.9
			c1.5-3.1,3.6-5.3,6.7-6.7c7.1-3.1,14-6.6,21.7-8.5c8.5-2.1,16.6-1.5,24.3,3c40,23.2,80,46.3,120,69.6c11.9,7,14.4,19.7,6.2,30.2
			c-6.3,8.1-16,10.1-25.9,4.6c-11.6-6.5-23-13.4-34.5-20c-1.6-0.9-3.3-1.8-4.9-2.5c-1-0.4-2-0.1-2.6,0.9c-0.6,1-0.4,2.1,0.3,2.8
			c1.2,1,2.6,1.9,4,2.8c15.2,8.9,30.5,17.6,45.5,26.6c9.8,5.8,12.7,15.6,8.2,25.3c-5.3,11.5-17,15.5-28.2,9.2
			c-15.8-9-31.5-18.3-47.3-27.3c-2.5-1.3-6.2-5.1-8-1.9c-2.2,3.9,3.1,4.7,5.6,6.2c11.6,7,23.4,13.6,34.8,20.6
			c7.3,4.5,10.7,11.2,8.9,19.9c-1.8,8.8-7.1,14.6-15.8,16.9c-5.8,1.5-10.9-0.8-15.7-3.6c-12-7-24.1-14-36.1-21
			c-1-0.7-2.1-1.2-3.1-1.8c-1.7-0.9-3.6-1.8-4.7,0.4c-1,2,0.8,2.9,2.2,3.7c9,5.3,18,10.6,27,15.8c1.6,0.9,3.3,1.8,4.7,2.8
			c9.8,6.7,12,17.4,5.7,27.4c-6,9.6-16.6,12.4-26.6,6.7c-9.1-5.1-18-10.6-27.1-15.6c-3.3-1.8-3.4-3.7-2.1-7
			c6.1-17.3-4.3-32.9-22.8-34.4c-5.1-0.3-6.1-1.3-3.3-6.1c10.5-17.8-0.7-37.9-21.4-38.2c-5.4-0.1-6.9-1.3-6.5-6.9
			C279.2,556.8,267.1,544.9,252,544.9z"/>
		<path fill="#1ABC9C" d="M232.5,501.6c0.7-16.2,1.3-32.3,2-48.4c0.1-3,1.2-5.5,3.4-7.5c12-11.5,23.5-23.4,35.9-34.4
			c16.2-14.4,34.4-19.6,55.6-14.7c16.5,3.7,33.4,6.4,50.4,6.6c17.1,0.2,33.8-2,50.2-6.6c4.6-1.2,7.1-0.4,9.4,3.7
			c19.9,34.8,40,69.6,60.1,104.2c2.6,4.4,2,6.6-2.7,8.9c-9.4,4.4-18.8,9.2-27.9,14.2c-3.7,2-6.6,1.8-10.2-0.3
			c-37.1-21.6-74.5-42.9-111.5-64.7c-11.9-7-23.7-8.4-36.3-3.6c-6.9,2.6-13.5,5.8-20.3,8.7c-3.1,1.3-4.5,4-5.8,6.7
			c-4.7,9.3-8.7,19-14.6,27.6c-5.5,8-13.3,12-22.4,13.7C237.4,517.3,232.1,512.5,232.5,501.6z"/>
		<path fill="#1ABC9C" d="M104,528.2c-6.1,0-9.8-1.8-13.3-3.9c-12.3-7.1-24.5-14.2-36.6-21.2c-13.2-7.6-15.3-15.7-7.6-29
			c21.8-37.8,43.6-75.5,65.4-113.2c2.9-4.9,5.6-10,8.7-14.8c5.4-8.4,14-11.1,22.8-6.4c14.9,8.1,29.7,16.6,44.2,25.4
			c8.7,5.2,10.5,14.6,5.1,24.2c-11.2,19.8-22.6,39.3-33.9,59c-13.5,23.4-27.1,46.8-40.5,70.1C114.4,524.5,109.4,527.9,104,528.2z"/>
		<path fill="#1ABC9C" d="M529.3,528.2c-7.4-0.3-12.4-4.2-16.1-10.6c-19.6-34.1-39.2-68.1-58.9-102.1C449.1,406.7,444,398,439,389
			c-5.6-10-3.5-18.9,6.3-24.7c13.8-8.3,27.9-16.4,42-24.2c9.7-5.4,18.7-2.9,24.2,6.6c25.1,43.2,50,86.4,74.9,129.7
			c6.1,10.6,3.5,19.4-6.9,25.6c-13.2,7.9-26.5,15.4-39.8,23C536.5,526.9,533.1,528.2,529.3,528.2z"/>
		<path fill="#1ABC9C" d="M124.4,299.4c-25.2,0-50.4-0.1-75.5,0.1c-5.3,0-7.3-1.2-6.4-7c4.5-31.9,21.5-54.6,50.9-67
			c28.9-12.3,56.6-7.9,81.7,10.8c18.8,14,29.1,33.2,32.3,56.5c0.7,5.5-1.1,6.7-6.2,6.7C175.6,299.3,150,299.4,124.4,299.4z"/>
		<path fill="#1ABC9C" d="M506.5,299.4c-25,0-49.9,0-74.9,0c-7.9,0-8-0.2-7-8c5.1-40.1,39.5-71.6,79-72.5
			c41.9-0.9,77.7,28.1,84.9,68.8c2,11.7,2,11.7-9.7,11.7C554.7,299.4,530.5,299.4,506.5,299.4z"/>
		<path fill="#1ABC9C" d="M315.7,299.4c-25,0-49.9,0-74.9,0c-7.5,0-8.3-0.9-7.3-8.1c6-42,41.4-72.7,83.6-72.4
			c40.7,0.3,76.5,32.7,81.2,73.2c0.6,5.2-0.7,7.4-6.4,7.4C366.4,299.2,341.1,299.4,315.7,299.4z"/>
		<path fill="#1ABC9C" d="M315.7,213.6c-21.6,0-39.3-17.8-39.3-38.9c0.1-21.5,18.3-39.6,39.8-39.3c21.2,0.2,39.1,18.3,39,39.5
			C355.1,196.2,337.2,213.7,315.7,213.6z"/>
		<path fill="#1ABC9C" d="M467.7,174.4c0.1-21.5,17.6-39.1,39.1-39c21.4,0,39,17.8,39,39.2c0,21.9-17.8,39.6-39.5,39.2
			C484.5,213.5,467.6,196.2,467.7,174.4z"/>
		<path fill="#1ABC9C" d="M163.9,174.7c0,21.7-17.3,39-39,39c-21.8,0-39.2-17.6-39.1-39.6c0.1-21.4,18-39,39.3-38.8
			C146.6,135.5,163.9,153.2,163.9,174.7z"/>
		<path fill="#1ABC9C" d="M273.2,569.6c0.2,4.5-1.3,8.4-3.9,12c-12.6,17.9-25,35.9-37.7,53.6c-7.3,10.1-18.3,12-27.9,5.4
			c-9.9-6.9-11.9-18.1-4.8-28.4c12.7-18.3,25.5-36.5,38.4-54.6c5.4-7.5,13.3-9.7,21.7-6.9C267.5,553.6,273.1,561.2,273.2,569.6z"/>
		<path fill="#1ABC9C" d="M254.9,667.8c-8.4-0.3-14.7-4-18.9-11c-4-6.9-3.5-13.7,1-20.1c10.8-15.4,21.5-30.9,32.5-46.1
			c6.7-9.2,17.8-10.6,27.1-4c9.2,6.4,11.8,17.6,5.5,26.9c-10.6,15.5-21.5,30.8-32.4,46.2C266.2,664.7,261,667.4,254.9,667.8z"/>
		<path fill="#1ABC9C" d="M206.5,536.8c16.6,0.2,26.2,16.9,17.5,30.5c-7.5,11.8-15.8,23.3-24.4,34.5c-6.3,8.3-16.9,9.4-25.9,3.7
			c-9.1-6-12.7-16.5-7-25.5c8.1-12.7,17.1-25,26-37.1C196.1,538.4,201.3,536.4,206.5,536.8z"/>
		<path fill="#1ABC9C" d="M299,683.7c-16.6-0.2-26.4-17.2-18.1-30.7c3.7-6.1,7.9-11.9,12.3-17.5c7.5-9.6,18-11,27.5-4.2
			c9.3,6.7,11.4,17.5,4.8,27.5c-3.7,5.6-7.6,11.1-11.7,16.5C310,680.4,304.9,683.6,299,683.7z"/>
	</g>
</g>
<g id="paisajismo" display="none">
	<g display="inline">
		<path fill="#1ABC9C" d="M133.6,337.2c77-0.1,139.3,19.8,196.2,56.9c4.9,3.3,9,3.9,14.6,1.9c13-4.7,26.5-8.1,40.2-10.6
			c9.7-1.8,5.7-8.7,6.5-13.8c0.8-5.8-3.5-5.4-7.2-5.7c-15.5-1.8-31-3.8-45.4-10.6c-26.5-12.4-33.3-34.3-18.7-59.8
			c4.8-8.4,11-15.8,17.6-23c9.9-10.9,10.9-16.4,2.1-27.9c-12.8-16.5-10.7-32.3-0.2-48.8c15.7-25,31.1-50.1,46.5-75.3
			c7.3-11.9,15.2-12.5,24.3-1.5c14.8,18.1,29.9,36.2,44.8,54.4c21.7,26.4,29.1,56.8,23.5,90.4c-1.6,9.4,0.1,16.1,8.8,21.8
			c14.8,9.9,20.7,24.4,16.9,37.8c-2.6,9.3-8.8,16.2-16.5,21.7c-16.7,12-36.2,16.7-56.2,19.7c-3.3,0.4-6.5,1.1-9.8,1.1
			c-4.6,0-6.1,1.9-6.1,6.4c0,8.9,0.1,9.6,9.2,8.9c16.3-1.1,32.6-1.8,48.9-1.2c30.1,0.9,59.5,5.8,88.1,15.4c6.7,2.2,10,6.4,10.1,13.5
			c3.3,121.6-80.3,232.4-198.8,261.8c-88.3,21.9-168.3,2.6-237.9-55.7c-54.4-45.3-84.2-104.5-91.8-174.9
			c-2.9-26.9-1.3-53.6,4.3-80.1c1.5-6.9,5.1-11.1,12.4-12.8C87.2,340.9,114.5,336.6,133.6,337.2z M450.6,401.9
			c-14.3,0.9-31.5,1-48.4,4.2c-113.5,20.8-195.7,82.7-245.7,187c-2.5,5.2-1.8,8,2.8,11.4c35,25.3,73.3,41.7,116.2,47.4
			c4.4,0.6,6.3-0.9,7.9-4.7c12.9-30.7,30.6-58.6,51.1-84.5c7.1-9,14.4-17.9,22.6-25.9c4.7-4.6,11-4.7,15.4-0.7
			c4.5,4,4.8,10.2,0.9,15.4c-1.6,2.1-3.4,4-5.1,6.1c-22.8,25.4-41.2,53.8-56.4,84.3c-6.3,12.6-6.3,12.7,7.8,12
			c60.5-3,112.3-26,155.3-68.3c32.6-32.1,53.2-70.9,62.3-115.8c0.8-3.8,2-8.2-4.7-6.4c-32.4,8.2-63.5,19.8-92.8,35.7
			c-6.6,3.6-13.5,1.1-15.2-6.1c-1.6-6.6,0.7-11.5,7.4-15.3c17.1-9.7,35-17.6,53.3-24.7c18-7,36.6-10.8,55.2-15.4
			c9-2.2,5.8-9.3,6.9-14.8c1-5.7-3-6.9-7.2-8.2C511.9,405.7,482.9,402.6,450.6,401.9z M132.7,357.7c-14-0.7-33.8,2.5-53.5,6.1
			c-14.2,2.6-12.4-0.2-15.2,15.8c-2.5,14.6-2.4,14.5,12,18.9c26.5,8.2,52.9,16.7,76.9,31.2c4.5,2.7,8,6.1,9.2,11.5
			c1.1,4.6-0.4,8.2-3.6,11.4c-3.1,3-6.5,1.9-9.8,0.3c-8.3-3.9-16.6-8.2-25-12c-17-7.9-34.2-15.3-52.3-20.2c-4.4-1.2-7.6-1.7-6.4,4.9
			c1.1,5.8,0.9,11.8,1.7,17.8c6.6,49.9,26.5,93.7,60.9,130.7c7.6,8.2,7.5,8,12.6-2.1c36.1-72.3,90.3-126.3,163.1-161.4
			c1.7-0.8,4.5-0.9,4.4-3.3c-0.1-2-2.8-2.6-4.4-3.6C252.8,373.1,197.8,358.3,132.7,357.7z M413.3,253.8c2-1.9,2.9-2.6,3.7-3.4
			c6.7-6.3,12.1-6.9,17.3-1.9c5.3,5.2,4.7,11.1-1.8,17.9c-5.3,5.4-10.6,10.7-15.8,15.8c-1.9,1.9-3.3,3.9-3.3,6.9
			c0.1,17.2,0.1,34.4,0,51.5c0,3.4,1.3,5.1,4.7,4.7c18.2-2,36.4-4.5,52.4-14.5c17-10.7,12.6-16.3,1.8-23.9c-0.3-0.2-0.7-0.6-1-0.9
			c-16.7-10.9-19.6-27-16.9-45.2c3.5-24.5-0.3-47.1-15.6-67.4c-11.7-15.5-23.7-30.7-35.1-46.3c-3.1-4.4-4.3-3.4-6.6,0.4
			c-12.9,21-25.9,42-39.2,62.7c-4.7,7.2-5.2,13-0.2,20.5c12.8,18.8,12.6,34.2-0.2,51.9c-3,4.3-6.6,8.2-10.1,12.1
			c-3.7,4.2-7.2,8.3-9.8,13.3c-6.1,11.8-4.2,18.5,7.1,25.4c13,7.8,27.6,9.9,42.3,11.9c3.1,0.4,4.3-1.2,4.4-4.3
			c0.6-11.6,1-22.8-10.6-30.3c-3.8-2.5-6.7-6.3-9.9-9.7c-4.9-5.4-5.4-10.5-1.5-15.4c3.9-4.8,9.7-5.4,15.8-1.6c1.6,1,3.1,3.3,5.1,2
			c1.8-1.1,0.9-3.7,0.9-5.6c0.1-19.6,0-39.2,0.1-58.8c0-8.1,4.8-13.5,11.4-13.4c6.6,0.1,10.6,4.8,10.7,13.2
			C413.4,231.6,413.3,242,413.3,253.8z"/>
		<path fill="#1ABC9C" d="M222.3,285.5c-23.9,0-42.6-18.8-42.6-42.7c0-24.3,18.9-42.9,43.2-42.8c23.8,0.1,42.4,19,42.3,43
			C265.1,266.8,246.4,285.5,222.3,285.5z M243,242.5c-0.1-11.6-9.1-20.6-20.7-20.5c-11.6,0.1-20.6,9.1-20.5,20.7
			c0.1,11.6,9.2,20.6,20.7,20.5C234.2,263.2,243.1,254.1,243,242.5z"/>
		<path fill="#1ABC9C" d="M413.3,508.9c0,8.8-15.3,21.4-23.7,19.7c-3.9-0.8-6.6-3.1-7.9-7.1c-1.5-4.6-0.3-9,3-12.1
			c4.2-3.8,8.9-7.3,14.2-9.6C406,496.8,413.4,501.5,413.3,508.9z"/>
		<path fill="#1ABC9C" d="M184,473.9c-6-0.1-13.5-8.4-13.2-14.4c0.2-5.1,6.3-10.5,11.9-10.5c5.7,0,13.3,8.3,13,14.5
			C195.7,468.9,189.7,474.1,184,473.9z"/>
	</g>
</g>
<g id="reforestacion" display="none">
	<g display="inline">
		<path fill="#1ABC9C" d="M427.9,118.7c6.1,3.4,7.6,8.7,8.2,15.4c1.3,18.1-0.4,35.9-5.1,53.3c-9.6,35.7-33,57.3-68.4,66.5
			c-12.7,3.3-25.6,4.7-38.7,5.2c-3.8,0.1-5.5,1.2-5.5,5.3c0.1,62.2,0.1,124.3,0.1,186.6c0,0.7,0.1,1.3,0.2,2.5
			c8.2-8,16.2-15.7,24.2-23.5c1.3-1.2,0.8-3,0.4-4.6c-10.8-62.9,9.4-114.8,56.5-156.9c6.1-5.5,12.5-10.6,19.4-14.8
			c6.9-4.3,13.5-3.3,17.2,2.4c3.5,5.3,1.9,12.3-4.4,16.5c-19.3,13.4-36,29.2-48.3,49.3c-11.8,19.2-18.4,40-19.9,62.5
			c-0.4,7.8-1.6,15.5,0.6,23.3c2.2-0.3,3.3-2.2,4.5-3.6c23.2-23,46.2-46.1,69.2-69.2c1-1,2-2,3-3c5.8-5.6,12.6-6.2,17.4-1.6
			c4.9,4.7,4.5,11.9-1.3,17.8c-23.9,24.1-47.9,48-71.9,71.9c-1.3,1.3-2.7,2.8-4.7,4.9c10.9,1.8,21.2,1.7,31.1,0
			c61.7-10.1,101.6-46.1,121.3-104.9c6.6-19.9,6.9-40.6,3.4-61.3c-0.7-3.9-2.2-5.6-6.2-6c-6-0.4-11.9-1.2-17.8-1.9
			c-1.5-0.1-2.9-0.1-4.4-0.3c-7.4-1.1-11.5-5.7-11.1-12.3c0.3-6.2,4.9-10.5,12.3-10.7c8.3-0.2,16.6,1.1,24.8,2.4c3,0.4,6,1.3,9,1.9
			c8.9,1.3,12.8,6.7,14.5,15.2c12.9,64.4-7.1,117.7-55.3,160.7c-33.9,30.3-74.2,43.6-119.6,40.8c-6.1-0.3-12.3-1.6-18.2-2.7
			c-2.7-0.4-4.8-0.2-6.9,1.9c-11,11.1-22,22.1-33,33c-3,2.9-1.5,3.6,1.6,4.3c25.5,5.2,45.7,18.7,60.6,39.9c1.7,2.5,3.6,3.9,6.7,3.5
			c11.6-1.5,23.2-1.2,34.7,0c1.3,0.1,3.3,0.7,4-0.8c0.9-1.7-0.7-3-1.7-4.3c-4.2-5.3-9.7-7.9-16.4-8.5c-8-0.8-12.1-5.6-11.5-12.8
			c0.7-6.4,5.6-10,13.4-9.7c2.4,0.1,4.7,0.2,7,0.8c7.5,1.8,14.5,4.8,20,10.5c2.7,2.7,4.4,2.6,7.1,0c7.6-7.2,16.9-11,27.5-11.2
			c7.3-0.2,12.1,3.5,12.8,9.7c0.7,7.1-3.4,12.1-10.9,12.8c-8.7,0.8-15.2,4.5-19.2,12.3c-2.7,5.3-1.9,7.1,3.6,8.8
			c25.2,7.8,47.5,20.6,67.1,38.1c26.5,23.6,44.6,52.6,54.6,86.7c2.5,8.7-2.5,15.1-11.7,15.3c-0.7,0-1.5,0-2.1,0
			c-176.2,0-352.4,0-528.6,0.1c-6.2,0-11-1.5-14.2-7c0-2.9,0-5.8,0-8.7c5.5-16.4,12-32.1,21.4-46.9c23.5-36.9,55.9-62.3,97.1-76.4
			c9.8-3.4,10.8-6.6,3.9-14.6c-4-4.7-9.2-6.9-15.2-7.5c-8.3-0.9-12.4-5.3-11.9-12.5c0.4-6.6,5.5-10.3,13.5-10
			c10.2,0.3,19.1,4,26.5,11c2.8,2.6,4.5,3,7.5,0.2c7.8-7.4,17.3-11.1,28.1-11.2c6.9-0.1,11.6,3.8,12.1,9.9c0.7,6.9-3.4,12-10.5,12.6
			c-7.5,0.7-13.6,3.6-18.1,9.6c-0.7,1-1.8,2.1-0.9,3.4c0.7,1,2,0.8,3,0.7c12.3-1.3,24.6-1.5,36.9-0.1c2.6,0.3,3.9-1.3,5.2-3.1
			c15.5-22.5,36.8-36.1,63.6-40.8c3.8-0.7,5.1-2.1,5.1-6.1c-0.2-18.7-0.1-37.3,0-56c0-4-0.8-5.3-5.3-4.6
			c-91.4,15.1-170.8-55.3-182.1-133.6c-2.9-20.1-1.9-40.1,2.9-59.9c1.5-6.2,5.1-9.8,11.1-11.2c33.5-8.1,66.2-5.6,97.8,8.2
			c30,13.2,53.6,33.9,72,60.9c0.4,0.8,1.1,1.5,1.7,2.1c0.1,0.1,0.3,0.1,0.6,0.1c1.1-1.6,0.6-3.5,0.6-5.2c0.1-17.1-0.2-34.1,0.1-51.1
			c0.3-19.2,4.4-37.8,12.6-55.2c13.3-28.1,36.6-43,65.9-50.1c7.2-1.7,14.5-2.8,21.8-4.2C406.8,118.7,417.3,118.7,427.9,118.7z
			 M337,653.4c71.9,0,143.9,0,215.9,0c5.8,0,5.8,0,3.6-5.5c-6.3-14.9-14.7-28.7-25.5-40.9c-31-35.2-69.8-54.4-116.9-56.3
			c-9.8-0.4-19.6,0.2-29.3,1.2c-5.4,0.6-9.4-1.8-12.3-6.4c-1.1-1.9-2.2-3.7-3.4-5.6c-27.8-44.1-93.2-45.7-122.1-2.4
			c-7.4,11.2-14.5,15.1-28.1,13.7c-32.7-3.4-63.8,3.7-92.5,20.1c-31.7,18.2-55,44.1-69.3,77.7c-1.5,3.4-1.1,4.5,2.8,4.4
			c8.5-0.2,17.1-0.2,25.5,0c4.2,0.1,6.2-1.5,7.6-5.3c6.9-17.8,18-32.6,32.1-45.2c9.2-8.3,19.7-14.8,31-19.8
			c6.3-2.7,12.6-0.3,15.2,5.3c2.6,5.5,0.7,11.2-5.2,14.8c-1.7,1-3.5,1.9-5.3,2.8c-18.1,9.2-32.1,22.8-42,40.5
			c-3.6,6.4-3.5,6.6,3.7,6.6C194.1,653.4,265.6,653.4,337,653.4z M160.1,231.7c-7.2,0.2-14.5,0.2-21.7,1.5c-3.5,0.6-5.5,2.1-6.1,5.7
			c-2.4,15.7-2.6,31.5,0.6,47.1c13,65.4,72.8,112.8,139.5,110.7c1.7,0,4.3,0.7,4.8-1.2s-1.8-2.9-3-4.2c-18-18.1-36.1-36.2-54.2-54.3
			c-1.6-1.6-3.1-3-4.4-4.8c-3.4-4.7-3-10.5,0.8-14.4c3.8-4,9.6-4.7,14.4-1.6c1.9,1.2,3.7,2.9,5.3,4.6c18.2,18.2,36.4,36.4,54.6,54.5
			c1.1,1.1,2,3.3,3.7,2.6c1.7-0.6,1.3-2.8,1.3-4.4c0.3-8.5-0.2-17-1.3-25.5C286.3,286.8,226.4,229.8,160.1,231.7z M321.6,216.2
			c1.3-1.2,2.6-2.5,3.9-3.7c7.6-7.6,15.3-15.4,23-23c6.3-6.3,13.2-6.9,18.1-1.8c5.1,5.2,4.3,11.6-2.1,18.1
			c-4.9,5.1-9.9,10.1-14.9,14.9c-4.4,4.2-9,8.2-14.2,12.9c2.2,0.7,2.7,1,3.1,0.9c2.9-0.3,5.7-0.6,8.7-1c19.3-3.5,37.2-10,49.3-26.6
			c13.7-18.7,16.7-40.5,16.9-62.8c0-3.1-2.1-2.7-4.2-2.7c-8.5,0-17,0.8-25.3,2.6c-20.6,4.5-38.9,12.9-50.6,31.6
			C325.5,187.9,321.5,201.4,321.6,216.2z"/>
		<path fill="#1ABC9C" d="M454.5,244c0.1-6.2,5.3-11.1,11.6-11.2c6.3,0,11.9,5.6,11.7,11.8c-0.2,6.1-6.2,11.4-12.5,11.2
			C459.3,255.7,454.5,250.5,454.5,244z"/>
		<path fill="#1ABC9C" d="M205.2,595.3c-6.3-0.1-11.5-5.2-11.4-11.4c0-6.3,5.1-11,11.6-11.1c6.5,0,11.6,4.8,11.7,11
			C217,590.4,211.8,595.4,205.2,595.3z"/>
	</g>
</g>
<g id="revegetalizacion" display="none">
	<g display="inline">
		<path fill="#1ABC9C" d="M391,444c-8.9-14.2-31.2-41.6-73.1-46.1c-9.3-293,130.9-257.5,130.9-257.5c-66.3,19.4-93.7,72.7-93.7,72.7
			c111,15.3,118.5-66.1,118.2-89.4c0-3.6-2.4-6.9-5.7-8C330.2,70.3,305,290.9,305,290.9c-39.9-152.6-132.4-134.5-159.2-125.8
			c-4.3,1.5-6.7,6-5.6,10.3c31.1,119,124.3,87.9,124.3,87.9c-31.4-60.6-88.9-72.7-88.9-72.7c136.2,10.7,124.6,188,123.1,206.9
			c-55.4,2.2-69.7,29.9-79.6,44.4c-2.4,3.5-6.3,5.7-10.6,6.1c-14,1-48.4,5.5-58.7,27.2c0,0,32.4,27.5,77.7,51.7
			c32,17.2,58,51.3,70.5,69.8c3.7,5.4,11.8,5.2,15.1-0.6c11-19.8,33.7-55.3,56.8-62.7c42.9-13.8,92.2-58.2,92.2-58.2
			s-29.3-28-57.8-24.6C398.9,451.1,393.8,448.5,391,444z M220.2,489.7c-7.9,0-14.3-6.4-14.3-14.3s6.4-14.3,14.3-14.3
			s14.3,6.4,14.3,14.3S228.1,489.7,220.2,489.7z M290.2,415.3c3.8,0,7,3.1,7,7c0,3.8-3.1,7-7,7s-7-3.1-7-7
			C283.2,418.4,286.4,415.3,290.2,415.3z M276,538.2c-11.6,0-21-9.4-21-21c0-11.6,9.4-21,21-21c11.6,0,21,9.4,21,21
			C297.1,528.8,287.6,538.2,276,538.2z M311.3,465c-7.9,0-14.3-6.4-14.3-14.3s6.4-14.3,14.3-14.3s14.3,6.4,14.3,14.3
			S319.2,465,311.3,465z M376.1,513.2c-11.6,0-21-9.4-21-21c0-11.6,9.4-21,21-21c11.6,0,21,9.4,21,21
			C397.1,503.7,387.7,513.2,376.1,513.2z M427.7,468.4c3.8,0,7,3.1,7,7c0,3.8-3.1,7-7,7c-3.8,0-7-3.1-7-7
			C420.7,471.6,423.8,468.4,427.7,468.4z"/>
		<path fill="#1ABC9C" d="M30.7,417.7c-0.1-3.8,4.7-5.6,7.2-2.6c11.1,13.7,32.8,46.2,46.3,103.7c18.8,80,81.3,85.3,106.1,90.6
			c0,0,11.6-23.3-13.9-46.9c-23-21.4-42.6-35.4-46.5-69.2c-0.4-3.9,4.3-6.4,7.2-3.7c8.1,7.3,23.4,20.2,50.4,39.7
			c46.1,33.4,106.1,50.9,106.8,157c0,0-88.6,15.7-183.8-70.4C39.1,546.8,31.2,449.4,30.7,417.7z"/>
		<path fill="#1ABC9C" d="M581.3,417.7c0.1-3.8-4.7-5.6-7.2-2.6c-11.1,13.7-32.8,46.2-46.3,103.7c-18.8,80-81.3,85.3-106.1,90.6
			c0,0-11.6-23.3,13.9-46.9c23-21.4,42.6-35.4,46.5-69.2c0.4-3.9-4.3-6.4-7.2-3.7c-8.1,7.3-23.4,20.2-50.4,39.7
			c-46.1,33.4-106.1,50.9-106.8,157c0,0,88.6,15.7,183.8-70.4C572.9,546.8,580.8,449.4,581.3,417.7z"/>
	</g>
</g>
<g>
	<path fill="#1ABC9C" d="M422.7,194.4V93.5H153.1v101.7H18.6v437.7h309.8c0.6-3.4,1.7-7.1,3.3-11c1.5-3.4,3.3-6.4,5.1-8.9
		c-5.3-0.8-10.1-2.4-14.6-4.7c-4.3-2.2-8.1-5-11.2-8.3h-56v-66.7h50.2c6.7-11.3,18-19.1,31.5-21c-2.6-3.6-4.6-7.4-6-11.3h-109v98.5
		h-34.4V127.2h201.1v305.5c7,1.1,13.8,4,20,8.5c1.9-11.5,7.4-21.2,16-28.1V228.8h99.8v205.3c0.4-0.1,0.8-0.2,1.2-0.3
		c3.3-0.8,6.7-1.2,10-1.2c7.6,0,15.1,2,22.3,6V194.4H422.7z M152.3,599.7H52.2V228.9h100.1V599.7z"/>
	<rect x="222.1" y="195.8" fill="#1ABC9C" width="131.8" height="29.5"/>
	<rect x="222.6" y="297.8" fill="#1ABC9C" width="131.7" height="29.4"/>
	<rect x="222.7" y="400.1" fill="#1ABC9C" width="131.9" height="28.9"/>
	<rect x="86.7" y="297.2" fill="#1ABC9C" width="29.9" height="29.8"/>
	<rect x="86.5" y="399.7" fill="#1ABC9C" width="30.2" height="29.5"/>
	<rect x="86.1" y="501.6" fill="#1ABC9C" width="30.1" height="29.6"/>
	<rect x="459.2" y="297.9" fill="#1ABC9C" width="30.6" height="29.6"/>
	<path fill="#1ABC9C" d="M489.8,399.5v10.6c-4.6-2.9-9.7-5.1-15.1-6.2c-4.9-1-9.9-1.4-15-1.4H459v-3H489.8z"/>
	<path fill="#1ABC9C" d="M494.2,648.1c-2.8,1.6-5.3,3.4-7.1,5.9c-3.1,4.2-3.7,9-3.7,14c0,4.2,0.2,8.5-0.2,12.7
		c-0.7,7.5-4.8,12.4-12,14.7c-6.8,2.2-13.6,3.2-20.6,1.6c-7.4-1.7-12.3-5.9-14.8-13.1c-1.8-5.2-2.9-10.3-2.3-15.8
		c0.5-4.2,0.1-8.4-2-12.3c-3.9-7.3-16.7-12.7-25.6-4.4c-3.5,3.3-6.9,6.7-10.4,10c-3.6,3.4-7.7,5.6-12.7,6.1
		c-3.9,0.4-7.4-0.6-10.6-2.9c-5.8-4.3-11-9.3-15.2-15.2c-3.9-5.4-3.5-11.2-1-17c1.5-3.5,4.1-6.1,6.7-8.7c2.5-2.4,5-4.8,7.4-7.3
		c4.7-5,5.9-10.9,3.6-17.3c-2.4-6.5-7.2-10.2-14-10.9c-5.1-0.5-10.2-0.6-15.3-0.8c-3.4-0.2-6.8-0.7-9.8-2.3
		c-5.6-2.9-8.4-7.8-9.1-13.9c-0.7-5.9-0.8-11.8,0.2-17.6c1.5-8.6,7.9-14.6,16.6-15.3c5-0.4,10.1-0.2,15.2-0.3
		c4.9-0.2,9.4-1.5,12.9-5.1c6.2-6.5,6.3-16.4,0.2-23c-3.2-3.4-6.5-6.7-9.8-10c-7.4-7.6-7.9-16.7-2-25.3c3.9-5.5,8.5-10.3,14.4-13.6
		c7.5-4.1,14.6-2.9,21,2.4c3.8,3.1,7.2,6.7,10.7,10.1c7.9,7.9,17.6,6.3,24.2,0.8c3.1-2.7,4.7-6.3,4.9-10.4c0.2-4.9,0.2-9.7,0.3-14.6
		c0.2-7.3,2.8-13.5,9.3-17.3c2.2-1.3,4.8-2,7.2-2.4c6.3-1,12.6-1,18.9,0.2c7.3,1.4,13.1,7.7,13.9,15.1c0.4,3.1,0.3,6.2,0.3,9.3
		c0.1,4.7-0.1,9.4,1.3,14c2.9,9.3,16.8,15.6,26.3,7.2c3.5-3.1,6.7-6.6,10.1-10c2.8-2.8,6.1-5,10-6c5.5-1.3,10.4,0.2,15,3.1
		c5.1,3.2,9.4,7.4,13,12.3c5.9,8,5.2,17.6-1.7,24.8c-3.7,3.8-7.6,7.5-10.9,11.6c-6.7,8.3-4.3,17.9,2.2,23.5c3.5,3,7.7,3.9,12.2,3.9
		c4.8,0,9.6-0.2,14.3,0.3c10.2,1.2,16.3,7.7,17.2,18c0.5,5.5,0.5,11-0.5,16.4c-1.5,7.9-7.7,14-15.8,14.9c-4.2,0.5-8.5,0.5-12.7,0.3
		c-7.8-0.4-14.2,2.2-19.1,8.3c-0.1,0.1-0.2,0.2-0.4,0.3c-5.5-4.1-10.7-8.3-12.4-15.4c-0.9-3.7-0.9-7.3-0.3-11
		c2.8-19.4-2.1-36.8-13.9-52.3c-9.2-12.1-21.1-20.6-35.5-25.4c-7.8-2.6-15.8-3.4-24-3.2c-10.9,0.2-21.4,2.4-31.2,7.1
		c-22,10.6-35.3,28-40.4,51.8c-1.5,7-2,14.1-1.4,21.3c1.3,14.1,6.1,26.9,14.8,38.2c10.3,13.3,23.5,22.2,39.8,26.5
		c10.6,2.8,21.3,3,32.1,0.9c5-1,9.1,0.3,12.7,4C487.5,642.5,490.9,645.1,494.2,648.1"/>
	<path fill="#1ABC9C" d="M445.6,510.4c14-4,27.3-3.1,40,4.1c9.6,5.4,17.3,12.9,22.6,22.6c4.6,8.4,6.6,17.5,6.3,27.1
		c-0.2,6.1-1.2,12.1-3.3,17.8c-1.5,3.9-0.6,6.9,2.3,9.7c13.8,13.6,27.6,27.2,41.4,40.8c2.9,2.9,6,5.7,8.6,8.9
		c6.5,7.8,5.8,17.2-1.4,24.3c-2.8,2.7-5.9,4.9-9.7,5.7c-5.9,1.3-11.1-0.5-15.4-4.5c-6-5.7-11.9-11.5-17.8-17.3
		c-10.1-10.1-20.2-20.1-30.2-30.3c-3.9-4-7.9-5.2-13.2-3.2c-6.3,2.3-13,3.3-19.8,3.1c-12.5-0.4-23.2-5.1-32.6-13.1
		c-8.4-7.1-14.7-15.7-17.9-26.4c-2.5-8.3-2.8-16.7-1.5-25.3c0.1-0.6,0.3-1.3,0.2-1.9c0-1.5,1.1-2,2.1-2.4c0.3-0.1,1,0.3,1.4,0.7
		c6.2,6.5,12.4,13,18.7,19.5c4.4,4.4,9.5,7.5,15.7,8.6c9.1,1.6,16.9-1.4,23.4-7.6c4.7-4.4,8-9.6,9.1-16.1c1.2-7.3-0.6-13.9-5.1-19.6
		c-3.4-4.2-7.4-8-11.2-11.9c-3.9-4-7.8-8-11.8-12C446.3,511.4,446,510.9,445.6,510.4 M558.2,652.8c-0.2-6.1-3.8-9.1-9.6-9.3
		c-5.3-0.1-9.4,4.3-9.4,9.6c0,4.8,4.7,9.2,9.7,9.1C554.1,662.3,558.2,658,558.2,652.8"/>
</g>
</svg>
