<?xml version="1.0" encoding="utf-8"?>
<!-- Generator: Adobe Illustrator 18.1.1, SVG Export Plug-In . SVG Version: 6.00 Build 0)  -->
<svg version="1.1" id="Layer_1" xmlns="http://www.w3.org/2000/svg" xmlns:xlink="http://www.w3.org/1999/xlink" x="0px" y="0px"
	 viewBox="0 0 612 792" enable-background="new 0 0 612 792" xml:space="preserve">
<g id="siembra" display="none">
	<g display="inline">
		<path fill="#1ABC9C" d="M13.9,639.2c0-79.4,0-158.7,0-238.1c0.7-0.4,1.2-0.8,1.9-1.2c27.9-21.7,57.3-20.6,83.3,3.1
			c1.7,1.6,3.4,3,5.2,4.5c21.2,16.2,53.6,16.5,77.4-5.8c25.2-23.7,58.8-22.8,83.8,0.7c4.9,4.6,10.2,8.5,16.3,11.5
			c7,3.3,7.3,3,7.3-4.4c0-44.6,0-89.2,0-133.9c0-7.9-0.6-8.2-8.2-9c-24.1-2.5-47-8.7-67.2-22.1c-45.4-30.3-61.4-75.2-61.8-127.5
			c0-3.6,2.1-4.4,5.2-4.5c10.7-0.3,21.4,0.8,31.9,2.5c60.2,9.6,101.2,48.1,114.1,107.6c1.5,6.5,2.4,13.2,3.6,19.8
			c1.2-3.5,1.7-6.9,2.2-10.2c4.7-29.4,15.3-56.3,36.8-77.8c30.6-30.6,68.6-41.8,110.8-41.9c4,0,5.2,1.8,5.3,5.6
			c0.3,14.4-1.5,28.5-4.8,42.5c-10,40.6-31.6,72.4-69.9,91.2c-17.5,8.5-36.1,13.3-55.4,14.9c-5.2,0.4-7.2,2.4-7.2,7.8
			c0.2,45.4,0.1,90.8,0.1,136.2c0,5.8,0.6,6.2,5.7,3.9c7.6-3.3,13.9-8.5,20-14c14.6-13.4,31.9-18,51.4-14.6
			c13.2,2.2,23.5,9.3,33,18.1c14.6,13.5,32,17.9,51.5,14.2c12-2.2,21.7-8.7,30.6-16.9c15.1-14.2,33-19,53.4-15.2
			c11.5,2.1,20.7,8.3,29.7,15.3c0,79.4,0,158.7,0,238.1c-2.7,0.1-5.3,0.4-8,0.4c-190,0-380,0-570,0
			C19.2,639.6,16.5,639.3,13.9,639.2z M233.9,515.3c0.1,26.9,14,49.8,38.6,60.4c21.4,9.2,43.4,9.7,65.2,1.3
			c23.3-8.9,36.6-26.2,41-50.8c3.6-20-2-37.7-12.7-54.2c-10.2-15.8-23.3-29.2-37.3-41.5c-2.6-2.2-5.5-4.2-5.3-8.3
			c0.1-2.4-1.3-3.5-3.7-2.9c-8.7,1.9-17.4,1.9-26.1,0c-2.1-0.4-3.6,0.6-3.5,2.6c0.3,4.4-2.7,6.4-5.4,8.8c-14,12.1-27,25.3-37,41
			C239.7,484.5,233.6,497.9,233.9,515.3z"/>
		<path fill="#1ABC9C" d="M306.4,549.6c-4-0.4-8.7-0.4-13.2-1.3c-24.7-5.4-30.8-31.7-23.8-47.4c3.6-8.1,8.5-15.3,14.3-22
			c6.1-7.2,12.5-13.9,19.4-20.1c2.7-2.4,4.6-2.5,7.3-0.1c10.8,9.8,20.7,20.2,28.7,32.5c8.8,13.4,10.9,27.3,3,41.6
			C334.5,546.2,321.2,549.3,306.4,549.6z"/>
	</g>
</g>
<g id="Siembra_blanco" display="none">
	<g display="inline">
		<path fill="#FFFFFF" d="M13.9,639.2c0-79.4,0-158.7,0-238.1c0.7-0.4,1.2-0.8,1.9-1.2c27.9-21.7,57.3-20.6,83.3,3.1
			c1.7,1.6,3.4,3,5.2,4.5c21.2,16.2,53.6,16.5,77.4-5.8c25.2-23.7,58.8-22.8,83.8,0.7c4.9,4.6,10.2,8.5,16.3,11.5
			c7,3.3,7.3,3,7.3-4.4c0-44.6,0-89.2,0-133.9c0-7.9-0.6-8.2-8.2-9c-24.1-2.5-47-8.7-67.2-22.1c-45.4-30.3-61.4-75.2-61.8-127.5
			c0-3.6,2.1-4.4,5.2-4.5c10.7-0.3,21.4,0.8,31.9,2.5c60.2,9.6,101.2,48.1,114.1,107.6c1.5,6.5,2.4,13.2,3.6,19.8
			c1.2-3.5,1.7-6.9,2.2-10.2c4.7-29.4,15.3-56.3,36.8-77.8c30.6-30.6,68.6-41.8,110.8-41.9c4,0,5.2,1.8,5.3,5.6
			c0.3,14.4-1.5,28.5-4.8,42.5c-10,40.6-31.6,72.4-69.9,91.2c-17.5,8.5-36.1,13.3-55.4,14.9c-5.2,0.4-7.2,2.4-7.2,7.8
			c0.2,45.4,0.1,90.8,0.1,136.2c0,5.8,0.6,6.2,5.7,3.9c7.6-3.3,13.9-8.5,20-14c14.6-13.4,31.9-18,51.4-14.6
			c13.2,2.2,23.5,9.3,33,18.1c14.6,13.5,32,17.9,51.5,14.2c12-2.2,21.7-8.7,30.6-16.9c15.1-14.2,33-19,53.4-15.2
			c11.5,2.1,20.7,8.3,29.7,15.3c0,79.4,0,158.7,0,238.1c-2.7,0.1-5.3,0.4-8,0.4c-190,0-380,0-570,0
			C19.2,639.6,16.5,639.3,13.9,639.2z M233.9,515.3c0.1,26.9,14,49.8,38.6,60.4c21.4,9.2,43.4,9.7,65.2,1.3
			c23.3-8.9,36.6-26.2,41-50.8c3.6-20-2-37.7-12.7-54.2c-10.2-15.8-23.3-29.2-37.3-41.5c-2.6-2.2-5.5-4.2-5.3-8.3
			c0.1-2.4-1.3-3.5-3.7-2.9c-8.7,1.9-17.4,1.9-26.1,0c-2.1-0.4-3.6,0.6-3.5,2.6c0.3,4.4-2.7,6.4-5.4,8.8c-14,12.1-27,25.3-37,41
			C239.7,484.5,233.6,497.9,233.9,515.3z"/>
		<path fill="#FFFFFF" d="M306.4,549.6c-4-0.4-8.7-0.4-13.2-1.3c-24.7-5.4-30.8-31.7-23.8-47.4c3.6-8.1,8.5-15.3,14.3-22
			c6.1-7.2,12.5-13.9,19.4-20.1c2.7-2.4,4.6-2.5,7.3-0.1c10.8,9.8,20.7,20.2,28.7,32.5c8.8,13.4,10.9,27.3,3,41.6
			C334.5,546.2,321.2,549.3,306.4,549.6z"/>
	</g>
</g>
<g id="reforestacion" display="none">
	<g display="inline">
		<path fill="#1ABC9C" d="M427.9,118.7c6.1,3.4,7.6,8.7,8.2,15.4c1.3,18.1-0.4,35.9-5.1,53.3c-9.6,35.7-33,57.3-68.4,66.5
			c-12.7,3.3-25.6,4.7-38.7,5.2c-3.8,0.1-5.5,1.2-5.5,5.3c0.1,62.2,0.1,124.3,0.1,186.6c0,0.7,0.1,1.3,0.2,2.5
			c8.2-8,16.2-15.7,24.2-23.5c1.3-1.2,0.8-3,0.4-4.6c-10.8-62.9,9.4-114.8,56.5-156.9c6.1-5.5,12.5-10.6,19.4-14.8
			c6.9-4.3,13.5-3.3,17.2,2.4c3.5,5.3,1.9,12.3-4.4,16.5c-19.3,13.4-36,29.2-48.3,49.3c-11.8,19.2-18.4,40-19.9,62.5
			c-0.4,7.8-1.6,15.5,0.6,23.3c2.2-0.3,3.3-2.2,4.5-3.6c23.2-23,46.2-46.1,69.2-69.2c1-1,2-2,3-3c5.8-5.6,12.6-6.2,17.4-1.6
			c4.9,4.7,4.5,11.9-1.3,17.8c-23.9,24.1-47.9,48-71.9,71.9c-1.3,1.3-2.7,2.8-4.7,4.9c10.9,1.8,21.2,1.7,31.1,0
			c61.7-10.1,101.6-46.1,121.3-104.9c6.6-19.9,6.9-40.6,3.4-61.3c-0.7-3.9-2.2-5.6-6.2-6c-6-0.4-11.9-1.2-17.8-1.9
			c-1.5-0.1-2.9-0.1-4.4-0.3c-7.4-1.1-11.5-5.7-11.1-12.3c0.3-6.2,4.9-10.5,12.3-10.7c8.3-0.2,16.6,1.1,24.8,2.4c3,0.4,6,1.3,9,1.9
			c8.9,1.3,12.8,6.7,14.5,15.2c12.9,64.4-7.1,117.7-55.3,160.7c-33.9,30.3-74.2,43.6-119.6,40.8c-6.1-0.3-12.3-1.6-18.2-2.7
			c-2.7-0.4-4.8-0.2-6.9,1.9c-11,11.1-22,22.1-33,33c-3,2.9-1.5,3.6,1.6,4.3c25.5,5.2,45.7,18.7,60.6,39.9c1.7,2.5,3.6,3.9,6.7,3.5
			c11.6-1.5,23.2-1.2,34.7,0c1.3,0.1,3.3,0.7,4-0.8c0.9-1.7-0.7-3-1.7-4.3c-4.2-5.3-9.7-7.9-16.4-8.5c-8-0.8-12.1-5.6-11.5-12.8
			c0.7-6.4,5.6-10,13.4-9.7c2.4,0.1,4.7,0.2,7,0.8c7.5,1.8,14.5,4.8,20,10.5c2.7,2.7,4.4,2.6,7.1,0c7.6-7.2,16.9-11,27.5-11.2
			c7.3-0.2,12.1,3.5,12.8,9.7c0.7,7.1-3.4,12.1-10.9,12.8c-8.7,0.8-15.2,4.5-19.2,12.3c-2.7,5.3-1.9,7.1,3.6,8.8
			c25.2,7.8,47.5,20.6,67.1,38.1c26.5,23.6,44.6,52.6,54.6,86.7c2.5,8.7-2.5,15.1-11.7,15.3c-0.7,0-1.5,0-2.1,0
			c-176.2,0-352.4,0-528.6,0.1c-6.2,0-11-1.5-14.2-7c0-2.9,0-5.8,0-8.7c5.5-16.4,12-32.1,21.4-46.9c23.5-36.9,55.9-62.3,97.1-76.4
			c9.8-3.4,10.8-6.6,3.9-14.6c-4-4.7-9.2-6.9-15.2-7.5c-8.3-0.9-12.4-5.3-11.9-12.5c0.4-6.6,5.5-10.3,13.5-10
			c10.2,0.3,19.1,4,26.5,11c2.8,2.6,4.5,3,7.5,0.2c7.8-7.4,17.3-11.1,28.1-11.2c6.9-0.1,11.6,3.8,12.1,9.9c0.7,6.9-3.4,12-10.5,12.6
			c-7.5,0.7-13.6,3.6-18.1,9.6c-0.7,1-1.8,2.1-0.9,3.4c0.7,1,2,0.8,3,0.7c12.3-1.3,24.6-1.5,36.9-0.1c2.6,0.3,3.9-1.3,5.2-3.1
			c15.5-22.5,36.8-36.1,63.6-40.8c3.8-0.7,5.1-2.1,5.1-6.1c-0.2-18.7-0.1-37.3,0-56c0-4-0.8-5.3-5.3-4.6
			c-91.4,15.1-170.8-55.3-182.1-133.6c-2.9-20.1-1.9-40.1,2.9-59.9c1.5-6.2,5.1-9.8,11.1-11.2c33.5-8.1,66.2-5.6,97.8,8.2
			c30,13.2,53.6,33.9,72,60.9c0.4,0.8,1.1,1.5,1.7,2.1c0.1,0.1,0.3,0.1,0.6,0.1c1.1-1.6,0.6-3.5,0.6-5.2c0.1-17.1-0.2-34.1,0.1-51.1
			c0.3-19.2,4.4-37.8,12.6-55.2c13.3-28.1,36.6-43,65.9-50.1c7.2-1.7,14.5-2.8,21.8-4.2C406.8,118.7,417.3,118.7,427.9,118.7z
			 M337,653.4c71.9,0,143.9,0,215.9,0c5.8,0,5.8,0,3.6-5.5c-6.3-14.9-14.7-28.7-25.5-40.9c-31-35.2-69.8-54.4-116.9-56.3
			c-9.8-0.4-19.6,0.2-29.3,1.2c-5.4,0.6-9.4-1.8-12.3-6.4c-1.1-1.9-2.2-3.7-3.4-5.6c-27.8-44.1-93.2-45.7-122.1-2.4
			c-7.4,11.2-14.5,15.1-28.1,13.7c-32.7-3.4-63.8,3.7-92.5,20.1c-31.7,18.2-55,44.1-69.3,77.7c-1.5,3.4-1.1,4.5,2.8,4.4
			c8.5-0.2,17.1-0.2,25.5,0c4.2,0.1,6.2-1.5,7.6-5.3c6.9-17.8,18-32.6,32.1-45.2c9.2-8.3,19.7-14.8,31-19.8
			c6.3-2.7,12.6-0.3,15.2,5.3c2.6,5.5,0.7,11.2-5.2,14.8c-1.7,1-3.5,1.9-5.3,2.8c-18.1,9.2-32.1,22.8-42,40.5
			c-3.6,6.4-3.5,6.6,3.7,6.6C194.1,653.4,265.6,653.4,337,653.4z M160.1,231.7c-7.2,0.2-14.5,0.2-21.7,1.5c-3.5,0.6-5.5,2.1-6.1,5.7
			c-2.4,15.7-2.6,31.5,0.6,47.1c13,65.4,72.8,112.8,139.5,110.7c1.7,0,4.3,0.7,4.8-1.2s-1.8-2.9-3-4.2c-18-18.1-36.1-36.2-54.2-54.3
			c-1.6-1.6-3.1-3-4.4-4.8c-3.4-4.7-3-10.5,0.8-14.4c3.8-4,9.6-4.7,14.4-1.6c1.9,1.2,3.7,2.9,5.3,4.6c18.2,18.2,36.4,36.4,54.6,54.5
			c1.1,1.1,2,3.3,3.7,2.6c1.7-0.6,1.3-2.8,1.3-4.4c0.3-8.5-0.2-17-1.3-25.5C286.3,286.8,226.4,229.8,160.1,231.7z M321.6,216.2
			c1.3-1.2,2.6-2.5,3.9-3.7c7.6-7.6,15.3-15.4,23-23c6.3-6.3,13.2-6.9,18.1-1.8c5.1,5.2,4.3,11.6-2.1,18.1
			c-4.9,5.1-9.9,10.1-14.9,14.9c-4.4,4.2-9,8.2-14.2,12.9c2.2,0.7,2.7,1,3.1,0.9c2.9-0.3,5.7-0.6,8.7-1c19.3-3.5,37.2-10,49.3-26.6
			c13.7-18.7,16.7-40.5,16.9-62.8c0-3.1-2.1-2.7-4.2-2.7c-8.5,0-17,0.8-25.3,2.6c-20.6,4.5-38.9,12.9-50.6,31.6
			C325.5,187.9,321.5,201.4,321.6,216.2z"/>
		<path fill="#1ABC9C" d="M454.5,244c0.1-6.2,5.3-11.1,11.6-11.2c6.3,0,11.9,5.6,11.7,11.8c-0.2,6.1-6.2,11.4-12.5,11.2
			C459.3,255.7,454.5,250.5,454.5,244z"/>
		<path fill="#1ABC9C" d="M205.2,595.3c-6.3-0.1-11.5-5.2-11.4-11.4c0-6.3,5.1-11,11.6-11.1c6.5,0,11.6,4.8,11.7,11
			C217,590.4,211.8,595.4,205.2,595.3z"/>
	</g>
</g>
<g id="reforestacion_blanco" display="none">
	<g display="inline">
		<path fill="#FFFFFF" d="M427.9,118.7c6.1,3.4,7.6,8.7,8.2,15.4c1.3,18.1-0.4,35.9-5.1,53.3c-9.6,35.7-33,57.3-68.4,66.5
			c-12.7,3.3-25.6,4.7-38.7,5.2c-3.8,0.1-5.5,1.2-5.5,5.3c0.1,62.2,0.1,124.3,0.1,186.6c0,0.7,0.1,1.3,0.2,2.5
			c8.2-8,16.2-15.7,24.2-23.5c1.3-1.2,0.8-3,0.4-4.6c-10.8-62.9,9.4-114.8,56.5-156.9c6.1-5.5,12.5-10.6,19.4-14.8
			c6.9-4.3,13.5-3.3,17.2,2.4c3.5,5.3,1.9,12.3-4.4,16.5c-19.3,13.4-36,29.2-48.3,49.3c-11.8,19.2-18.4,40-19.9,62.5
			c-0.4,7.8-1.6,15.5,0.6,23.3c2.2-0.3,3.3-2.2,4.5-3.6c23.2-23,46.2-46.1,69.2-69.2c1-1,2-2,3-3c5.8-5.6,12.6-6.2,17.4-1.6
			c4.9,4.7,4.5,11.9-1.3,17.8c-23.9,24.1-47.9,48-71.9,71.9c-1.3,1.3-2.7,2.8-4.7,4.9c10.9,1.8,21.2,1.7,31.1,0
			c61.7-10.1,101.6-46.1,121.3-104.9c6.6-19.9,6.9-40.6,3.4-61.3c-0.7-3.9-2.2-5.6-6.2-6c-6-0.4-11.9-1.2-17.8-1.9
			c-1.5-0.1-2.9-0.1-4.4-0.3c-7.4-1.1-11.5-5.7-11.1-12.3c0.3-6.2,4.9-10.5,12.3-10.7c8.3-0.2,16.6,1.1,24.8,2.4c3,0.4,6,1.3,9,1.9
			c8.9,1.3,12.8,6.7,14.5,15.2c12.9,64.4-7.1,117.7-55.3,160.7c-33.9,30.3-74.2,43.6-119.6,40.8c-6.1-0.3-12.3-1.6-18.2-2.7
			c-2.7-0.4-4.8-0.2-6.9,1.9c-11,11.1-22,22.1-33,33c-3,2.9-1.5,3.6,1.6,4.3c25.5,5.2,45.7,18.7,60.6,39.9c1.7,2.5,3.6,3.9,6.7,3.5
			c11.6-1.5,23.2-1.2,34.7,0c1.3,0.1,3.3,0.7,4-0.8c0.9-1.7-0.7-3-1.7-4.3c-4.2-5.3-9.7-7.9-16.4-8.5c-8-0.8-12.1-5.6-11.5-12.8
			c0.7-6.4,5.6-10,13.4-9.7c2.4,0.1,4.7,0.2,7,0.8c7.5,1.8,14.5,4.8,20,10.5c2.7,2.7,4.4,2.6,7.1,0c7.6-7.2,16.9-11,27.5-11.2
			c7.3-0.2,12.1,3.5,12.8,9.7c0.7,7.1-3.4,12.1-10.9,12.8c-8.7,0.8-15.2,4.5-19.2,12.3c-2.7,5.3-1.9,7.1,3.6,8.8
			c25.2,7.8,47.5,20.6,67.1,38.1c26.5,23.6,44.6,52.6,54.6,86.7c2.5,8.7-2.5,15.1-11.7,15.3c-0.7,0-1.5,0-2.1,0
			c-176.2,0-352.4,0-528.6,0.1c-6.2,0-11-1.5-14.2-7c0-2.9,0-5.8,0-8.7c5.5-16.4,12-32.1,21.4-46.9c23.5-36.9,55.9-62.3,97.1-76.4
			c9.8-3.4,10.8-6.6,3.9-14.6c-4-4.7-9.2-6.9-15.2-7.5c-8.3-0.9-12.4-5.3-11.9-12.5c0.4-6.6,5.5-10.3,13.5-10
			c10.2,0.3,19.1,4,26.5,11c2.8,2.6,4.5,3,7.5,0.2c7.8-7.4,17.3-11.1,28.1-11.2c6.9-0.1,11.6,3.8,12.1,9.9c0.7,6.9-3.4,12-10.5,12.6
			c-7.5,0.7-13.6,3.6-18.1,9.6c-0.7,1-1.8,2.1-0.9,3.4c0.7,1,2,0.8,3,0.7c12.3-1.3,24.6-1.5,36.9-0.1c2.6,0.3,3.9-1.3,5.2-3.1
			c15.5-22.5,36.8-36.1,63.6-40.8c3.8-0.7,5.1-2.1,5.1-6.1c-0.2-18.7-0.1-37.3,0-56c0-4-0.8-5.3-5.3-4.6
			c-91.4,15.1-170.8-55.3-182.1-133.6c-2.9-20.1-1.9-40.1,2.9-59.9c1.5-6.2,5.1-9.8,11.1-11.2c33.5-8.1,66.2-5.6,97.8,8.2
			c30,13.2,53.6,33.9,72,60.9c0.4,0.8,1.1,1.5,1.7,2.1c0.1,0.1,0.3,0.1,0.6,0.1c1.1-1.6,0.6-3.5,0.6-5.2c0.1-17.1-0.2-34.1,0.1-51.1
			c0.3-19.2,4.4-37.8,12.6-55.2c13.3-28.1,36.6-43,65.9-50.1c7.2-1.7,14.5-2.8,21.8-4.2C406.8,118.7,417.3,118.7,427.9,118.7z
			 M337,653.4c71.9,0,143.9,0,215.9,0c5.8,0,5.8,0,3.6-5.5c-6.3-14.9-14.7-28.7-25.5-40.9c-31-35.2-69.8-54.4-116.9-56.3
			c-9.8-0.4-19.6,0.2-29.3,1.2c-5.4,0.6-9.4-1.8-12.3-6.4c-1.1-1.9-2.2-3.7-3.4-5.6c-27.8-44.1-93.2-45.7-122.1-2.4
			c-7.4,11.2-14.5,15.1-28.1,13.7c-32.7-3.4-63.8,3.7-92.5,20.1c-31.7,18.2-55,44.1-69.3,77.7c-1.5,3.4-1.1,4.5,2.8,4.4
			c8.5-0.2,17.1-0.2,25.5,0c4.2,0.1,6.2-1.5,7.6-5.3c6.9-17.8,18-32.6,32.1-45.2c9.2-8.3,19.7-14.8,31-19.8
			c6.3-2.7,12.6-0.3,15.2,5.3c2.6,5.5,0.7,11.2-5.2,14.8c-1.7,1-3.5,1.9-5.3,2.8c-18.1,9.2-32.1,22.8-42,40.5
			c-3.6,6.4-3.5,6.6,3.7,6.6C194.1,653.4,265.6,653.4,337,653.4z M160.1,231.7c-7.2,0.2-14.5,0.2-21.7,1.5c-3.5,0.6-5.5,2.1-6.1,5.7
			c-2.4,15.7-2.6,31.5,0.6,47.1c13,65.4,72.8,112.8,139.5,110.7c1.7,0,4.3,0.7,4.8-1.2s-1.8-2.9-3-4.2c-18-18.1-36.1-36.2-54.2-54.3
			c-1.6-1.6-3.1-3-4.4-4.8c-3.4-4.7-3-10.5,0.8-14.4c3.8-4,9.6-4.7,14.4-1.6c1.9,1.2,3.7,2.9,5.3,4.6c18.2,18.2,36.4,36.4,54.6,54.5
			c1.1,1.1,2,3.3,3.7,2.6c1.7-0.6,1.3-2.8,1.3-4.4c0.3-8.5-0.2-17-1.3-25.5C286.3,286.8,226.4,229.8,160.1,231.7z M321.6,216.2
			c1.3-1.2,2.6-2.5,3.9-3.7c7.6-7.6,15.3-15.4,23-23c6.3-6.3,13.2-6.9,18.1-1.8c5.1,5.2,4.3,11.6-2.1,18.1
			c-4.9,5.1-9.9,10.1-14.9,14.9c-4.4,4.2-9,8.2-14.2,12.9c2.2,0.7,2.7,1,3.1,0.9c2.9-0.3,5.7-0.6,8.7-1c19.3-3.5,37.2-10,49.3-26.6
			c13.7-18.7,16.7-40.5,16.9-62.8c0-3.1-2.1-2.7-4.2-2.7c-8.5,0-17,0.8-25.3,2.6c-20.6,4.5-38.9,12.9-50.6,31.6
			C325.5,187.9,321.5,201.4,321.6,216.2z"/>
		<path fill="#FFFFFF" d="M454.5,244c0.1-6.2,5.3-11.1,11.6-11.2c6.3,0,11.9,5.6,11.7,11.8c-0.2,6.1-6.2,11.4-12.5,11.2
			C459.3,255.7,454.5,250.5,454.5,244z"/>
		<path fill="#FFFFFF" d="M205.2,595.3c-6.3-0.1-11.5-5.2-11.4-11.4c0-6.3,5.1-11,11.6-11.1c6.5,0,11.6,4.8,11.7,11
			C217,590.4,211.8,595.4,205.2,595.3z"/>
	</g>
</g>
<g id="revegetalizacion" display="none">
	<g display="inline">
		<path fill="#1ABC9C" d="M391,444c-8.9-14.2-31.2-41.6-73.1-46.1c-9.3-293,130.9-257.5,130.9-257.5c-66.3,19.4-93.7,72.7-93.7,72.7
			c111,15.3,118.5-66.1,118.2-89.4c0-3.6-2.4-6.9-5.7-8C330.2,70.3,305,290.9,305,290.9c-39.9-152.6-132.4-134.5-159.2-125.8
			c-4.3,1.5-6.7,6-5.6,10.3c31.1,119,124.3,87.9,124.3,87.9c-31.4-60.6-88.9-72.7-88.9-72.7c136.2,10.7,124.6,188,123.1,206.9
			c-55.4,2.2-69.7,29.9-79.6,44.4c-2.4,3.5-6.3,5.7-10.6,6.1c-14,1-48.4,5.5-58.7,27.2c0,0,32.4,27.5,77.7,51.7
			c32,17.2,58,51.3,70.5,69.8c3.7,5.4,11.8,5.2,15.1-0.6c11-19.8,33.7-55.3,56.8-62.7c42.9-13.8,92.2-58.2,92.2-58.2
			s-29.3-28-57.8-24.6C398.9,451.1,393.8,448.5,391,444z M220.2,489.7c-7.9,0-14.3-6.4-14.3-14.3s6.4-14.3,14.3-14.3
			s14.3,6.4,14.3,14.3S228.1,489.7,220.2,489.7z M290.2,415.3c3.8,0,7,3.1,7,7c0,3.8-3.1,7-7,7s-7-3.1-7-7
			C283.2,418.4,286.4,415.3,290.2,415.3z M276,538.2c-11.6,0-21-9.4-21-21c0-11.6,9.4-21,21-21c11.6,0,21,9.4,21,21
			C297.1,528.8,287.6,538.2,276,538.2z M311.3,465c-7.9,0-14.3-6.4-14.3-14.3s6.4-14.3,14.3-14.3s14.3,6.4,14.3,14.3
			S319.2,465,311.3,465z M376.1,513.2c-11.6,0-21-9.4-21-21c0-11.6,9.4-21,21-21c11.6,0,21,9.4,21,21
			C397.1,503.7,387.7,513.2,376.1,513.2z M427.7,468.4c3.8,0,7,3.1,7,7c0,3.8-3.1,7-7,7c-3.8,0-7-3.1-7-7
			C420.7,471.6,423.8,468.4,427.7,468.4z"/>
		<path fill="#1ABC9C" d="M30.7,417.7c-0.1-3.8,4.7-5.6,7.2-2.6c11.1,13.7,32.8,46.2,46.3,103.7c18.8,80,81.3,85.3,106.1,90.6
			c0,0,11.6-23.3-13.9-46.9c-23-21.4-42.6-35.4-46.5-69.2c-0.4-3.9,4.3-6.4,7.2-3.7c8.1,7.3,23.4,20.2,50.4,39.7
			c46.1,33.4,106.1,50.9,106.8,157c0,0-88.6,15.7-183.8-70.4C39.1,546.8,31.2,449.4,30.7,417.7z"/>
		<path fill="#1ABC9C" d="M581.3,417.7c0.1-3.8-4.7-5.6-7.2-2.6c-11.1,13.7-32.8,46.2-46.3,103.7c-18.8,80-81.3,85.3-106.1,90.6
			c0,0-11.6-23.3,13.9-46.9c23-21.4,42.6-35.4,46.5-69.2c0.4-3.9-4.3-6.4-7.2-3.7c-8.1,7.3-23.4,20.2-50.4,39.7
			c-46.1,33.4-106.1,50.9-106.8,157c0,0,88.6,15.7,183.8-70.4C572.9,546.8,580.8,449.4,581.3,417.7z"/>
	</g>
</g>
<g id="Layer_6" display="none">
	<g display="inline">
		<path fill="#FFFFFF" d="M391,444c-8.9-14.2-31.2-41.6-73.1-46.1c-9.3-293,130.9-257.5,130.9-257.5c-66.3,19.4-93.7,72.7-93.7,72.7
			c111,15.3,118.5-66.1,118.2-89.4c0-3.6-2.4-6.9-5.7-8C330.2,70.3,305,290.9,305,290.9c-39.9-152.6-132.4-134.5-159.2-125.8
			c-4.3,1.5-6.7,6-5.6,10.3c31.1,119,124.3,87.9,124.3,87.9c-31.4-60.6-88.9-72.7-88.9-72.7c136.2,10.7,124.6,188,123.1,206.9
			c-55.4,2.2-69.7,29.9-79.6,44.4c-2.4,3.5-6.3,5.7-10.6,6.1c-14,1-48.4,5.5-58.7,27.2c0,0,32.4,27.5,77.7,51.7
			c32,17.2,58,51.3,70.5,69.8c3.7,5.4,11.8,5.2,15.1-0.6c11-19.8,33.7-55.3,56.8-62.7c42.9-13.8,92.2-58.2,92.2-58.2
			s-29.3-28-57.8-24.6C398.9,451.1,393.8,448.5,391,444z M220.2,489.7c-7.9,0-14.3-6.4-14.3-14.3s6.4-14.3,14.3-14.3
			s14.3,6.4,14.3,14.3S228.1,489.7,220.2,489.7z M290.2,415.3c3.8,0,7,3.1,7,7c0,3.8-3.1,7-7,7s-7-3.1-7-7
			C283.2,418.4,286.4,415.3,290.2,415.3z M276,538.2c-11.6,0-21-9.4-21-21c0-11.6,9.4-21,21-21c11.6,0,21,9.4,21,21
			C297.1,528.8,287.6,538.2,276,538.2z M311.3,465c-7.9,0-14.3-6.4-14.3-14.3s6.4-14.3,14.3-14.3s14.3,6.4,14.3,14.3
			S319.2,465,311.3,465z M376.1,513.2c-11.6,0-21-9.4-21-21c0-11.6,9.4-21,21-21c11.6,0,21,9.4,21,21
			C397.1,503.7,387.7,513.2,376.1,513.2z M427.7,468.4c3.8,0,7,3.1,7,7c0,3.8-3.1,7-7,7c-3.8,0-7-3.1-7-7
			C420.7,471.6,423.8,468.4,427.7,468.4z"/>
		<path fill="#FFFFFF" d="M30.7,417.7c-0.1-3.8,4.7-5.6,7.2-2.6c11.1,13.7,32.8,46.2,46.3,103.7c18.8,80,81.3,85.3,106.1,90.6
			c0,0,11.6-23.3-13.9-46.9c-23-21.4-42.6-35.4-46.5-69.2c-0.4-3.9,4.3-6.4,7.2-3.7c8.1,7.3,23.4,20.2,50.4,39.7
			c46.1,33.4,106.1,50.9,106.8,157c0,0-88.6,15.7-183.8-70.4C39.1,546.8,31.2,449.4,30.7,417.7z"/>
		<path fill="#FFFFFF" d="M581.3,417.7c0.1-3.8-4.7-5.6-7.2-2.6c-11.1,13.7-32.8,46.2-46.3,103.7c-18.8,80-81.3,85.3-106.1,90.6
			c0,0-11.6-23.3,13.9-46.9c23-21.4,42.6-35.4,46.5-69.2c0.4-3.9-4.3-6.4-7.2-3.7c-8.1,7.3-23.4,20.2-50.4,39.7
			c-46.1,33.4-106.1,50.9-106.8,157c0,0,88.6,15.7,183.8-70.4C572.9,546.8,580.8,449.4,581.3,417.7z"/>
	</g>
</g>
<g id="paisajismo_blanco" display="none">
	<g id="siembra_2_" display="inline">
		<g>
			<path fill="#1ABC9C" d="M0,619.5c0-79.4,0-158.7,0-238.1c0.7-0.4,1.2-0.8,1.9-1.2c27.9-21.7,57.3-20.6,83.3,3.1
				c1.7,1.6,3.4,3,5.2,4.5c21.2,16.2,53.6,16.5,77.4-5.8c25.2-23.7,58.8-22.8,83.8,0.7c4.9,4.6,10.2,8.5,16.3,11.5
				c7,3.3,7.3,3,7.3-4.4c0-44.6,0-89.2,0-133.9c0-7.9-0.6-8.2-8.2-9c-24.1-2.5-47-8.7-67.2-22.1c-45.4-30.3-61.4-75.2-61.8-127.5
				c0-3.6,2.1-4.4,5.2-4.5c10.7-0.3,21.4,0.8,31.9,2.5c60.2,9.6,101.2,48.1,114.1,107.6c1.5,6.5,2.4,13.2,3.6,19.8
				c1.2-3.5,1.7-6.9,2.2-10.2c4.7-29.4,15.3-56.3,36.8-77.8c30.6-30.6,68.6-41.8,110.8-41.9c4,0,5.2,1.8,5.3,5.6
				c0.3,14.4-1.5,28.5-4.8,42.5c-10,40.6-31.6,72.4-69.9,91.2c-17.5,8.5-36.1,13.3-55.4,14.9c-5.2,0.4-7.2,2.4-7.2,7.8
				c0.2,45.4,0.1,90.8,0.1,136.2c0,5.8,0.6,6.2,5.7,3.9c7.6-3.3,13.9-8.5,20-14c14.6-13.4,31.9-18,51.4-14.6
				c13.2,2.2,23.5,9.3,33,18.1c14.6,13.5,32,17.9,51.5,14.2c12-2.2,21.7-8.7,30.6-16.9c15.1-14.2,33-19,53.4-15.2
				c11.5,2.1,20.7,8.3,29.7,15.3c0,79.4,0,158.7,0,238.1c-2.7,0.1-5.3,0.4-8,0.4c-190,0-380,0-570,0C5.3,620,2.6,619.6,0,619.5z
				 M220,495.6c0.1,26.9,14,49.8,38.6,60.4c21.4,9.2,43.4,9.7,65.2,1.3c23.3-8.9,36.6-26.2,41-50.8c3.6-20-2-37.7-12.7-54.2
				c-10.2-15.8-23.3-29.2-37.3-41.5c-2.6-2.2-5.5-4.2-5.3-8.3c0.1-2.4-1.3-3.5-3.7-2.9c-8.7,1.9-17.4,1.9-26.1,0
				c-2.1-0.4-3.6,0.6-3.5,2.6c0.3,4.4-2.7,6.4-5.4,8.8c-14,12.1-27,25.3-37,41C225.8,464.8,219.6,478.2,220,495.6z"/>
			<path fill="#1ABC9C" d="M292.5,529.9c-4-0.4-8.7-0.4-13.2-1.3c-24.7-5.4-30.8-31.7-23.8-47.4c3.6-8.1,8.5-15.3,14.3-22
				c6.1-7.2,12.5-13.9,19.4-20.1c2.7-2.4,4.6-2.5,7.3-0.1c10.8,9.8,20.7,20.2,28.7,32.5c8.8,13.4,10.9,27.3,3,41.6
				C320.6,526.5,307.3,529.6,292.5,529.9z"/>
		</g>
		<path fill="none" d="M1453.7,453c-1-0.6-1.3-1.9-0.7-2.9l2.5-3.9c0.6-1,1.9-1.2,2.9-0.7l66,39.2c1,0.6,1.3,1.9,0.7,2.9l-2.5,3.9
			c-0.7,1-1.9,1.3-2.9,0.7L1453.7,453z"/>
		<path fill="none" d="M1533.3,378.9c-1-0.7-1.3-2-0.8-3.1l2.6-4.3c0.7-1,2-1.3,3.1-0.8l69,42.1c1,0.7,1.3,2,0.8,3.1l-2.6,4.3
			c-0.7,1-2,1.3-3.1,0.8L1533.3,378.9z"/>
		<path fill="none" d="M1620.8,413.4v208.9h-620.4l137.1-111.6l246.5-43.5l30.5-36.9l23.6,13.8l-2,3.3c-0.6,1-0.3,2.2,0.7,2.9
			l87.4,52c1,0.6,2.4,0.3,2.9-0.7l10.3-16.5c0.6-1,0.3-2.2-0.7-2.9l-87.4-52c-1-0.6-2.4-0.3-2.9,0.7l-6.1,9.8l-23.2-13.5l63.3-76.8
			l36.4,19l-2.1,3.5c-0.7,1-0.3,2.5,0.8,3.1l91.5,55.9c1,0.7,2.5,0.3,3-0.8L1620.8,413.4z"/>
		<polygon fill="none" points="1403.7,424.2 1378,454.5 1144.2,499.5 1220.6,437.2 1324,437.2 1338.2,385.8 		"/>
		<polygon fill="none" points="1470.8,345.4 1406.5,420.9 1339.3,381.7 1364.7,290.1 		"/>
		<polygon fill="none" points="1535.3,158.4 1497.8,313.6 1473.7,341.9 1366,285.6 1381.7,228.9 		"/>
		<path fill="none" d="M1620.8,124.1v286.6c-0.2-0.2-0.3-0.4-0.7-0.6l-91.5-55.9c-1-0.7-2.5-0.3-3,0.8l-6.4,10.5l-35.9-18.7
			l24.3-29.4l41.9-167.1L1620.8,124.1z"/>
		<path fill="none" d="M1608.1,416l-2.6,4.3c-0.7,1-2,1.3-3.1,0.8l-69-42.1c-1-0.7-1.3-2-0.8-3.1l2.6-4.3c0.7-1,2-1.3,3.1-0.8
			l69,42.1C1608.4,413.6,1608.7,414.9,1608.1,416z"/>
		<path fill="none" d="M1525.2,487.7l-2.5,3.9c-0.7,1-1.9,1.3-2.9,0.7l-66-39.2c-1-0.6-1.3-1.9-0.7-2.9l2.5-3.9
			c0.6-1,1.9-1.2,2.9-0.7l66,39.2C1525.4,485.3,1525.8,486.6,1525.2,487.7z M1524.4,484.7l-66-39.2c-1-0.6-2.4-0.3-2.9,0.7l-2.5,3.9
			c-0.7,1-0.3,2.2,0.7,2.9l66,39.2c1,0.6,2.4,0.3,2.9-0.7l2.5-3.9C1525.8,486.6,1525.4,485.3,1524.4,484.7z"/>
	</g>
	<g id="talud_1_" display="inline">
		<path fill="#1ABC9C" d="M575.1,164.6L349.3,271.3l-9.2,33c-0.3-0.2-0.8-0.3-1.1-0.3l-8.1-1.6c-2.5-0.4-4.9,1.1-5.4,3.6l-1.8,9.1
			l-3.5-1.7c-0.3-0.1-0.6-0.2-0.9-0.2c-0.8,0-1.5,0.4-1.8,1.1c-0.4,1-0.1,2.1,0.9,2.7l4.5,2.1l-3.1,16.1c-0.4,2.5,1.1,4.9,3.6,5.4
			l6.3,1.2l-12.4,44.1l-5.8-1.5c-2.5-0.7-4.9,0.9-5.6,3.4l-3,12l-5.7-2.7c-0.3-0.1-0.6-0.2-0.9-0.2c-0.8,0-1.5,0.4-1.8,1.1
			c-0.4,1,0,2.1,0.9,2.7l6.4,3l-3.4,12.9c-0.7,2.5,0.9,4.9,3.4,5.6l4.9,1.2l-6.9,24.5h-91.2L0,624.7v10.5h584.4V164.6H575.1z
			 M364.1,277.5L493,224.3l-34.6,125.2l-15.5,24.2l-92.2-47.5L364.1,277.5z M507.9,535.5l-75.3-41l5.4-11.8l-58.6-33.5l-24.8,35.2
			L169,512.7l45.1-41.8l99.2-4.8l11.6-48.6l54.4,31.7l4.8-5.6l-57-32.3l21.8-78.2l89.5,46.6l-54.3,63.7l58.3,31.9l6-8.4l74.7,45
			L507.9,535.5z M555.6,456.6L487,419.9l4.8-10.6l-53.4-30.1l4.4-5.1l53.1,28.5l5.4-7.5l68,40.2L555.6,456.6z"/>
		<path fill="#1ABC9C" d="M558.7,439.3L504,406.4c-0.9-0.6-2.1-0.2-2.7,0.7l-2.2,3.8c-0.6,0.9-0.2,2.1,0.7,2.7l54.7,32.9
			c0.9,0.6,2.1,0.2,2.7-0.7l2.2-3.7C560,441.1,559.6,439.9,558.7,439.3z"/>
		<path fill="#1ABC9C" d="M511.9,520.5l-2.1,3.5c-0.6,0.9-1.7,1.1-2.6,0.6L449,489.9c-0.9-0.6-1.1-1.7-0.6-2.6l2.1-3.5
			c0.6-0.9,1.7-1.1,2.6-0.6l58.1,34.6C512.1,518.5,512.4,519.6,511.9,520.5z"/>
	</g>
	<g id="alianza_1_" display="inline">
		<g>
			<path fill="#1ABC9C" d="M238.1,525.2c-5.1-0.3-10.1,1.5-14.2,5.2c-3.9,3.6-5.7,2.4-7.2-2c-1.2-3.7-3.6-6.9-6.5-9.4
				c-11.6-10.3-27.1-9.2-36.6,3c-4.7,6-8.9,12.3-13.2,18.5c-2.2,3.3-4,3.4-6.5,0.2c-12.3-15.4-24.5-30.8-36.9-46
				c-2.8-3.4-1.2-6,0.4-8.9c16-27.6,31.9-55.3,47.9-82.9c4.4-7.6,8.9-15.2,13.2-22.9c1.9-3.4,3.8-4.6,7.9-3.1
				c17.6,6.5,35.4,12.7,53.2,19c4.5,1.6,5.1,3.4,1.5,6.6c-7.2,6.7-14.2,13.6-21.2,20.5c-2,1.9-3.5,3.8-3.6,6.9
				c-0.8,17.8-1.9,35.5-2.4,53.3c-0.3,14.2,8.7,20.8,22.5,17.5c12.5-2.9,21.9-9.8,27.9-21.1c3.8-7.2,7.4-14.6,11-21.9
				c1.5-3.1,3.6-5.3,6.7-6.7c7.1-3.1,14-6.6,21.7-8.5c8.5-2.1,16.6-1.5,24.3,3c40,23.2,80,46.3,120,69.6c11.9,7,14.4,19.7,6.2,30.2
				c-6.3,8.1-16,10.1-25.9,4.6c-11.6-6.5-23-13.4-34.5-20c-1.6-0.9-3.3-1.8-4.9-2.5c-1-0.4-2-0.1-2.6,0.9c-0.6,1-0.4,2.1,0.3,2.8
				c1.2,1,2.6,1.9,4,2.8c15.2,8.9,30.5,17.6,45.5,26.6c9.8,5.8,12.7,15.6,8.2,25.3c-5.3,11.5-17,15.5-28.2,9.2
				c-15.8-9-31.5-18.3-47.3-27.3c-2.5-1.3-6.2-5.1-8-1.9c-2.2,3.9,3.1,4.7,5.6,6.2c11.6,7,23.4,13.6,34.8,20.6
				c7.3,4.5,10.7,11.2,8.9,19.9c-1.8,8.8-7.1,14.6-15.8,16.9c-5.8,1.5-10.9-0.8-15.7-3.6c-12-7-24.1-14-36.1-21
				c-1-0.7-2.1-1.2-3.1-1.8c-1.7-0.9-3.6-1.8-4.7,0.4c-1,2,0.8,2.9,2.2,3.7c9,5.3,18,10.6,27,15.8c1.6,0.9,3.3,1.8,4.7,2.8
				c9.8,6.7,12,17.4,5.7,27.4c-6,9.6-16.6,12.4-26.6,6.7c-9.1-5.1-18-10.6-27.1-15.6c-3.3-1.8-3.4-3.7-2.1-7
				c6.1-17.3-4.3-32.9-22.8-34.4c-5.1-0.3-6.1-1.3-3.3-6.1c10.5-17.8-0.7-37.9-21.4-38.2c-5.4-0.1-6.9-1.3-6.5-6.9
				C265.3,537.1,253.1,525.2,238.1,525.2z"/>
			<path fill="#1ABC9C" d="M218.6,481.9c0.7-16.2,1.3-32.3,2-48.4c0.1-3,1.2-5.5,3.4-7.5c12-11.5,23.5-23.4,35.9-34.4
				c16.2-14.4,34.4-19.6,55.6-14.7c16.5,3.7,33.4,6.4,50.4,6.6c17.1,0.2,33.8-2,50.2-6.6c4.6-1.2,7.1-0.4,9.4,3.7
				c19.9,34.8,40,69.6,60.1,104.2c2.6,4.4,2,6.6-2.7,8.9c-9.4,4.4-18.8,9.2-27.9,14.2c-3.7,2-6.6,1.8-10.2-0.3
				c-37.1-21.6-74.5-42.9-111.5-64.7c-11.9-7-23.7-8.4-36.3-3.6c-6.9,2.6-13.5,5.8-20.3,8.7c-3.1,1.3-4.5,4-5.8,6.7
				c-4.7,9.3-8.7,19-14.6,27.6c-5.5,8-13.3,12-22.4,13.7C223.4,497.7,218.2,492.8,218.6,481.9z"/>
			<path fill="#1ABC9C" d="M90,508.6c-6.1,0-9.8-1.8-13.3-3.9c-12.3-7.1-24.5-14.2-36.6-21.2c-13.2-7.6-15.3-15.7-7.6-29
				c21.8-37.8,43.6-75.5,65.4-113.2c2.9-4.9,5.6-10,8.7-14.8c5.4-8.4,14-11.1,22.8-6.4c14.9,8.1,29.7,16.6,44.2,25.4
				c8.7,5.2,10.5,14.6,5.1,24.2c-11.2,19.8-22.6,39.3-33.9,59c-13.5,23.4-27.1,46.8-40.5,70.1C100.5,504.9,95.4,508.2,90,508.6z"/>
			<path fill="#1ABC9C" d="M515.3,508.6c-7.4-0.3-12.4-4.2-16.1-10.6c-19.6-34.1-39.2-68.1-58.9-102.1c-5.2-8.9-10.3-17.6-15.3-26.6
				c-5.6-10-3.5-18.9,6.3-24.7c13.8-8.3,27.9-16.4,42-24.2c9.7-5.4,18.7-2.9,24.2,6.6c25.1,43.2,50,86.4,74.9,129.7
				c6.1,10.6,3.5,19.4-6.9,25.6c-13.2,7.9-26.5,15.4-39.8,23C522.5,507.2,519.2,508.6,515.3,508.6z"/>
			<path fill="#1ABC9C" d="M110.5,279.7c-25.2,0-50.4-0.1-75.5,0.1c-5.3,0-7.3-1.2-6.4-7c4.5-31.9,21.5-54.6,50.9-67
				c28.9-12.3,56.6-7.9,81.7,10.8c18.8,14,29.1,33.2,32.3,56.5c0.7,5.5-1.1,6.7-6.2,6.7C161.6,279.6,136.1,279.7,110.5,279.7z"/>
			<path fill="#1ABC9C" d="M492.5,279.7c-25,0-49.9,0-74.9,0c-7.9,0-8-0.2-7-8c5.1-40.1,39.5-71.6,79-72.5
				c41.9-0.9,77.7,28.1,84.9,68.8c2,11.7,2,11.7-9.7,11.7C540.7,279.7,516.6,279.7,492.5,279.7z"/>
			<path fill="#1ABC9C" d="M301.8,279.7c-25,0-49.9,0-74.9,0c-7.5,0-8.3-0.9-7.3-8.1c6-42,41.4-72.7,83.6-72.4
				c40.7,0.3,76.5,32.7,81.2,73.2c0.6,5.2-0.7,7.4-6.4,7.4C352.5,279.5,327.2,279.7,301.8,279.7z"/>
			<path fill="#1ABC9C" d="M301.8,194c-21.6,0-39.3-17.8-39.3-38.9c0.1-21.5,18.3-39.6,39.8-39.3c21.2,0.2,39.1,18.3,39,39.5
				C341.1,176.5,323.3,194.1,301.8,194z"/>
			<path fill="#1ABC9C" d="M453.7,154.7c0.1-21.5,17.6-39.1,39.1-39c21.4,0,39,17.8,39,39.2c0,21.9-17.8,39.6-39.5,39.2
				C470.6,193.9,453.6,176.5,453.7,154.7z"/>
			<path fill="#1ABC9C" d="M149.9,155.1c0,21.7-17.3,39-39,39c-21.8,0-39.2-17.6-39.1-39.6c0.1-21.4,18-39,39.3-38.8
				C132.6,115.9,149.9,133.5,149.9,155.1z"/>
			<path fill="#1ABC9C" d="M259.3,549.9c0.2,4.5-1.3,8.4-3.9,12c-12.6,17.9-25,35.9-37.7,53.6c-7.3,10.1-18.3,12-27.9,5.4
				c-9.9-6.9-11.9-18.1-4.8-28.4c12.7-18.3,25.5-36.5,38.4-54.6c5.4-7.5,13.3-9.7,21.7-6.9C253.6,534,259.2,541.5,259.3,549.9z"/>
			<path fill="#1ABC9C" d="M241,648.2c-8.4-0.3-14.7-4-18.9-11c-4-6.9-3.5-13.7,1-20.1c10.8-15.4,21.5-30.9,32.5-46.1
				c6.7-9.2,17.8-10.6,27.1-4c9.2,6.4,11.8,17.6,5.5,26.9c-10.6,15.5-21.5,30.8-32.4,46.2C252.2,645,247,647.7,241,648.2z"/>
			<path fill="#1ABC9C" d="M192.5,517.1c16.6,0.2,26.2,16.9,17.5,30.5c-7.5,11.8-15.8,23.3-24.4,34.5c-6.3,8.3-16.9,9.4-25.9,3.7
				c-9.1-6-12.7-16.5-7-25.5c8.1-12.7,17.1-25,26-37.1C182.2,518.7,187.4,516.8,192.5,517.1z"/>
			<path fill="#1ABC9C" d="M285,664c-16.6-0.2-26.4-17.2-18.1-30.7c3.7-6.1,7.9-11.9,12.3-17.5c7.5-9.6,18-11,27.5-4.2
				c9.3,6.7,11.4,17.5,4.8,27.5c-3.7,5.6-7.6,11.1-11.7,16.5C296.1,660.8,291,663.9,285,664z"/>
		</g>
	</g>
	<g id="paisajismo_1_" display="inline">
		<g>
			<path fill="#FFFFFF" d="M124.3,335.2c80.7-0.1,145.9,20.7,205.6,59.6c5.2,3.4,9.4,4.2,15.3,2c13.7-4.9,27.8-8.4,42.1-11
				c10.1-1.9,6-9.1,6.9-14.5c0.8-6.1-3.6-5.6-7.5-6c-16.3-1.9-32.5-4-47.5-11c-27.8-12.9-34.8-35.9-19.6-62.6
				c5.1-8.9,11.6-16.6,18.4-24.2c10.3-11.5,11.5-17.2,2.2-29.2c-13.4-17.3-11.2-33.8-0.2-51.1c16.5-26.2,32.6-52.5,48.8-78.9
				c7.6-12.5,15.8-13,25.4-1.6c15.5,19,31.4,37.9,47,57c22.7,27.6,30.5,59.5,24.6,94.6c-1.7,9.9,0.1,16.9,9.2,22.8
				c15.5,10.3,21.7,25.5,17.6,39.6c-2.7,9.8-9.2,17-17.3,22.7C477.8,356,457.5,361,436.4,364c-3.4,0.4-6.9,1.1-10.2,1.1
				c-4.8,0-6.4,2-6.4,6.7c0,9.3,0.1,10,9.7,9.3c17.1-1.1,34.2-1.9,51.3-1.3c31.6,0.9,62.3,6.1,92.3,16.2c7.1,2.4,10.5,6.7,10.6,14.2
				c3.4,127.3-84.1,243.5-208.3,274.2c-92.5,22.9-176.2,2.7-249.3-58.4c-57-47.4-88.2-109.5-96.2-183.2c-3-28.1-1.5-56.2,4.5-84
				c1.6-7.2,5.3-11.7,12.9-13.4C75.6,339.1,104.3,334.6,124.3,335.2z M456.3,403c-14.9,0.9-32.9,1-50.7,4.4
				c-118.9,21.8-205,86.7-257.4,195.9c-2.6,5.4-1.9,8.3,2.9,11.9c36.6,26.5,76.8,43.7,121.7,49.7c4.6,0.6,6.6-0.9,8.2-4.9
				c13.5-32.1,32-61.4,53.6-88.6c7.4-9.4,15.1-18.8,23.7-27.1c4.9-4.8,11.6-4.9,16.2-0.7c4.7,4.3,5.1,10.7,0.9,16.2
				c-1.7,2.2-3.5,4.3-5.3,6.4c-23.9,26.6-43.2,56.4-59.1,88.3c-6.6,13.2-6.6,13.3,8.1,12.6C382.6,664,436.8,640,482,595.6
				c34.2-33.7,55.6-74.3,65.2-121.3c0.8-4,2.1-8.5-4.9-6.7c-33.9,8.5-66.5,20.7-97.2,37.4c-7,3.8-14.2,1.1-15.8-6.4
				c-1.7-7,0.7-12,7.8-16c17.9-10.1,36.6-18.4,55.9-25.9c18.9-7.3,38.3-11.4,57.8-16.2c9.4-2.4,6.1-9.8,7.2-15.5
				c1-6-3.1-7.2-7.5-8.5C520.5,407.1,490.2,403.7,456.3,403z M123.3,356.7c-14.7-0.7-35.4,2.6-56.1,6.4
				c-14.8,2.7-12.9-0.2-15.8,16.6c-2.6,15.3-2.5,15.2,12.6,19.8c27.8,8.5,55.4,17.5,80.6,32.7c4.7,2.8,8.3,6.4,9.7,12
				c1.1,4.8-0.4,8.5-3.8,11.9c-3.3,3.1-6.9,2-10.2,0.3c-8.8-4.2-17.4-8.5-26.2-12.6c-17.8-8.2-35.7-16-54.7-21.2
				c-4.6-1.3-8-1.8-6.7,5.2c1.1,6.1,0.9,12.4,1.8,18.7c7,52.3,27.8,98.2,63.8,136.9c8,8.5,7.9,8.3,13.2-2.2
				c37.8-75.8,94.5-132.3,170.8-169c1.8-0.8,4.7-0.9,4.6-3.4c-0.1-2.1-2.9-2.7-4.6-3.8C249.1,372.9,191.5,357.4,123.3,356.7z
				 M417.2,247.8c2.1-2,3-2.7,3.9-3.5c7.1-6.6,12.7-7.2,18.1-2c5.5,5.4,4.9,11.7-1.9,18.8c-5.5,5.6-11,11.2-16.6,16.6
				c-2,2-3.4,4.2-3.4,7.2c0.1,18,0.1,36.1,0,54c0,3.5,1.5,5.3,4.9,4.9c19.1-2.1,38.1-4.7,54.8-15.2c17.8-11.2,13.2-17.1,1.9-25.1
				c-0.3-0.2-0.7-0.6-1-0.9c-17.5-11.5-20.5-28.2-17.6-47.3c3.6-25.6-0.3-49.3-16.4-70.7c-12.3-16.3-24.8-32.1-36.8-48.6
				c-3.3-4.6-4.5-3.5-7,0.4c-13.5,22-27.1,44.1-41.1,65.8c-4.9,7.5-5.4,13.7-0.2,21.5c13.4,19.7,13.2,35.7-0.2,54.4
				c-3.1,4.5-7,8.5-10.6,12.7c-3.9,4.4-7.5,8.8-10.2,13.9c-6.4,12.4-4.4,19.4,7.4,26.6c13.7,8.1,29,10.3,44.3,12.5
				c3.3,0.4,4.5-1.3,4.6-4.5c0.6-12.1,1-23.9-11-31.8c-4-2.6-7.1-6.6-10.3-10.1c-5.2-5.6-5.6-10.9-1.6-16.2
				c4.2-5.1,10.1-5.6,16.6-1.7c1.7,1,3.3,3.4,5.3,2.1c1.9-1.1,0.9-3.9,0.9-5.8c0.1-20.5,0-41.1,0.1-61.6c0-8.4,5.1-14.2,11.9-14
				c7,0.1,11,5.1,11.2,13.8C417.3,224.7,417.2,235.4,417.2,247.8z"/>
			<path fill="#FFFFFF" d="M217.2,281.1c-25.1,0-44.6-19.7-44.6-44.7c0-25.4,19.8-45,45.2-44.8c25,0.1,44.4,19.9,44.3,45.1
				C262,261.5,242.3,281.1,217.2,281.1z M238.8,236.1c-0.1-12.1-9.6-21.6-21.7-21.5c-12.1,0.1-21.6,9.6-21.5,21.7
				c0.1,12.1,9.7,21.6,21.7,21.5C229.6,257.7,239,248.3,238.8,236.1z"/>
			<path fill="#FFFFFF" d="M417.2,515.1c0,9.2-16,22.4-24.8,20.6c-4.2-0.8-7-3.3-8.2-7.4c-1.6-4.8-0.3-9.4,3.1-12.7
				c4.4-4,9.3-7.6,14.8-10C409.6,502.4,417.3,507.3,417.2,515.1z"/>
			<path fill="#FFFFFF" d="M177,478.6c-6.3-0.1-14.2-8.9-13.8-15.1c0.2-5.3,6.6-10.9,12.5-10.9c6,0,13.9,8.8,13.7,15.2
				C189.3,473.2,183.1,478.7,177,478.6z"/>
		</g>
	</g>
	<g id="reforestacion_2_" display="inline">
		<g>
			<path fill="#1ABC9C" d="M414,99c6.1,3.4,7.6,8.7,8.2,15.4c1.3,18.1-0.4,35.9-5.1,53.3c-9.6,35.7-33,57.3-68.4,66.5
				c-12.7,3.3-25.6,4.7-38.7,5.2c-3.8,0.1-5.5,1.2-5.5,5.3c0.1,62.2,0.1,124.3,0.1,186.6c0,0.7,0.1,1.3,0.2,2.5
				c8.2-8,16.2-15.7,24.2-23.5c1.3-1.2,0.8-3,0.4-4.6c-10.8-62.9,9.4-114.8,56.5-156.9c6.1-5.5,12.5-10.6,19.4-14.8
				c6.9-4.3,13.5-3.3,17.2,2.4c3.5,5.3,1.9,12.3-4.4,16.5c-19.3,13.4-36,29.2-48.3,49.3c-11.8,19.2-18.4,40-19.9,62.5
				c-0.4,7.8-1.6,15.5,0.6,23.3c2.2-0.3,3.3-2.2,4.5-3.6c23.2-23,46.2-46.1,69.2-69.2c1-1,2-2,3-3c5.8-5.6,12.6-6.2,17.4-1.6
				c4.9,4.7,4.5,11.9-1.3,17.8c-23.9,24.1-47.9,48-71.9,71.9c-1.3,1.3-2.7,2.8-4.7,4.9c10.9,1.8,21.2,1.7,31.1,0
				c61.7-10.1,101.6-46.1,121.3-104.9c6.6-19.9,6.9-40.6,3.4-61.3c-0.7-3.9-2.2-5.6-6.2-6c-6-0.4-11.9-1.2-17.8-1.9
				c-1.5-0.1-2.9-0.1-4.4-0.3c-7.4-1.1-11.5-5.7-11.1-12.3c0.3-6.2,4.9-10.5,12.3-10.7c8.3-0.2,16.6,1.1,24.8,2.4c3,0.4,6,1.3,9,1.9
				c8.9,1.3,12.8,6.7,14.5,15.2c12.9,64.4-7.1,117.7-55.3,160.7c-33.9,30.3-74.2,43.6-119.6,40.8c-6.1-0.3-12.3-1.6-18.2-2.7
				c-2.7-0.4-4.8-0.2-6.9,1.9c-11,11.1-22,22.1-33,33c-3,2.9-1.5,3.6,1.6,4.3c25.5,5.2,45.7,18.7,60.6,39.9c1.7,2.5,3.6,3.9,6.7,3.5
				c11.6-1.5,23.2-1.2,34.7,0c1.3,0.1,3.3,0.7,4-0.8c0.9-1.7-0.7-3-1.7-4.3c-4.2-5.3-9.7-7.9-16.4-8.5c-8-0.8-12.1-5.6-11.5-12.8
				c0.7-6.4,5.6-10,13.4-9.7c2.4,0.1,4.7,0.2,7,0.8c7.5,1.8,14.5,4.8,20,10.5c2.7,2.7,4.4,2.6,7.1,0c7.6-7.2,16.9-11,27.5-11.2
				c7.3-0.2,12.1,3.5,12.8,9.7c0.7,7.1-3.4,12.1-10.9,12.8c-8.7,0.8-15.2,4.5-19.2,12.3c-2.7,5.3-1.9,7.1,3.6,8.8
				c25.2,7.8,47.5,20.6,67.1,38.1c26.5,23.6,44.6,52.6,54.6,86.7c2.5,8.7-2.5,15.1-11.7,15.3c-0.7,0-1.5,0-2.1,0
				c-176.2,0-352.4,0-528.6,0.1c-6.2,0-11-1.5-14.2-7c0-2.9,0-5.8,0-8.7c5.5-16.4,12-32.1,21.4-46.9c23.5-36.9,55.9-62.3,97.1-76.4
				c9.8-3.4,10.8-6.6,3.9-14.6c-4-4.7-9.2-6.9-15.2-7.5c-8.3-0.9-12.4-5.3-11.9-12.5c0.4-6.6,5.5-10.3,13.5-10
				c10.2,0.3,19.1,4,26.5,11c2.8,2.6,4.5,3,7.5,0.2c7.8-7.4,17.3-11.1,28.1-11.2c6.9-0.1,11.6,3.8,12.1,9.9
				c0.7,6.9-3.4,12-10.5,12.6c-7.5,0.7-13.6,3.6-18.1,9.6c-0.7,1-1.8,2.1-0.9,3.4c0.7,1,2,0.8,3,0.7c12.3-1.3,24.6-1.5,36.9-0.1
				c2.6,0.3,3.9-1.3,5.2-3.1c15.5-22.5,36.8-36.1,63.6-40.8c3.8-0.7,5.1-2.1,5.1-6.1c-0.2-18.7-0.1-37.3,0-56c0-4-0.8-5.3-5.3-4.6
				c-91.4,15.1-170.8-55.3-182.1-133.6c-2.9-20.1-1.9-40.1,2.9-59.9c1.5-6.2,5.1-9.8,11.1-11.2c33.5-8.1,66.2-5.6,97.8,8.2
				c30,13.2,53.6,33.9,72,60.9c0.4,0.8,1.1,1.5,1.7,2.1c0.1,0.1,0.3,0.1,0.6,0.1c1.1-1.6,0.6-3.5,0.6-5.2
				c0.1-17.1-0.2-34.1,0.1-51.1c0.3-19.2,4.4-37.8,12.6-55.2c13.3-28.1,36.6-43,65.9-50.1c7.2-1.7,14.5-2.8,21.8-4.2
				C392.8,99,403.4,99,414,99z M323,633.8c71.9,0,143.9,0,215.9,0c5.8,0,5.8,0,3.6-5.5c-6.3-14.9-14.7-28.7-25.5-40.9
				c-31-35.2-69.8-54.4-116.9-56.3c-9.8-0.4-19.6,0.2-29.3,1.2c-5.4,0.6-9.4-1.8-12.3-6.4c-1.1-1.9-2.2-3.7-3.4-5.6
				c-27.8-44.1-93.2-45.7-122.1-2.4c-7.4,11.2-14.5,15.1-28.1,13.7c-32.7-3.4-63.8,3.7-92.5,20.1c-31.7,18.2-55,44.1-69.3,77.7
				c-1.5,3.4-1.1,4.5,2.8,4.4c8.5-0.2,17.1-0.2,25.5,0c4.2,0.1,6.2-1.5,7.6-5.3c6.9-17.8,18-32.6,32.1-45.2
				c9.2-8.3,19.7-14.8,31-19.8c6.3-2.7,12.6-0.3,15.2,5.3c2.6,5.5,0.7,11.2-5.2,14.8c-1.7,1-3.5,1.9-5.3,2.8
				c-18.1,9.2-32.1,22.8-42,40.5c-3.6,6.4-3.5,6.6,3.7,6.6C180.2,633.8,251.7,633.8,323,633.8z M146.1,212.1
				c-7.2,0.2-14.5,0.2-21.7,1.5c-3.5,0.6-5.5,2.1-6.1,5.7c-2.4,15.7-2.6,31.5,0.6,47.1c13,65.4,72.8,112.8,139.5,110.7
				c1.7,0,4.3,0.7,4.8-1.2c0.6-1.9-1.8-2.9-3-4.2c-18-18.1-36.1-36.2-54.2-54.3c-1.6-1.6-3.1-3-4.4-4.8c-3.4-4.7-3-10.5,0.8-14.4
				c3.8-4,9.6-4.7,14.4-1.6c1.9,1.2,3.7,2.9,5.3,4.6c18.2,18.2,36.4,36.4,54.6,54.5c1.1,1.1,2,3.3,3.7,2.6c1.7-0.6,1.3-2.8,1.3-4.4
				c0.3-8.5-0.2-17-1.3-25.5C272.3,267.1,212.4,210.2,146.1,212.1z M307.6,196.6c1.3-1.2,2.6-2.5,3.9-3.7c7.6-7.6,15.3-15.4,23-23
				c6.3-6.3,13.2-6.9,18.1-1.8c5.1,5.2,4.3,11.6-2.1,18.1c-4.9,5.1-9.9,10.1-14.9,14.9c-4.4,4.2-9,8.2-14.2,12.9
				c2.2,0.7,2.7,1,3.1,0.9c2.9-0.3,5.7-0.6,8.7-1c19.3-3.5,37.2-10,49.3-26.6c13.7-18.7,16.7-40.5,16.9-62.8c0-3.1-2.1-2.7-4.2-2.7
				c-8.5,0-17,0.8-25.3,2.6c-20.6,4.5-38.9,12.9-50.6,31.6C311.6,168.2,307.5,181.7,307.6,196.6z"/>
			<path fill="#1ABC9C" d="M440.6,224.3c0.1-6.2,5.3-11.1,11.6-11.2c6.3,0,11.9,5.6,11.7,11.8c-0.2,6.1-6.2,11.4-12.5,11.2
				C445.3,236,440.6,230.8,440.6,224.3z"/>
			<path fill="#1ABC9C" d="M191.3,575.7c-6.3-0.1-11.5-5.2-11.4-11.4c0-6.3,5.1-11,11.6-11.1c6.5,0,11.6,4.8,11.7,11
				C203.1,570.7,197.8,575.8,191.3,575.7z"/>
		</g>
	</g>
	<g id="revegetalizacion_2_" display="inline">
		<g>
			<path fill="#1ABC9C" d="M377.1,424.4c-8.9-14.2-31.2-41.6-73.1-46.1C294.7,85.3,435,120.8,435,120.8
				c-66.3,19.4-93.7,72.7-93.7,72.7c111,15.3,118.5-66.1,118.2-89.4c0-3.6-2.4-6.9-5.7-8c-137.5-45.5-162.6,175-162.6,175
				C251.2,118.5,158.7,136.6,132,145.4c-4.3,1.5-6.7,6-5.6,10.3c31.1,119,124.3,87.9,124.3,87.9c-31.4-60.6-88.9-72.7-88.9-72.7
				C298,181.6,286.4,359,284.8,377.8c-55.4,2.2-69.7,29.9-79.6,44.4c-2.4,3.5-6.3,5.7-10.6,6.1c-14,1-48.4,5.5-58.7,27.2
				c0,0,32.4,27.5,77.7,51.7c32,17.2,58,51.3,70.5,69.8c3.7,5.4,11.8,5.2,15.1-0.6c11-19.8,33.7-55.3,56.8-62.7
				c42.9-13.8,92.2-58.2,92.2-58.2s-29.3-28-57.8-24.6C385,431.5,379.9,428.9,377.1,424.4z M206.2,470c-7.9,0-14.3-6.4-14.3-14.3
				s6.4-14.3,14.3-14.3c7.9,0,14.3,6.4,14.3,14.3S214.1,470,206.2,470z M276.3,395.6c3.8,0,7,3.1,7,7c0,3.8-3.1,7-7,7
				c-3.8,0-7-3.1-7-7S272.4,395.6,276.3,395.6z M262.1,518.6c-11.6,0-21-9.4-21-21c0-11.6,9.4-21,21-21c11.6,0,21,9.4,21,21
				S273.7,518.6,262.1,518.6z M297.4,445.3c-7.9,0-14.3-6.4-14.3-14.3s6.4-14.3,14.3-14.3c7.9,0,14.3,6.4,14.3,14.3
				S305.3,445.3,297.4,445.3z M362.1,493.5c-11.6,0-21-9.4-21-21c0-11.6,9.4-21,21-21c11.6,0,21,9.4,21,21
				C383.2,484.1,373.7,493.5,362.1,493.5z M413.7,448.8c3.8,0,7,3.1,7,7c0,3.8-3.1,7-7,7c-3.8,0-7-3.1-7-7
				C406.8,451.9,409.9,448.8,413.7,448.8z"/>
			<path fill="#1ABC9C" d="M16.7,398.1c-0.1-3.8,4.7-5.6,7.2-2.6c11.1,13.7,32.8,46.2,46.3,103.7c18.8,80,81.3,85.3,106.1,90.6
				c0,0,11.6-23.3-13.9-46.9c-23-21.4-42.6-35.4-46.5-69.2c-0.4-3.9,4.3-6.4,7.2-3.7c8.1,7.3,23.4,20.2,50.4,39.7
				c46.1,33.4,106.1,50.9,106.8,157c0,0-88.6,15.7-183.8-70.4C25.2,527.1,17.3,429.8,16.7,398.1z"/>
			<path fill="#1ABC9C" d="M567.4,398.1c0.1-3.8-4.7-5.6-7.2-2.6c-11.1,13.7-32.8,46.2-46.3,103.7c-18.8,80-81.3,85.3-106.1,90.6
				c0,0-11.6-23.3,13.9-46.9c23-21.4,42.6-35.4,46.5-69.2c0.4-3.9-4.3-6.4-7.2-3.7c-8.1,7.3-23.4,20.2-50.4,39.7
				c-46.1,33.4-106.1,50.9-106.8,157c0,0,88.6,15.7,183.8-70.4C558.9,527.1,566.8,429.8,567.4,398.1z"/>
		</g>
	</g>
</g>
<g id="cercos" display="none">
	<g display="inline">
		<path fill="#FFFFFF" d="M14.6,517.1c3.1-3.8,7.2-5.1,12.1-4.9c16,0.2,32,0.1,48,0c1.8,0,3.7,0.6,6-0.8c-3.1-1.9-6-3.6-8.8-5.4
			c-12-8.2-15.7-23.6-8.7-35.7c7.3-12.6,22.6-17.5,35.5-10.5c21.7,11.9,43,24.4,64.4,37c4.5,2.7,6.5,2.2,9.1-2.4
			c9.3-16.2,28.5-21,40.8-8.9c7.3,7.3,13.8,13.4,24.5,13.5c0.9,0,1.7,0.7,2.6,1.1c7.8,4.2,7.6,4.2,12.7-3.5
			c6.3-9.8,15.5-13.9,26.9-12.6c11.2,1.5,20.1,9.7,22,21c1.1,6.1,3.7,7.3,9.3,7.3c91.9-0.2,183.9-0.1,275.8-0.2
			c5.1,0,9.4,0.9,12.7,4.9c0,14.5,0,29,0,43.4c-2.7,4.4-6.9,5.7-11.7,5.7c-43.4,0-86.8,0-130.2,0c-2,0-4.3-0.3-6.2-1
			c-4-1.3-6.3-4.5-6.2-8.7c0.1-4.5,2.8-7.5,7.1-8.5c2.1-0.6,4.5-0.3,6.9-0.3c38.4,0,76.9,0,115.3-0.1c2.5,0,6.2,1.5,7-1.9
			c1-4.4,1.1-9.1-0.3-13.5c-0.3-1.1-1.9-1.2-3-1.2c-1.7-0.1-3.4-0.1-5.2-0.1c-90,0-180.1,0-270.1,0c-2.1,0-4.5-0.7-7.5,1.1
			c13.6,6.4,24.1,16.9,40.7,16c25.3-1.3,50.6-0.3,76-0.3c2.1,0,4.3-0.1,6.3,0.2c4.6,0.9,7.4,3.9,7.6,8.7c0.2,4.5-2.2,7.6-6.6,8.9
			c-2.5,0.7-5.3,0.8-7.9,0.9c-18.1,0.1-36.1,0-56,0c3.6,2.2,5.7,3.5,7.9,4.9c13.4,8.5,17.5,24.2,9.9,37.2
			c-7.5,12.8-22.9,17.1-36.8,9.3c-21.5-12-42.7-24.3-63.8-36.8c-3.9-2.4-5.5-1.9-7.8,2.1c-7.1,12.7-18.3,18.1-30.8,15.2
			c-7.6-1.7-13.6-6.1-17.2-13c-1.6-2.9-3.4-4-6.7-4c-5.8,0-11.5-1.6-16.1-5.2c-4.4-3.5-6.3-1.9-8.5,2.4c-4.7,9.3-12.6,14.6-23,15.5
			c-13.6,1.1-25.6-8-27.9-21.7c-0.8-5.1-2.8-6.1-7.4-6.1c-33.2,0.1-66.2,0.1-99.4,0.1c-5.3,0-10.3-0.6-13.4-5.7
			C14.6,546.1,14.6,531.6,14.6,517.1z M141.8,546c-1.5-0.6-2.2-0.8-2.8-1.2c-13.9-9.4-28.3-17-46.1-13.9c-1.7,0.3-3.4,0-5.2,0
			c-16.5,0-33.2,0.1-49.7-0.1c-4.4,0-6.5,1.3-6,6c0.1,1.3,0.2,2.7,0,3.9c-0.8,5.5,1.6,7.1,7,7.1c31.8-0.2,63.5-0.1,95.3-0.1
			C136.3,547.7,138.2,548.1,141.8,546z M86.5,475.2c-2.9-0.1-5.2,1.1-6.7,3.5c-3.3,4.7-1.8,9.6,4.4,13.2
			c19.1,11.1,38.2,22.1,57.3,33.2c9.8,5.6,9.6,5.5,15.3-3.8c2.5-3.9,2.2-6-2-8.3c-20.6-11.6-40.9-23.5-61.4-35.3
			C91.3,476.2,89.1,475,86.5,475.2z M358.4,594c0.1-3.9-2.7-6-6-7.9c-19.1-11-38.2-22-57.2-33.2c-11.6-6.7-8.5-6-14.9,3.8
			c-2.8,4.4-1.8,6.4,2.5,8.8c16.4,9.2,32.6,18.8,48.9,28.1c4.6,2.7,9.1,5.6,13.8,7.9C352.4,604.9,358.5,601.3,358.4,594z
			 M241.2,580.7c3.5,0,5.7-2.8,7.5-6.1c6.7-11.7,13.5-23.4,20.2-35.1c4.6-8.1,9.3-16.2,13.8-24.3c1.9-3.4,1.9-7-0.9-10.1
			c-2.5-2.8-5.6-3.1-8.9-2.2c-2.9,0.8-4.5,3.4-6,5.8c-6.2,10.7-12.4,21.5-18.5,32.1c-5.1,8.8-10.2,17.4-15.1,26.2
			C229.7,574,233.2,580.6,241.2,580.7z M161.3,575.9c3.9-0.4,6.5-2.9,8.4-6.2c3.9-6.7,7.8-13.5,11.7-20.2
			c7.2-12.6,14.5-25.1,21.6-37.7c3.4-6,2-11.7-3.1-13.4c-4.9-1.7-8.9,0.1-11.5,4.7c-7.4,13-15.1,26.1-22.6,39.1
			c-3.8,6.6-7.8,13.2-11.4,19.9C150.8,568.9,154.4,576,161.3,575.9z M235.9,524.4c-0.4-4.5-2.4-7.5-6.1-8.8
			c-4.5-1.5-7.9,0.8-10.1,4.4c-5.6,9.2-11,18.5-16.3,28c-3.4,6-2.6,10.8,1.9,13.5c4.4,2.7,9.3,1,12.7-4.8
			c5.5-9.3,10.9-18.7,16.2-28.1C235,527.2,235.5,525.5,235.9,524.4z"/>
		<path fill="#FFFFFF" d="M599.6,279.5c-3.4,3.9-7.6,5.1-12.8,4.9c-16.3-0.2-32.6-0.1-50.2-0.1c2.8,1.8,4.4,2.7,5.8,3.8
			c9.2,6.4,13.9,17.2,11.4,27.9c-2.6,11-8.8,19-20.3,21.5c-7.8,1.6-14.7-1-21.2-4.8c-20.3-11.6-40.7-23.3-60.8-35.2
			c-4.6-2.7-6.7-2.5-9.6,2.5c-11.4,19.7-36.2,19.9-47.8,0.6c-1.6-2.7-3.4-3.7-6.4-3.6c-6.1,0.2-11.8-1.5-16.5-5.3
			c-3.6-2.8-5.4-2.1-7.3,1.7c-4.5,9.1-11.7,14.8-22,16.2c-13.5,1.7-25.3-5.5-28.8-18.7c-1.5-5.4-3.8-6.7-9-6.7
			c-91.9,0.1-184,0.1-275.9,0.2c-5.2,0-9.8-0.8-13.4-4.9c0-14.5,0-29,0-43.4c2.4-4.4,6.3-5.8,11-5.8c32.6,0,65.1-0.1,97.7,0
			c7,0,11.4,3.9,11.4,9.6c0,5.5-4.4,9.1-11.6,9.1c-28,0-56,0.1-84-0.1c-5.5,0-7.8,1.6-7,7.1c0.2,1.3,0.1,2.7,0,4
			c-0.6,4.6,1.7,6.2,6,5.7c0.9-0.1,1.9,0,2.8,0c89.7,0,179.4,0,269.1-0.1c2.8,0,7.2,1.7,8-2c0.8-3.4-3.9-3.7-6.2-5.5
			c-10.2-8-21.9-9.7-34.7-9.4c-36,0.6-71.9,0.2-107.9,0.2c-1.9,0-3.8,0.1-5.7-0.1c-5.6-0.4-9.3-3.8-9.6-8.8c-0.3-5.1,3.3-9,9.1-9.8
			c2-0.2,4.2-0.2,6.3-0.2c28.8,0,57.5,0,86.2,0c2,0,4,0.6,6.5-0.8c-4-2.4-7.9-4.5-11.5-6.7c-12.1-7.6-16.7-22.1-11-34.2
			c6.2-13,20.2-19.1,34.1-13.7c12.8,5.1,23.9,13.3,36,19.9c10.7,6,21.1,12,31.6,18.3c3.9,2.4,6,1.9,8.4-2.2
			c8.7-14.6,21.4-19,35.9-12.9c5.5,2.4,9.6,6.3,12.3,11.5c1.5,2.7,3.1,3.9,6.2,3.8c6.7-0.4,12.8,1.8,18,6c2.5,2,3.8,1.5,5.4-1
			c1.7-2.8,3.4-5.5,5.4-8.1c7.5-9.2,17.8-12,29.2-8.3c10,3.3,17.5,12.4,18,23.4c0.2,5.1,2.7,5.4,6.5,5.4c33.3-0.1,66.7,0,99.9,0
			c5.4,0,10.3,0.6,13.3,5.8C599.6,250.5,599.6,265,599.6,279.5z M476.6,249.8c7.3,4.3,14.4,8.1,21.2,12.4c4,2.6,8.2,3.5,12.9,3.5
			c20.7-0.1,41.5-0.1,62.2-0.1c9.3,0,9.3,0,9.2-9.3c0-7.4,0-7.4-7.6-7.4c-30.8,0-61.6,0-92.4,0C480.5,248.9,478.7,248.4,476.6,249.8
			z M265.1,190.9c-5.2-0.1-8.9,3.4-9.2,7.8c-0.3,4.9,2.6,7.5,6.5,9.8c18.7,10.7,37.2,21.6,56,32.1c12.4,7,9,7.5,16.4-4.5
			c2-3.1,1.3-5.1-1.8-6.9c-21-12-41.9-24.1-62.9-36.1C268.3,192.1,266.3,191.4,265.1,190.9z M527.7,319.1c0.7-0.2,1.8-0.3,2.8-0.8
			c3.1-1.5,5.5-3.7,5.6-7.3c0.1-4.3-2.6-6.9-6.1-8.9c-19-10.9-37.8-21.9-56.8-32.7c-12.6-7.1-8.5-7.6-16.3,4.6
			c-1.9,3-1.7,4.8,1.7,6.7c21,11.9,41.8,24.1,62.7,36.1C523.2,317.8,525.1,318.8,527.7,319.1z M382.3,221.7c0-4-2.1-6.4-5.4-7.6
			c-4-1.5-7.6-0.2-10,3.4c-3.3,4.9-6.1,10.1-9,15.2c-8.7,14.9-17.4,29.9-26,45c-3.7,6.6-1,13.4,5.5,14c4.7,0.6,7.3-2.4,9.4-6
			c11-19.1,22-38.2,33-57.2C381.4,226.2,382.4,224,382.3,221.7z M417.9,296.4c3.7,0.1,6-1.9,7.8-4.8c3-5.3,6.1-10.5,9.2-15.7
			c7.8-13.5,15.6-27,23.4-40.5c0.9-1.5,1.8-2.9,2.4-4.5c1.6-4.6,1.1-8.7-3.5-11.4c-3.8-2.2-8.4-1-11.2,3.5
			c-4.7,7.6-9.1,15.4-13.5,23.2c-7.2,12.4-14.4,24.6-21.4,37.1C407.1,289.6,410.8,296.4,417.9,296.4z M387.7,278.8
			c1.9-0.3,4.5-1,5.8-3.3c6.5-10.9,13-21.8,19.1-32.9c2-3.8,0.6-8.1-3.7-10.1c-3.9-1.9-8.3-1.7-10.7,2.1
			c-6.5,10.7-12.8,21.5-18.8,32.5C376.6,272.4,381.1,278.7,387.7,278.8z"/>
		<path fill="#FFFFFF" d="M599.6,418.9c-2.9,4.4-7.1,5.1-11.9,5.1c-45.6-0.1-91.4,0-137,0c-2,0-4.2,0-7.8,0c3.9,2.4,6.6,3.9,9.2,5.5
			c12.8,8,17.2,23.5,10.2,36.2c-6.9,12.5-23.6,17.6-36.6,10.5c-19.1-10.6-38-21.8-57-32.7c-0.3-0.2-0.7-0.4-1-0.6
			c-3.5-1.9-7.1-5.3-10.6-5.2c-3.7,0-4.4,5.6-6.6,8.5c-12.1,15.5-35.4,14.2-45.2-2.9c-1.6-2.8-3-4-6.5-3.9c-6.4,0.1-12.5-2-17.5-6
			c-2.9-2.2-4.4-1.8-6,1.3c-3.8,8.1-9.8,13.9-18.7,16.4c-15.1,4.3-30.1-4.3-33-19.7c-1.2-6.3-3.7-7.6-9.7-7.6
			c-62.5,0.2-124.9,0.1-187.4,0.2c-4.8,0-9.1-0.7-11.9-5.1c0-14.5,0-29,0-43.4c2.8-4.5,7.1-5.1,11.9-5.1c45.5,0.1,91,0.1,136.6,0
			c2,0,4.2,0.6,6.6-0.7c-3-1.8-5.7-3.4-8.4-5.1c-13.2-8.5-17-23.6-9.3-36.9c7.2-12.4,23.2-16.9,36.3-9.4
			c21.5,12,42.6,24.4,63.8,36.9c4,2.4,6.2,2.2,8.3-2.1c10.3-21.7,40-20.1,48.9-0.3c1,2.1,2.4,2.5,4.5,2.5c7.1-0.2,13.6,1.5,19.1,6.2
			c2.2,2,3.7,1.9,5.3-0.9c2.1-4,4.4-8,7.9-11.1c8-7.2,17.1-9.1,27.1-5.6s16.3,10.8,17.5,21.4c0.6,5.1,2.6,5.7,6.9,5.7
			c30.8-0.1,61.7-0.1,92.5-0.1c2.1,0,4.3-0.1,6.3,0.2c4.8,0.7,7.5,3.7,7.6,8.5c0.1,4.8-2.6,7.9-7.2,9c-2,0.4-4.2,0.2-6.3,0.2
			c-33.2,0-66.3,0-99.4,0c-2,0-4,0-7.2,0c3.7,4.5,8.1,5.6,11.4,8.1c10.6,8,22.3,9.8,35.3,9.6c48-0.6,96-0.2,144-0.2
			c7.5,0,7.5,0,7.5-7.5c0-1.6-0.1-3,0-4.6c0.4-4.4-1.6-5.5-5.7-5.5c-13.2,0.2-26.3,0.1-39.5,0.1c-1.7,0-3.5,0.1-5.2-0.1
			c-5.1-0.4-8.8-4.3-8.8-8.9c0-4.8,3.8-8.9,9.2-8.9c12.4-0.2,24.7-0.1,37.1-0.1c6.5,0,12.9,0.1,19.4,0c4.6-0.1,8.2,1.2,10.8,5.1
			C599.6,389.9,599.6,404.4,599.6,418.9z M229,405.9c0.2-0.6,0.4-1.2,0.7-1.8c-7-4-14.2-8-21-12.3c-4.3-2.6-8.5-3.6-13.5-3.6
			c-51.6,0.1-103.2,0.1-154.8,0.1c-1.3,0-2.7,0.1-4,0c-2.8-0.1-4.3,1-4.2,4c0.1,1.7,0,3.4,0,5.2c0,8.3,0,8.3,8.4,8.3
			c60.7,0,121.5,0,182.2,0C224.9,405.9,226.9,405.9,229,405.9z M447.2,452.8c-0.2-4.3-2.8-6.7-6.4-8.8
			c-18.8-10.8-37.5-21.7-56.3-32.6c-10.8-6.2-10.6-6.1-16.6,4.7c-1.9,3.5-1,4.9,2,6.6c7.6,4.3,15.2,8.8,22.8,13
			c13.4,7.8,26.6,15.5,40.1,23C439.8,463,447.2,459.8,447.2,452.8z M166.9,341.8c-0.2,4.5,3.3,6.7,7,8.9
			c18.3,10.6,36.5,21.2,55,31.6c12.4,7.1,9.2,8.8,17.6-5.2c1.7-2.7,0.9-3.9-1.7-5.3c-5.6-3.1-11.2-6.4-16.9-9.7
			c-15.5-9-31-17.9-46.5-26.8C174.2,331.2,167.1,334.1,166.9,341.8z M372.8,368.5c-0.7-3.5-2.1-6.6-6-7.5c-4.6-1.1-8.2,0.3-10.6,4.6
			c-7,12.3-14,24.4-21.1,36.5c-4.5,7.8-9.1,15.4-13.3,23.3c-2.7,5.1-1.6,9.3,2.6,11.9c4.5,2.8,9.3,1.2,12.7-4.6
			c11.1-19.1,22.1-38.2,33.2-57.3C371.6,373.4,372.6,371.1,372.8,368.5z M293.2,364c0.2-3.1-0.9-5.5-3.7-7.1
			c-2.9-1.7-5.7-1.7-8.7,0.1c-2.1,1.3-3.6,3.4-4.8,5.5c-10.9,18.9-21.9,37.8-32.7,56.8c-3.4,5.8-2.5,10.9,2.1,13.4
			c4.5,2.5,9.3,0.7,12.7-5.1c10.9-18.7,21.7-37.4,32.5-56.2C292,369.1,293.4,366.8,293.2,364z M324,382c0-4.3-1.9-7-5.5-8.1
			c-4.6-1.5-8.2,0.3-10.7,4.5c-5.6,9.4-11.1,19-16.5,28.7c-2.9,5.3-1.8,10.3,2.6,12.8c4.5,2.6,9,1,12.3-4.6
			c5.4-9.1,10.6-18.4,16-27.6C323.3,385.7,324.2,383.9,324,382z"/>
	</g>
</g>
<g id="Layer_9" display="none">
	<g display="inline">
		<path fill="#FFFFFF" d="M976.4,1071.3L680.3,764.9c-1.5-1.5-3.4-2.4-5.5-2.4H157.4c-1.9,0-3.8,0.8-5.3,2.1l-324.7,306.8
			c-1.5,1.3-3.3,2.1-5.3,2.1h-90.1c-4.2,0-7.6,3.4-7.6,7.6l0,0c0,4.2,3.4,7.6,7.6,7.6h1306c4.2,0,7.6-3.4,7.6-7.6l0,0
			c0-4.2-3.4-7.6-7.6-7.6h-56.1C979.9,1073.7,977.9,1072.8,976.4,1071.3z M166.7,782.4h503.5c2,0,4,0.8,5.5,2.4l266.7,276
			c4.7,4.8,1.2,12.9-5.5,12.9H-125.4c-6.9,0-10.2-8.4-5.3-13.2l292-276C162.9,783.2,164.8,782.4,166.7,782.4z"/>
		
			<line fill="none" stroke="#FFFFFF" stroke-width="4" stroke-linecap="round" stroke-linejoin="round" stroke-miterlimit="10" x1="-363.8" y1="1109.6" x2="-338.4" y2="1130.6"/>
		
			<line fill="none" stroke="#FFFFFF" stroke-width="4" stroke-linecap="round" stroke-linejoin="round" stroke-miterlimit="10" x1="-363.8" y1="1091.6" x2="-308.4" y2="1136.5"/>
		
			<line fill="none" stroke="#FFFFFF" stroke-width="4" stroke-linecap="round" stroke-linejoin="round" stroke-miterlimit="10" x1="-343.4" y1="1091.6" x2="-288" y2="1136.5"/>
		
			<line fill="none" stroke="#FFFFFF" stroke-width="4" stroke-linecap="round" stroke-linejoin="round" stroke-miterlimit="10" x1="-321.9" y1="1091.6" x2="-266.4" y2="1136.5"/>
		
			<line fill="none" stroke="#FFFFFF" stroke-width="4" stroke-linecap="round" stroke-linejoin="round" stroke-miterlimit="10" x1="-296.8" y1="1097.5" x2="-241.4" y2="1142.5"/>
		
			<line fill="none" stroke="#FFFFFF" stroke-width="4" stroke-linecap="round" stroke-linejoin="round" stroke-miterlimit="10" x1="-274" y1="1100.7" x2="-218.6" y2="1145.6"/>
		
			<line fill="none" stroke="#FFFFFF" stroke-width="4" stroke-linecap="round" stroke-linejoin="round" stroke-miterlimit="10" x1="-256" y1="1100.7" x2="-200.6" y2="1145.6"/>
		
			<line fill="none" stroke="#FFFFFF" stroke-width="4" stroke-linecap="round" stroke-linejoin="round" stroke-miterlimit="10" x1="-231.9" y1="1103.8" x2="-176.5" y2="1148.8"/>
		
			<line fill="none" stroke="#FFFFFF" stroke-width="4" stroke-linecap="round" stroke-linejoin="round" stroke-miterlimit="10" x1="-213.1" y1="1106.1" x2="-157.7" y2="1151"/>
		
			<line fill="none" stroke="#FFFFFF" stroke-width="4" stroke-linecap="round" stroke-linejoin="round" stroke-miterlimit="10" x1="-193.1" y1="1106.1" x2="-137.7" y2="1151"/>
		
			<line fill="none" stroke="#FFFFFF" stroke-width="4" stroke-linecap="round" stroke-linejoin="round" stroke-miterlimit="10" x1="-185.5" y1="1095.2" x2="-129.9" y2="1140.1"/>
		
			<line fill="none" stroke="#FFFFFF" stroke-width="4" stroke-linecap="round" stroke-linejoin="round" stroke-miterlimit="10" x1="-169.4" y1="1095.2" x2="-113.9" y2="1140.1"/>
		
			<line fill="none" stroke="#FFFFFF" stroke-width="4" stroke-linecap="round" stroke-linejoin="round" stroke-miterlimit="10" x1="-143.4" y1="1097.5" x2="-88" y2="1142.5"/>
		
			<line fill="none" stroke="#FFFFFF" stroke-width="4" stroke-linecap="round" stroke-linejoin="round" stroke-miterlimit="10" x1="-129.9" y1="1095.2" x2="-74.5" y2="1140.1"/>
		
			<line fill="none" stroke="#FFFFFF" stroke-width="4" stroke-linecap="round" stroke-linejoin="round" stroke-miterlimit="10" x1="-100.4" y1="1102.2" x2="-45" y2="1147.2"/>
		
			<line fill="none" stroke="#FFFFFF" stroke-width="4" stroke-linecap="round" stroke-linejoin="round" stroke-miterlimit="10" x1="-88" y1="1097.5" x2="-32.6" y2="1142.5"/>
		
			<line fill="none" stroke="#FFFFFF" stroke-width="4" stroke-linecap="round" stroke-linejoin="round" stroke-miterlimit="10" x1="-68.4" y1="1097.5" x2="-13" y2="1142.5"/>
		
			<line fill="none" stroke="#FFFFFF" stroke-width="4" stroke-linecap="round" stroke-linejoin="round" stroke-miterlimit="10" x1="-49.8" y1="1095.2" x2="5.6" y2="1140.1"/>
		
			<line fill="none" stroke="#FFFFFF" stroke-width="4" stroke-linecap="round" stroke-linejoin="round" stroke-miterlimit="10" x1="-35.9" y1="1091.6" x2="19.6" y2="1136.5"/>
		
			<line fill="none" stroke="#FFFFFF" stroke-width="4" stroke-linecap="round" stroke-linejoin="round" stroke-miterlimit="10" x1="-10.9" y1="1095.2" x2="44.5" y2="1140.1"/>
		
			<line fill="none" stroke="#FFFFFF" stroke-width="4" stroke-linecap="round" stroke-linejoin="round" stroke-miterlimit="10" x1="7.2" y1="1095.2" x2="62.6" y2="1140.1"/>
		
			<line fill="none" stroke="#FFFFFF" stroke-width="4" stroke-linecap="round" stroke-linejoin="round" stroke-miterlimit="10" x1="27.1" y1="1095.2" x2="82.6" y2="1140.1"/>
		
			<line fill="none" stroke="#FFFFFF" stroke-width="4" stroke-linecap="round" stroke-linejoin="round" stroke-miterlimit="10" x1="44.5" y1="1093.4" x2="100" y2="1138.3"/>
		
			<line fill="none" stroke="#FFFFFF" stroke-width="4" stroke-linecap="round" stroke-linejoin="round" stroke-miterlimit="10" x1="62.6" y1="1093.4" x2="118.1" y2="1138.3"/>
		
			<line fill="none" stroke="#FFFFFF" stroke-width="4" stroke-linecap="round" stroke-linejoin="round" stroke-miterlimit="10" x1="79.2" y1="1093.4" x2="134.7" y2="1138.3"/>
		
			<line fill="none" stroke="#FFFFFF" stroke-width="4" stroke-linecap="round" stroke-linejoin="round" stroke-miterlimit="10" x1="97.8" y1="1093.4" x2="153.3" y2="1138.3"/>
		
			<line fill="none" stroke="#FFFFFF" stroke-width="4" stroke-linecap="round" stroke-linejoin="round" stroke-miterlimit="10" x1="119.7" y1="1095.2" x2="175.1" y2="1140.1"/>
		
			<line fill="none" stroke="#FFFFFF" stroke-width="4" stroke-linecap="round" stroke-linejoin="round" stroke-miterlimit="10" x1="134.7" y1="1088.9" x2="190.1" y2="1133.8"/>
		
			<line fill="none" stroke="#FFFFFF" stroke-width="4" stroke-linecap="round" stroke-linejoin="round" stroke-miterlimit="10" x1="166.2" y1="1099" x2="221.6" y2="1143.9"/>
		
			<line fill="none" stroke="#FFFFFF" stroke-width="4" stroke-linecap="round" stroke-linejoin="round" stroke-miterlimit="10" x1="187.9" y1="1099" x2="243.3" y2="1143.9"/>
		
			<line fill="none" stroke="#FFFFFF" stroke-width="4" stroke-linecap="round" stroke-linejoin="round" stroke-miterlimit="10" x1="199.7" y1="1095.2" x2="255.1" y2="1140.1"/>
		
			<line fill="none" stroke="#FFFFFF" stroke-width="4" stroke-linecap="round" stroke-linejoin="round" stroke-miterlimit="10" x1="221.6" y1="1097.3" x2="277.1" y2="1142.3"/>
		
			<line fill="none" stroke="#FFFFFF" stroke-width="4" stroke-linecap="round" stroke-linejoin="round" stroke-miterlimit="10" x1="239.9" y1="1097.3" x2="295.4" y2="1142.3"/>
		
			<line fill="none" stroke="#FFFFFF" stroke-width="4" stroke-linecap="round" stroke-linejoin="round" stroke-miterlimit="10" x1="260.2" y1="1099" x2="315.7" y2="1143.9"/>
		
			<line fill="none" stroke="#FFFFFF" stroke-width="4" stroke-linecap="round" stroke-linejoin="round" stroke-miterlimit="10" x1="280.5" y1="1099" x2="336.1" y2="1143.9"/>
		
			<line fill="none" stroke="#FFFFFF" stroke-width="4" stroke-linecap="round" stroke-linejoin="round" stroke-miterlimit="10" x1="291.2" y1="1093.4" x2="346.6" y2="1138.3"/>
		
			<line fill="none" stroke="#FFFFFF" stroke-width="4" stroke-linecap="round" stroke-linejoin="round" stroke-miterlimit="10" x1="305.8" y1="1088.9" x2="361.4" y2="1133.8"/>
		
			<line fill="none" stroke="#FFFFFF" stroke-width="4" stroke-linecap="round" stroke-linejoin="round" stroke-miterlimit="10" x1="337.8" y1="1100.6" x2="393.2" y2="1145.5"/>
		
			<line fill="none" stroke="#FFFFFF" stroke-width="4" stroke-linecap="round" stroke-linejoin="round" stroke-miterlimit="10" x1="351.8" y1="1097.3" x2="407.2" y2="1142.3"/>
		
			<line fill="none" stroke="#FFFFFF" stroke-width="4" stroke-linecap="round" stroke-linejoin="round" stroke-miterlimit="10" x1="365.5" y1="1091.6" x2="420.9" y2="1136.5"/>
		
			<line fill="none" stroke="#FFFFFF" stroke-width="4" stroke-linecap="round" stroke-linejoin="round" stroke-miterlimit="10" x1="387" y1="1091.6" x2="442.5" y2="1136.5"/>
		
			<line fill="none" stroke="#FFFFFF" stroke-width="4" stroke-linecap="round" stroke-linejoin="round" stroke-miterlimit="10" x1="412" y1="1097.5" x2="467.5" y2="1142.5"/>
		
			<line fill="none" stroke="#FFFFFF" stroke-width="4" stroke-linecap="round" stroke-linejoin="round" stroke-miterlimit="10" x1="434.9" y1="1100.7" x2="490.3" y2="1145.6"/>
		
			<line fill="none" stroke="#FFFFFF" stroke-width="4" stroke-linecap="round" stroke-linejoin="round" stroke-miterlimit="10" x1="452.8" y1="1100.7" x2="508.3" y2="1145.6"/>
		
			<line fill="none" stroke="#FFFFFF" stroke-width="4" stroke-linecap="round" stroke-linejoin="round" stroke-miterlimit="10" x1="477" y1="1103.8" x2="532.4" y2="1148.8"/>
		
			<line fill="none" stroke="#FFFFFF" stroke-width="4" stroke-linecap="round" stroke-linejoin="round" stroke-miterlimit="10" x1="495.8" y1="1106.1" x2="551.2" y2="1151"/>
		
			<line fill="none" stroke="#FFFFFF" stroke-width="4" stroke-linecap="round" stroke-linejoin="round" stroke-miterlimit="10" x1="515.8" y1="1106.1" x2="571.2" y2="1151"/>
		
			<line fill="none" stroke="#FFFFFF" stroke-width="4" stroke-linecap="round" stroke-linejoin="round" stroke-miterlimit="10" x1="523.4" y1="1095.2" x2="579" y2="1140.1"/>
		
			<line fill="none" stroke="#FFFFFF" stroke-width="4" stroke-linecap="round" stroke-linejoin="round" stroke-miterlimit="10" x1="539.5" y1="1095.2" x2="595" y2="1140.1"/>
		
			<line fill="none" stroke="#FFFFFF" stroke-width="4" stroke-linecap="round" stroke-linejoin="round" stroke-miterlimit="10" x1="565.5" y1="1097.5" x2="620.9" y2="1142.5"/>
		
			<line fill="none" stroke="#FFFFFF" stroke-width="4" stroke-linecap="round" stroke-linejoin="round" stroke-miterlimit="10" x1="579" y1="1095.2" x2="634.4" y2="1140.1"/>
		
			<line fill="none" stroke="#FFFFFF" stroke-width="4" stroke-linecap="round" stroke-linejoin="round" stroke-miterlimit="10" x1="608.5" y1="1102.2" x2="663.9" y2="1147.2"/>
		
			<line fill="none" stroke="#FFFFFF" stroke-width="4" stroke-linecap="round" stroke-linejoin="round" stroke-miterlimit="10" x1="620.9" y1="1097.5" x2="676.3" y2="1142.5"/>
		
			<line fill="none" stroke="#FFFFFF" stroke-width="4" stroke-linecap="round" stroke-linejoin="round" stroke-miterlimit="10" x1="640.4" y1="1097.5" x2="695.8" y2="1142.5"/>
		
			<line fill="none" stroke="#FFFFFF" stroke-width="4" stroke-linecap="round" stroke-linejoin="round" stroke-miterlimit="10" x1="659.1" y1="1095.2" x2="714.5" y2="1140.1"/>
		
			<line fill="none" stroke="#FFFFFF" stroke-width="4" stroke-linecap="round" stroke-linejoin="round" stroke-miterlimit="10" x1="673" y1="1091.6" x2="728.4" y2="1136.5"/>
		
			<line fill="none" stroke="#FFFFFF" stroke-width="4" stroke-linecap="round" stroke-linejoin="round" stroke-miterlimit="10" x1="698" y1="1095.2" x2="753.4" y2="1140.1"/>
		
			<line fill="none" stroke="#FFFFFF" stroke-width="4" stroke-linecap="round" stroke-linejoin="round" stroke-miterlimit="10" x1="716.1" y1="1095.2" x2="771.5" y2="1140.1"/>
		
			<line fill="none" stroke="#FFFFFF" stroke-width="4" stroke-linecap="round" stroke-linejoin="round" stroke-miterlimit="10" x1="736" y1="1095.2" x2="791.5" y2="1140.1"/>
		
			<line fill="none" stroke="#FFFFFF" stroke-width="4" stroke-linecap="round" stroke-linejoin="round" stroke-miterlimit="10" x1="753.4" y1="1093.4" x2="808.9" y2="1138.3"/>
		
			<line fill="none" stroke="#FFFFFF" stroke-width="4" stroke-linecap="round" stroke-linejoin="round" stroke-miterlimit="10" x1="771.5" y1="1093.4" x2="827" y2="1138.3"/>
		
			<line fill="none" stroke="#FFFFFF" stroke-width="4" stroke-linecap="round" stroke-linejoin="round" stroke-miterlimit="10" x1="788.1" y1="1093.4" x2="843.5" y2="1138.3"/>
		
			<line fill="none" stroke="#FFFFFF" stroke-width="4" stroke-linecap="round" stroke-linejoin="round" stroke-miterlimit="10" x1="806.7" y1="1093.4" x2="862.2" y2="1138.3"/>
		
			<line fill="none" stroke="#FFFFFF" stroke-width="4" stroke-linecap="round" stroke-linejoin="round" stroke-miterlimit="10" x1="828.6" y1="1095.2" x2="884" y2="1140.1"/>
		
			<line fill="none" stroke="#FFFFFF" stroke-width="4" stroke-linecap="round" stroke-linejoin="round" stroke-miterlimit="10" x1="843.5" y1="1088.9" x2="898.9" y2="1133.8"/>
		
			<line fill="none" stroke="#FFFFFF" stroke-width="4" stroke-linecap="round" stroke-linejoin="round" stroke-miterlimit="10" x1="875.1" y1="1099" x2="930.5" y2="1143.9"/>
		
			<line fill="none" stroke="#FFFFFF" stroke-width="4" stroke-linecap="round" stroke-linejoin="round" stroke-miterlimit="10" x1="896.8" y1="1099" x2="952.2" y2="1143.9"/>
		
			<line fill="none" stroke="#FFFFFF" stroke-width="4" stroke-linecap="round" stroke-linejoin="round" stroke-miterlimit="10" x1="908.6" y1="1095.2" x2="964.1" y2="1140.1"/>
		
			<line fill="none" stroke="#FFFFFF" stroke-width="4" stroke-linecap="round" stroke-linejoin="round" stroke-miterlimit="10" x1="930.5" y1="1097.3" x2="985.9" y2="1142.3"/>
		
			<line fill="none" stroke="#FFFFFF" stroke-width="4" stroke-linecap="round" stroke-linejoin="round" stroke-miterlimit="10" x1="948.7" y1="1097.3" x2="1004.3" y2="1142.3"/>
		
			<line fill="none" stroke="#FFFFFF" stroke-width="4" stroke-linecap="round" stroke-linejoin="round" stroke-miterlimit="10" x1="969.1" y1="1099" x2="1024.6" y2="1143.9"/>
		
			<line fill="none" stroke="#FFFFFF" stroke-width="4" stroke-linecap="round" stroke-linejoin="round" stroke-miterlimit="10" x1="989.4" y1="1099" x2="1049.8" y2="1147.9"/>
		
			<line fill="none" stroke="#FFFFFF" stroke-width="4" stroke-linecap="round" stroke-linejoin="round" stroke-miterlimit="10" x1="1000.1" y1="1093.4" x2="1063.6" y2="1143.9"/>
		
			<line fill="none" stroke="#FFFFFF" stroke-width="4" stroke-linecap="round" stroke-linejoin="round" stroke-miterlimit="10" x1="1017.9" y1="1088.9" x2="1073.3" y2="1133.8"/>
	</g>
</g>
<g id="MAQUINARIA_BLANCO" display="none">
	<g display="inline">
		<polyline fill="none" points="440.3,202.2 441,202.2 440.9,203 		"/>
		<path fill="none" d="M523.9,406.7c0,5.8-4.7,10.6-10.6,10.6c-5.8,0-10.6-4.7-10.6-10.6c0-5.8,4.7-10.6,10.6-10.6
			C519.2,396.2,523.9,401,523.9,406.7z"/>
		<path fill="none" d="M435,225.7c0,11.8-9.6,21.4-21.4,21.4c-11.8,0-21.4-9.6-21.4-21.4c0-11.8,9.6-21.4,21.4-21.4
			C425.4,204.3,435,213.9,435,225.7z"/>
		<circle fill="#FFFFFF" cx="413.6" cy="225.7" r="10.6"/>
		<line fill="none" x1="522.8" y1="426" x2="522.8" y2="426"/>
		<path fill="#FFFFFF" d="M449.8,241.5c0,0-4.8,8.5-10.3,11.8l66.1,128.1c0,0,9.8-2.6,18.2,3.7L449.8,241.5z"/>
		<polygon fill="#FFFFFF" points="377.1,205.8 313.2,268.7 273.1,268.7 		"/>
		<polygon fill="#FFFFFF" points="350.1,332.6 390.6,270.2 397.9,287 359.3,347.2 		"/>
		<polygon fill="#FFFFFF" points="172.5,323 172.5,351.3 83.7,351.3 83.7,323 136,323 136,296.6 149.5,296.6 149.5,323 		"/>
		<path fill="#FFFFFF" d="M522.8,439v-13c7.1-3.5,11.9-10.8,11.9-19.2c0-11.8-9.6-21.4-21.4-21.4c-3.4,0-6.6,0.8-9.6,2.2
			l-70.6-132.4c9.6-6.4,15.8-17.3,15.8-29.6c0-8.7-3.1-16.6-8.2-22.8c-0.2-0.2-0.4-0.6-0.7-0.8c-6.4-7.3-16-12-26.5-12
			c-11.6,0-21.8,5.5-28.3,14l-68.2,69.2l25.1,48.7l48-69.7l102.7,148.4c-0.6,1.9-0.9,3.9-0.9,6c0,8.8,5.3,16.2,12.7,19.6v12.7h-34.4
			v52.8l-48.7,45.9h99.5l38-39.9v-58.8h-36.3V439z M413.6,247c-11.8,0-21.4-9.6-21.4-21.4c0-11.8,9.6-21.4,21.4-21.4
			c11.8,0,21.4,9.6,21.4,21.4C435,237.5,425.4,247,413.6,247z M502.9,406.7c0-5.8,4.7-10.6,10.6-10.6c5.8,0,10.6,4.7,10.6,10.6
			c0,5.8-4.7,10.6-10.6,10.6C507.6,417.3,502.9,412.6,502.9,406.7z"/>
		<path fill="#FFFFFF" d="M250.3,429.2l-68.6-67.4H75.5c-12.5,0-22.7,10.1-22.7,22.7v77.8h331.6v-32.9H250.3V429.2z M95.6,431.5
			H70.9v-48.7h24.7V431.5z M130.8,431.5h-24.7v-48.7h24.7V431.5z M166,431.5h-24.7v-48.7H166V431.5z"/>
		<polygon fill="#FFFFFF" points="418.1,507.3 408.6,516.9 380.1,489.9 91.5,489.9 63.1,516.9 53.5,507.3 84.9,475 386.8,475 		"/>
		<polygon fill="#FFFFFF" points="53.5,569.6 63.1,560 91.5,587 380,587 408.6,560 418.1,569.6 386.8,602 84.9,602 		"/>
		<path fill="#FFFFFF" d="M374.2,500.5H96.3l-25.1,23.9v30l22.8,21.7h282.3l22.8-21.7v-30L374.2,500.5z M109.5,557
			c-8.7,0-15.7-7.1-15.7-15.7c0-8.7,7.1-15.7,15.7-15.7s15.7,7.1,15.7,15.7C125.2,549.9,118.1,557,109.5,557z M361,557
			c-8.7,0-15.7-7.1-15.7-15.7c0-8.7,7.1-15.7,15.7-15.7c8.7,0,15.7,7.1,15.7,15.7C376.8,549.9,369.7,557,361,557z"/>
		<path fill="#FFFFFF" d="M306.7,280.5h-97.4c-10.9,0-19.7,8.8-19.7,19.7V355l62.8,62.8l128-0.2L306.7,280.5z M208.7,347.2v-47.5
			h86.5l53.2,98.9l-88.1,0.1L208.7,347.2z"/>
	</g>
</g>
<g id="MAQUINARIA">
	<g>
		<circle fill="#1ABC9C" cx="429.4" cy="200.8" r="12.1"/>
		<line fill="none" x1="554.5" y1="430.3" x2="554.5" y2="430.3"/>
		<path fill="#1ABC9C" d="M470.8,218.9c0,0-5.5,9.8-11.9,13.5l75.7,146.9c0,0,11.2-3,20.9,4.3L470.8,218.9z"/>
		<polygon fill="#1ABC9C" points="387.5,178 314.3,250.1 268.3,250.1 		"/>
		<polygon fill="#1ABC9C" points="356.6,323.3 403,251.8 411.3,271.1 367.1,340 		"/>
		<polygon fill="#1ABC9C" points="153,312.3 153,344.8 51.3,344.8 51.3,312.3 111.2,312.3 111.2,282.1 126.6,282.1 126.6,312.3 		
			"/>
		<path fill="#1ABC9C" d="M554.5,445.3v-14.9c8.1-4,13.7-12.4,13.7-22c0-13.5-11-24.5-24.5-24.5c-3.9,0-7.6,0.9-11,2.6l-80.9-151.8
			c11-7.3,18.2-19.8,18.2-33.9c0-9.9-3.6-19.1-9.4-26.2c-0.3-0.3-0.5-0.6-0.8-0.9c-7.3-8.4-18.3-13.8-30.4-13.8
			c-13.3,0-25,6.3-32.5,16.1l-78.2,79.4l28.7,55.8l55-79.9l117.7,170.1c-0.6,2.2-1,4.5-1,6.8c0,10,6.1,18.6,14.6,22.4v14.6h-39.4
			v60.5l-55.8,52.6h114l43.5-45.7v-67.4h-41.6V445.3z M429.4,225.2c-13.5,0-24.5-11-24.5-24.5c0-13.5,11-24.5,24.5-24.5
			s24.5,11,24.5,24.5C453.8,214.3,442.9,225.2,429.4,225.2z M531.6,408.3c0-6.7,5.4-12.1,12.1-12.1s12.1,5.4,12.1,12.1
			c0,6.7-5.4,12.1-12.1,12.1S531.6,415,531.6,408.3z"/>
		<path fill="#1ABC9C" d="M242.2,434.1l-78.6-77.3H41.8c-14.3,0-26,11.6-26,26v89.1h380v-37.7H242.2V434.1z M64.9,436.6H36.6v-55.8
			h28.3V436.6z M105.2,436.6H76.9v-55.8h28.3V436.6z M145.6,436.6h-28.3v-55.8h28.3V436.6z"/>
		<polygon fill="#1ABC9C" points="434.5,523.6 423.6,534.6 391,503.6 60.1,503.6 27.5,534.6 16.6,523.6 52.5,486.5 398.6,486.5 		
			"/>
		<polygon fill="#1ABC9C" points="16.6,595 27.5,584 60.1,614.9 390.8,614.9 423.6,584 434.5,595 398.6,632.1 52.5,632.1 		"/>
		<path fill="#1ABC9C" d="M384.1,515.7H65.7L37,543.2v34.4l26.2,24.9h323.6l26.2-24.9v-34.4L384.1,515.7z M80.8,580.5
			c-9.9,0-18-8.1-18-18s8.1-18,18-18s18,8.1,18,18S90.7,580.5,80.8,580.5z M369.1,580.5c-9.9,0-18-8.1-18-18s8.1-18,18-18
			s18,8.1,18,18S379,580.5,369.1,580.5z"/>
		<path fill="#1ABC9C" d="M306.8,263.6H195.2c-12.5,0-22.5,10-22.5,22.5V349l72,72l146.7-0.3L306.8,263.6z M194.5,340v-54.5h99.2
			l60.9,113.4l-101,0.1L194.5,340z"/>
	</g>
</g>
<g id="Layer_12" display="none">
	<g display="inline">
		<path d="M339.7,365.6c0,28.2,0,55.6,0,83.4c-43.8,0-87.2,0-131.2,0c0-27.6,0-55.2,0-83.1c-4.4,0-8.4,0-12.8,0
			c0,27.5,0,55.1,0,82.9c-6.2,0-11.9,0-18.1,0c0-18.2,0-36.5,0-55.2c-7.9,0-15.4,0-23,0c-4.8,0-4.7,0-4.7-4.7
			c0.1-9.8,0-19.4,0.1-29.2c0.1-25.4,10.3-45.6,31.8-59.6c9.7-6.3,20.6-9.7,32.1-9.8c33.4-0.2,66.9-0.3,100.3,0
			c19.7,0.2,36.3,8.2,49.2,23c13.8,15.8,27.4,32,41,48c0.7,0.8,1.5,1.7,2.5,2.7c5.3-6.3,10.5-12.5,15.6-18.5
			c6.2-7.4,12.3-14.8,18.5-22.1c7-8.2,20-10.3,29.1-5.1c9.3,5.4,13.4,16.5,9.4,27.1c-1.3,3.6-3.5,7.1-6,10.1
			c-9.8,12-20,23.7-29.9,35.6c-1.5,1.8-3,2.4-5.2,2.4c-21.4-0.1-42.8,0-64.2-0.1c-1.6,0-3.5-0.9-4.5-2c-6.9-7.9-13.5-15.8-20.1-23.9
			C346.9,364.2,343.4,366.6,339.7,365.6z"/>
		<path d="M318.3,235.8c0,3.9,0.3,7.5,0,11c-2.2,22.9-20.7,35.9-41,37c-12,0.7-23.2-1.9-32.8-9.4c-10-7.8-14.7-18.1-15.2-30.6
			c-0.1-2.5,0-4.9,0-7.5c-0.7-0.2-1-0.4-1.5-0.4c-7.3-0.4-7.3-0.4-7.3-7.9c0-3.9,0.1-8-0.1-11.9c-0.1-1.3-0.9-2.8-1.9-3.8
			c-3.6-3.6-7.5-6.9-10.9-10.6c-0.8-0.9-1-3.4-0.4-4.5c1.1-2.1,2.9-1.8,4.6,0c8.9,8.9,19.6,14.6,32,16.6c2.9,0.4,5.8,0.8,8.8,0.7
			c1.1,0,2.1-1.3,3.3-2c-1-0.7-2.1-2-3.1-2c-12.5-0.6-23.7-4.6-33.4-12.6c-1.5-1.2-2.8-2.6-4.2-3.9c-2.5-2.5-1.8-4.9,1.6-6.1
			c1.1-0.3,2.4-0.6,3.9-1c-0.6-13.9-0.6-27.8,8.3-39.7c4.5-6,9.7-11.1,16.9-14.8c0.1,1.3,0.2,2.6,0.2,3.7c0,6.6,0,13.4,0,20
			c0,1.8,0,3.7,2.4,3.7c2.6,0,2.6-2.1,2.5-3.9c-0.1-8.3-0.1-16.5-0.1-24.8c0-5.3,2.8-9.4,8-9.8c9.8-0.4,19.7-0.6,29.4,0
			c6.3,0.4,8.8,4.3,8.8,10.7c0,8,0,15.8-0.1,23.8c0,1.9-0.1,3.9,2.5,3.9c2.4-0.1,2.4-2,2.4-3.8c0-7.6,0-15.4,0-23.7
			c10.1,5.5,17.1,13.2,21.7,23c4.7,10,3.7,20.8,3.8,31.2c0.3,0.2,0.4,0.6,0.7,0.6c2.5,0.3,5.6,0.7,5.8,3.5c0.1,1.7-1.8,3.8-3.4,5.3
			c-9.7,9.2-21.4,13.8-34.6,14.4c-0.3,0-0.8-0.1-1,0.1c-1,0.7-2,1.3-3,2c1,0.8,2.2,2.2,3.1,2.1c6.6-1,13.5-1.8,19.9-3.7
			c8.1-2.5,14.9-7.4,20.9-13.5c1.3-1.5,2.6-2.1,4.4-0.7c1.7,1.5,1.8,3.3,0.4,4.8c-3.5,3.6-7,7.1-10.7,10.3c-1.8,1.6-2.7,2.9-2.6,5.4
			c0.2,4.4,0,8.8,0,13.3c0,4.6-0.9,5.5-5.5,5.6C320.8,235.8,319.9,235.8,318.3,235.8z M319.8,217.7c-14.9,7.5-30.6,5.6-46.1,5.6
			c-15.4,0-31,1.8-45.9-5.7c0,4.2,0,7.6,0,11c8.7,1.5,8.7,1.5,8.7,10.6c0,1.3-0.2,2.8,0,4c0.9,4.7,1.2,9.8,3.1,14
			c5.7,12.6,16.5,18.4,29.7,19.7c15.5,1.3,28.7-3.3,37.4-17.1c4.4-7.1,4.5-15.1,4.4-23c-0.1-7.6-0.1-7.6,7.6-7.9
			c0.3,0,0.6-0.2,0.9-0.3C319.8,225.2,319.8,221.7,319.8,217.7z"/>
		<path d="M171.7,449.4c-31.2,0-62.2,0-93.3,0c0-16.7,0-33.3,0-50c31,0,62,0,93.3,0C171.7,416,171.7,432.5,171.7,449.4z"/>
		<path d="M171.6,621.4c0,16.6,0,33.2,0,49.9c-31,0-61.9,0-93.1,0c0-16.5,0-33,0-49.9C109.5,621.4,140.5,621.4,171.6,621.4z"/>
		<path d="M177.6,671.3c0-16.7,0-33,0-49.8c31,0,61.9,0,93.1,0c0,16.6,0,33,0,49.8C239.6,671.3,208.7,671.3,177.6,671.3z"/>
		<path d="M375.4,449.3c0-16.9,0-33.3,0-50c31.2,0,62.3,0,93.5,0c0,16.6,0,33.3,0,50C437.8,449.3,406.8,449.3,375.4,449.3z"/>
		<path d="M469,621.4c0,16.6,0,33,0,49.8c-30.9,0-61.9,0-93.1,0c0-16.5,0-33,0-49.8C406.8,621.4,437.6,621.4,469,621.4z"/>
		<path d="M171.5,560.4c-31.1,0-62,0-93.2,0c0-16.6,0-33.2,0-49.9c30.9,0,61.9,0,93.2,0C171.5,527,171.5,543.5,171.5,560.4z"/>
		<path d="M369.6,671.3c-31,0-61.8,0-92.8,0c0-16.6,0-33,0-49.8c30.9,0,61.7,0,92.8,0C369.6,638,369.6,654.6,369.6,671.3z"/>
		<path d="M375.9,510.4c31,0,61.8,0,93.1,0c0,16.5,0,33,0,49.9c-31,0-61.9,0-93.1,0C375.9,543.6,375.9,527.1,375.9,510.4z"/>
		<path d="M422.4,566.3c0,16.4,0,32.7,0,49.1c-31.2,0-62.4,0-93.6,0c0-16.4,0-32.6,0-49.1C359.9,566.3,391,566.3,422.4,566.3z"/>
		<path d="M130.8,615.3c0-16.5,0-32.8,0-49.5c1.5,0,2.7,0,3.8,0c28.7,0,57.3,0,86-0.1c2.9,0,3.8,0.6,3.8,3.7
			c-0.2,13.7-0.1,27.4-0.1,41c0,1.5,0,2.9,0,4.7C193.2,615.3,162.2,615.3,130.8,615.3z"/>
		<path d="M329.2,454.8c31,0,61.9,0,93.2,0c0.1,1,0.2,2,0.2,3c0,14.5,0,29,0.1,43.5c0,2.7-0.8,3.4-3.5,3.4c-24.1-0.1-48,0-72,0
			c-5.8,0-11.8,0-18,0C329.2,488,329.2,471.7,329.2,454.8z"/>
		<path d="M323,566.1c0,16.6,0,32.9,0,49.3c-31,0-61.8,0-92.8,0c0-16.4,0-32.8,0-49.3C261.1,566.1,292,566.1,323,566.1z"/>
		<path d="M270.7,510.7c0,16.7,0,32.9,0,49.6c-31,0-61.8,0-93,0c0-16.4,0-32.9,0-49.6C208.6,510.7,239.4,510.7,270.7,510.7z"/>
		<path d="M130.8,504.5c0-16.6,0-32.9,0-49.6c31,0,61.8,0,93.1,0c0,16.4,0,32.9,0,49.6C193,504.5,162.1,504.5,130.8,504.5z"/>
		<path d="M323.3,455c0,2.6,0,4.8,0,7.1c0,13.4-0.1,26.8,0,40c0,2.8-1.5,2.8-3.4,2.8c-13.3,0-26.5,0-39.8,0c-15.5,0-31-0.1-46.5-0.1
			c-1,0-2,0-3.4,0c0-16.6,0-33,0-49.7C261.1,455,291.8,455,323.3,455z"/>
		<path d="M369.7,510.7c0,16.7,0,33,0,49.6c-31,0-61.8,0-93,0c-0.1-0.9-0.3-1.8-0.3-2.6c0-14.7,0-29.4-0.1-44.1
			c0-2.4,0.7-3.1,3.1-3.1c29.3,0.1,58.7,0,88,0C368.1,510.5,368.8,510.6,369.7,510.7z"/>
		<path d="M533.7,321.8c-11.4,13.5-22.4,26.6-33.6,40c-4.8-4-9.6-7.9-14-11.9c-0.6-0.4-0.4-2-0.2-3c5.1-17.4-4.9-33.9-22.8-37.2
			c-6.3-1.1-12.4,0.1-18.1,2.9c-0.8,0.4-2.4,0.7-2.9,0.2c-5.7-4.6-11.2-9.3-17.1-14.2c11.2-13.4,22.4-26.5,33.7-40.1
			C483.5,279.7,508.5,300.6,533.7,321.8z"/>
		<path fill="#FFFFFF" d="M319.8,217.7c0,4.2,0,7.5,0,11c-0.3,0.1-0.7,0.3-0.9,0.3c-7.8,0.2-7.8,0.2-7.6,7.9c0.1,8,0,16-4.4,23
			c-8.7,13.8-21.9,18.4-37.4,17.1c-13.2-1.1-23.9-7.1-29.7-19.7c-1.9-4.3-2.2-9.3-3.1-14c-0.2-1.3,0-2.7,0-4c0-9,0-9-8.7-10.6
			c0-3.4,0-6.9,0-11c14.7,7.5,30.5,5.7,45.9,5.7C289.1,223.3,304.8,225.1,319.8,217.7z"/>
	</g>
</g>
<g id="Layer_13" display="none">
	<g display="inline">
		<path fill="#1ABC9C" d="M339.7,365.6c0,28.2,0,55.6,0,83.4c-43.8,0-87.2,0-131.2,0c0-27.6,0-55.2,0-83.1c-4.4,0-8.4,0-12.8,0
			c0,27.5,0,55.1,0,82.9c-6.2,0-11.9,0-18.1,0c0-18.2,0-36.5,0-55.2c-7.9,0-15.4,0-23,0c-4.8,0-4.7,0-4.7-4.7
			c0.1-9.8,0-19.4,0.1-29.2c0.1-25.4,10.3-45.6,31.8-59.6c9.7-6.3,20.6-9.7,32.1-9.8c33.4-0.2,66.9-0.3,100.3,0
			c19.7,0.2,36.3,8.2,49.2,23c13.8,15.8,27.4,32,41,48c0.7,0.8,1.5,1.7,2.5,2.7c5.3-6.3,10.5-12.5,15.6-18.5
			c6.2-7.4,12.3-14.8,18.5-22.1c7-8.2,20-10.3,29.1-5.1c9.3,5.4,13.4,16.5,9.4,27.1c-1.3,3.6-3.5,7.1-6,10.1
			c-9.8,12-20,23.7-29.9,35.6c-1.5,1.8-3,2.4-5.2,2.4c-21.4-0.1-42.8,0-64.2-0.1c-1.6,0-3.5-0.9-4.5-2c-6.9-7.9-13.5-15.8-20.1-23.9
			C346.9,364.2,343.4,366.6,339.7,365.6z"/>
		<path fill="#1ABC9C" d="M318.3,235.8c0,3.9,0.3,7.5,0,11c-2.2,22.9-20.7,35.9-41,37c-12,0.7-23.2-1.9-32.8-9.4
			c-10-7.8-14.7-18.1-15.2-30.6c-0.1-2.5,0-4.9,0-7.5c-0.7-0.2-1-0.4-1.5-0.4c-7.3-0.4-7.3-0.4-7.3-7.9c0-3.9,0.1-8-0.1-11.9
			c-0.1-1.3-0.9-2.8-1.9-3.8c-3.6-3.6-7.5-6.9-10.9-10.6c-0.8-0.9-1-3.4-0.4-4.5c1.1-2.1,2.9-1.8,4.6,0c8.9,8.9,19.6,14.6,32,16.6
			c2.9,0.4,5.8,0.8,8.8,0.7c1.1,0,2.1-1.3,3.3-2c-1-0.7-2.1-2-3.1-2c-12.5-0.6-23.7-4.6-33.4-12.6c-1.5-1.2-2.8-2.6-4.2-3.9
			c-2.5-2.5-1.8-4.9,1.6-6.1c1.1-0.3,2.4-0.6,3.9-1c-0.6-13.9-0.6-27.8,8.3-39.7c4.5-6,9.7-11.1,16.9-14.8c0.1,1.3,0.2,2.6,0.2,3.7
			c0,6.6,0,13.4,0,20c0,1.8,0,3.7,2.4,3.7c2.6,0,2.6-2.1,2.5-3.9c-0.1-8.3-0.1-16.5-0.1-24.8c0-5.3,2.8-9.4,8-9.8
			c9.8-0.4,19.7-0.6,29.4,0c6.3,0.4,8.8,4.3,8.8,10.7c0,8,0,15.8-0.1,23.8c0,1.9-0.1,3.9,2.5,3.9c2.4-0.1,2.4-2,2.4-3.8
			c0-7.6,0-15.4,0-23.7c10.1,5.5,17.1,13.2,21.7,23c4.7,10,3.7,20.8,3.8,31.2c0.3,0.2,0.4,0.6,0.7,0.6c2.5,0.3,5.6,0.7,5.8,3.5
			c0.1,1.7-1.8,3.8-3.4,5.3c-9.7,9.2-21.4,13.8-34.6,14.4c-0.3,0-0.8-0.1-1,0.1c-1,0.7-2,1.3-3,2c1,0.8,2.2,2.2,3.1,2.1
			c6.6-1,13.5-1.8,19.9-3.7c8.1-2.5,14.9-7.4,20.9-13.5c1.3-1.5,2.6-2.1,4.4-0.7c1.7,1.5,1.8,3.3,0.4,4.8c-3.5,3.6-7,7.1-10.7,10.3
			c-1.8,1.6-2.7,2.9-2.6,5.4c0.2,4.4,0,8.8,0,13.3c0,4.6-0.9,5.5-5.5,5.6C320.8,235.8,319.9,235.8,318.3,235.8z M319.8,217.7
			c-14.9,7.5-30.6,5.6-46.1,5.6c-15.4,0-31,1.8-45.9-5.7c0,4.2,0,7.6,0,11c8.7,1.5,8.7,1.5,8.7,10.6c0,1.3-0.2,2.8,0,4
			c0.9,4.7,1.2,9.8,3.1,14c5.7,12.6,16.5,18.4,29.7,19.7c15.5,1.3,28.7-3.3,37.4-17.1c4.4-7.1,4.5-15.1,4.4-23
			c-0.1-7.6-0.1-7.6,7.6-7.9c0.3,0,0.6-0.2,0.9-0.3C319.8,225.2,319.8,221.7,319.8,217.7z"/>
		<path fill="#1ABC9C" d="M171.7,449.4c-31.2,0-62.2,0-93.3,0c0-16.7,0-33.3,0-50c31,0,62,0,93.3,0
			C171.7,416,171.7,432.5,171.7,449.4z"/>
		<path fill="#1ABC9C" d="M171.6,621.4c0,16.6,0,33.2,0,49.9c-31,0-61.9,0-93.1,0c0-16.5,0-33,0-49.9
			C109.5,621.4,140.5,621.4,171.6,621.4z"/>
		<path fill="#1ABC9C" d="M177.6,671.3c0-16.7,0-33,0-49.8c31,0,61.9,0,93.1,0c0,16.6,0,33,0,49.8
			C239.6,671.3,208.7,671.3,177.6,671.3z"/>
		<path fill="#1ABC9C" d="M375.4,449.3c0-16.9,0-33.3,0-50c31.2,0,62.3,0,93.5,0c0,16.6,0,33.3,0,50
			C437.8,449.3,406.8,449.3,375.4,449.3z"/>
		<path fill="#1ABC9C" d="M469,621.4c0,16.6,0,33,0,49.8c-30.9,0-61.9,0-93.1,0c0-16.5,0-33,0-49.8
			C406.8,621.4,437.6,621.4,469,621.4z"/>
		<path fill="#1ABC9C" d="M171.5,560.4c-31.1,0-62,0-93.2,0c0-16.6,0-33.2,0-49.9c30.9,0,61.9,0,93.2,0
			C171.5,527,171.5,543.5,171.5,560.4z"/>
		<path fill="#1ABC9C" d="M369.6,671.3c-31,0-61.8,0-92.8,0c0-16.6,0-33,0-49.8c30.9,0,61.7,0,92.8,0
			C369.6,638,369.6,654.6,369.6,671.3z"/>
		<path fill="#1ABC9C" d="M375.9,510.4c31,0,61.8,0,93.1,0c0,16.5,0,33,0,49.9c-31,0-61.9,0-93.1,0
			C375.9,543.6,375.9,527.1,375.9,510.4z"/>
		<path fill="#1ABC9C" d="M422.4,566.3c0,16.4,0,32.7,0,49.1c-31.2,0-62.4,0-93.6,0c0-16.4,0-32.6,0-49.1
			C359.9,566.3,391,566.3,422.4,566.3z"/>
		<path fill="#1ABC9C" d="M130.8,615.3c0-16.5,0-32.8,0-49.5c1.5,0,2.7,0,3.8,0c28.7,0,57.3,0,86-0.1c2.9,0,3.8,0.6,3.8,3.7
			c-0.2,13.7-0.1,27.4-0.1,41c0,1.5,0,2.9,0,4.7C193.2,615.3,162.2,615.3,130.8,615.3z"/>
		<path fill="#1ABC9C" d="M329.2,454.8c31,0,61.9,0,93.2,0c0.1,1,0.2,2,0.2,3c0,14.5,0,29,0.1,43.5c0,2.7-0.8,3.4-3.5,3.4
			c-24.1-0.1-48,0-72,0c-5.8,0-11.8,0-18,0C329.2,488,329.2,471.7,329.2,454.8z"/>
		<path fill="#1ABC9C" d="M323,566.1c0,16.6,0,32.9,0,49.3c-31,0-61.8,0-92.8,0c0-16.4,0-32.8,0-49.3
			C261.1,566.1,292,566.1,323,566.1z"/>
		<path fill="#1ABC9C" d="M270.7,510.7c0,16.7,0,32.9,0,49.6c-31,0-61.8,0-93,0c0-16.4,0-32.9,0-49.6
			C208.6,510.7,239.4,510.7,270.7,510.7z"/>
		<path fill="#1ABC9C" d="M130.8,504.5c0-16.6,0-32.9,0-49.6c31,0,61.8,0,93.1,0c0,16.4,0,32.9,0,49.6
			C193,504.5,162.1,504.5,130.8,504.5z"/>
		<path fill="#1ABC9C" d="M323.3,455c0,2.6,0,4.8,0,7.1c0,13.4-0.1,26.8,0,40c0,2.8-1.5,2.8-3.4,2.8c-13.3,0-26.5,0-39.8,0
			c-15.5,0-31-0.1-46.5-0.1c-1,0-2,0-3.4,0c0-16.6,0-33,0-49.7C261.1,455,291.8,455,323.3,455z"/>
		<path fill="#1ABC9C" d="M369.7,510.7c0,16.7,0,33,0,49.6c-31,0-61.8,0-93,0c-0.1-0.9-0.3-1.8-0.3-2.6c0-14.7,0-29.4-0.1-44.1
			c0-2.4,0.7-3.1,3.1-3.1c29.3,0.1,58.7,0,88,0C368.1,510.5,368.8,510.6,369.7,510.7z"/>
		<path fill="#1ABC9C" d="M533.7,321.8c-11.4,13.5-22.4,26.6-33.6,40c-4.8-4-9.6-7.9-14-11.9c-0.6-0.4-0.4-2-0.2-3
			c5.1-17.4-4.9-33.9-22.8-37.2c-6.3-1.1-12.4,0.1-18.1,2.9c-0.8,0.4-2.4,0.7-2.9,0.2c-5.7-4.6-11.2-9.3-17.1-14.2
			c11.2-13.4,22.4-26.5,33.7-40.1C483.5,279.7,508.5,300.6,533.7,321.8z"/>
		<path fill="#1ABC9C" d="M319.8,217.7c0,4.2,0,7.5,0,11c-0.3,0.1-0.7,0.3-0.9,0.3c-7.8,0.2-7.8,0.2-7.6,7.9c0.1,8,0,16-4.4,23
			c-8.7,13.8-21.9,18.4-37.4,17.1c-13.2-1.1-23.9-7.1-29.7-19.7c-1.9-4.3-2.2-9.3-3.1-14c-0.2-1.3,0-2.7,0-4c0-9,0-9-8.7-10.6
			c0-3.4,0-6.9,0-11c14.7,7.5,30.5,5.7,45.9,5.7C289.1,223.3,304.8,225.1,319.8,217.7z"/>
	</g>
</g>
</svg>
