<?xml version="1.0" encoding="utf-8"?>
<!-- Generator: Adobe Illustrator 18.1.1, SVG Export Plug-In . SVG Version: 6.00 Build 0)  -->
<svg version="1.1" xmlns="http://www.w3.org/2000/svg" xmlns:xlink="http://www.w3.org/1999/xlink" x="0px" y="0px"
	 viewBox="0 0 16 16" enable-background="new 0 0 16 16" xml:space="preserve">
<g id="Color" display="none">
	<g display="inline">
		<g>
			<path fill="#8CC53F" d="M5,5.7c0,0,0.8-3.4,4.5-3.7c0,0-1.1,1.1-0.9,2.8c0.2,1.7,4.3,5.6,0.1,7.9C8.7,12.7,11.3,7.1,5,5.7z"/>
			<path fill="#3AB34A" d="M15.6,12.4c0,0-3.8,2.5-8.2,1.2c0,0-9.9,2.5-6-10.2c0,0,1,1.7,2.4,2.2S6.9,6.5,8,7.9s0.8,3.6,0,4.8V9.9
				h0.5L5.9,7.3L3.4,9.9H4v0.9c0,0-0.8-0.4-2-2.3c0,0,0.7,3.6,5.2,4.5C7.2,13.1,10.4,14.5,15.6,12.4z"/>
		</g>
		<path fill="#3AB34A" d="M6.6,12.4v-1.9H5.4v1.3C5.4,11.8,6,12.2,6.6,12.4z"/>
	</g>
</g>
<g id="Blanco" display="none">
	<g display="inline">
		<g>
			<path fill="#FFFFFF" d="M5,5.7c0,0,0.8-3.4,4.5-3.7c0,0-1.1,1.1-0.9,2.8c0.2,1.7,4.3,5.6,0.1,7.9C8.7,12.7,11.3,7.1,5,5.7z"/>
			<path fill="#FFFFFF" d="M15.6,12.4c0,0-3.8,2.5-8.2,1.2c0,0-9.9,2.5-6-10.2c0,0,1,1.7,2.4,2.2S6.9,6.5,8,7.9s0.8,3.6,0,4.8V9.9
				h0.5L5.9,7.3L3.4,9.9H4v0.9c0,0-0.8-0.4-2-2.3c0,0,0.7,3.6,5.2,4.5C7.2,13.1,10.4,14.5,15.6,12.4z"/>
		</g>
		<path fill="#FFFFFF" d="M6.6,12.4v-1.9H5.4v1.3C5.4,11.8,6,12.2,6.6,12.4z"/>
	</g>
</g>
<g id="Negro" display="none">
	<g display="inline">
		<g>
			<path d="M5,5.7c0,0,0.8-3.4,4.5-3.7c0,0-1.1,1.1-0.9,2.8c0.2,1.7,4.3,5.6,0.1,7.9C8.7,12.7,11.3,7.1,5,5.7z"/>
			<path d="M15.6,12.4c0,0-3.8,2.5-8.2,1.2c0,0-9.9,2.5-6-10.2c0,0,1,1.7,2.4,2.2S6.9,6.5,8,7.9s0.8,3.6,0,4.8V9.9h0.5L5.9,7.3
				L3.4,9.9H4v0.9c0,0-0.8-0.4-2-2.3c0,0,0.7,3.6,5.2,4.5C7.2,13.1,10.4,14.5,15.6,12.4z"/>
		</g>
		<path d="M6.6,12.4v-1.9H5.4v1.3C5.4,11.8,6,12.2,6.6,12.4z"/>
	</g>
</g>
<g id="Instagram" display="none">
	<g id="XMLID_1812_" display="inline">
		<path id="XMLID_1817_" fill="#FFFFFF" d="M8,2.5c1.8,0,2,0,2.7,0c0.7,0,1,0.1,1.2,0.2c0.3,0.1,0.5,0.3,0.8,0.5
			c0.2,0.2,0.4,0.5,0.5,0.8c0.1,0.2,0.2,0.6,0.2,1.2c0,0.7,0,0.9,0,2.7c0,1.8,0,2,0,2.7c0,0.7-0.1,1-0.2,1.2
			c-0.1,0.3-0.3,0.5-0.5,0.8c-0.2,0.2-0.5,0.4-0.8,0.5c-0.2,0.1-0.6,0.2-1.2,0.2c-0.7,0-0.9,0-2.7,0s-2,0-2.7,0
			c-0.7,0-1-0.1-1.2-0.2c-0.3-0.1-0.5-0.3-0.8-0.5c-0.2-0.2-0.4-0.5-0.5-0.8c-0.1-0.2-0.2-0.6-0.2-1.2c0-0.7,0-0.9,0-2.7
			c0-1.8,0-2,0-2.7c0-0.7,0.1-1,0.2-1.2c0.1-0.3,0.3-0.5,0.5-0.8c0.2-0.2,0.5-0.4,0.8-0.5c0.2-0.1,0.6-0.2,1.2-0.2
			C6,2.5,6.2,2.5,8,2.5 M8,1.3c-1.8,0-2,0-2.8,0C4.5,1.4,4,1.5,3.6,1.7C3.2,1.8,2.8,2.1,2.4,2.4C2.1,2.8,1.8,3.2,1.7,3.6
			C1.5,4,1.4,4.5,1.4,5.2c0,0.7,0,0.9,0,2.8s0,2,0,2.8c0,0.7,0.1,1.2,0.3,1.6c0.2,0.4,0.4,0.8,0.8,1.2c0.4,0.4,0.7,0.6,1.2,0.8
			c0.4,0.2,0.9,0.3,1.6,0.3c0.7,0,0.9,0,2.8,0s2,0,2.8,0c0.7,0,1.2-0.1,1.6-0.3c0.4-0.2,0.8-0.4,1.2-0.8c0.4-0.4,0.6-0.7,0.8-1.2
			c0.2-0.4,0.3-0.9,0.3-1.6c0-0.7,0-0.9,0-2.8s0-2,0-2.8c0-0.7-0.1-1.2-0.3-1.6c-0.2-0.4-0.4-0.8-0.8-1.2c-0.4-0.4-0.7-0.6-1.2-0.8
			c-0.4-0.2-0.9-0.3-1.6-0.3C10,1.3,9.8,1.3,8,1.3"/>
		<path id="XMLID_1814_" fill="#FFFFFF" d="M8,4.6C6.1,4.6,4.6,6.1,4.6,8s1.5,3.4,3.4,3.4c1.9,0,3.4-1.5,3.4-3.4S9.9,4.6,8,4.6
			 M8,10.2c-1.2,0-2.2-1-2.2-2.2c0-1.2,1-2.2,2.2-2.2s2.2,1,2.2,2.2C10.2,9.2,9.2,10.2,8,10.2"/>
		<path id="XMLID_1813_" fill="#FFFFFF" d="M12.4,4.4c0,0.4-0.4,0.8-0.8,0.8c-0.4,0-0.8-0.4-0.8-0.8s0.4-0.8,0.8-0.8
			C12,3.6,12.4,4,12.4,4.4"/>
	</g>
</g>
<g id="Facebook" display="none">
	<path id="XMLID_1822_" display="inline" fill="#FFFFFF" d="M6.3,14.7H9V7.9h1.9l0.2-2.3H9c0,0,0-0.8,0-1.3c0-0.5,0.1-0.7,0.6-0.7
		c0.4,0,1.5,0,1.5,0V1.3c0,0-1.5,0-1.9,0c-2,0-2.9,0.9-2.9,2.6c0,1.5,0,1.8,0,1.8H4.9V8h1.4V14.7z"/>
</g>
<g id="WhatsApp">
	<g id="XMLID_1786_">
		<path id="XMLID_1788_" fill-rule="evenodd" clip-rule="evenodd" fill="#FFFFFF" d="M14.7,7.7c-0.1-3.5-3-6.3-6.5-6.3
			c-3.5,0-6.4,2.8-6.5,6.2c0,0.1,0,0.2,0,0.3c0,1.2,0.3,2.4,0.9,3.4l-1.2,3.5L5,13.5c0.9,0.5,2,0.8,3.2,0.8c3.6,0,6.5-2.9,6.5-6.5
			C14.7,7.8,14.7,7.7,14.7,7.7z M8.1,13.3c-1.1,0-2.2-0.3-3-0.9L3,13.1l0.7-2c-0.7-0.9-1-2-1-3.2c0-0.2,0-0.4,0-0.5
			c0.3-2.8,2.6-4.9,5.5-4.9c2.9,0,5.3,2.2,5.5,5c0,0.1,0,0.3,0,0.4C13.6,10.8,11.2,13.3,8.1,13.3z"/>
		<path id="XMLID_1787_" fill-rule="evenodd" clip-rule="evenodd" fill="#FFFFFF" d="M11.1,9.1C11,9.1,10.2,8.7,10,8.6
			C9.9,8.6,9.8,8.5,9.7,8.7C9.6,8.9,9.2,9.2,9.2,9.3C9.1,9.4,9,9.4,8.8,9.4C8.6,9.3,8.1,9.1,7.5,8.6C7,8.2,6.7,7.6,6.6,7.5
			c-0.1-0.2,0-0.2,0.1-0.3C6.8,7.1,6.9,7,6.9,6.9c0,0,0-0.1,0.1-0.1c0-0.1,0.1-0.1,0.1-0.2c0.1-0.1,0-0.2,0-0.3
			c0-0.1-0.4-0.9-0.5-1.2C6.5,4.8,6.3,4.9,6.2,4.9c-0.1,0-0.2,0-0.3,0c-0.1,0-0.3,0-0.4,0.2C5.3,5.2,4.9,5.6,4.9,6.4
			c0,0.2,0,0.4,0.1,0.5C5.2,7.5,5.5,8,5.6,8c0.1,0.1,1.1,1.8,2.7,2.4c1.6,0.6,1.6,0.4,1.9,0.4c0.3,0,0.9-0.4,1.1-0.8
			c0.1-0.4,0.1-0.7,0.1-0.8C11.4,9.3,11.3,9.2,11.1,9.1z"/>
	</g>
</g>
</svg>
